%TF.GenerationSoftware,KiCad,Pcbnew,6.0.9+dfsg-1*%
%TF.CreationDate,2022-12-20T22:45:32+00:00*%
%TF.ProjectId,HP_54542C_Display_Adapter,48505f35-3435-4343-9243-5f446973706c,1*%
%TF.SameCoordinates,Original*%
%TF.FileFunction,Copper,L1,Top*%
%TF.FilePolarity,Positive*%
%FSLAX46Y46*%
G04 Gerber Fmt 4.6, Leading zero omitted, Abs format (unit mm)*
G04 Created by KiCad (PCBNEW 6.0.9+dfsg-1) date 2022-12-20 22:45:32*
%MOMM*%
%LPD*%
G01*
G04 APERTURE LIST*
G04 Aperture macros list*
%AMRoundRect*
0 Rectangle with rounded corners*
0 $1 Rounding radius*
0 $2 $3 $4 $5 $6 $7 $8 $9 X,Y pos of 4 corners*
0 Add a 4 corners polygon primitive as box body*
4,1,4,$2,$3,$4,$5,$6,$7,$8,$9,$2,$3,0*
0 Add four circle primitives for the rounded corners*
1,1,$1+$1,$2,$3*
1,1,$1+$1,$4,$5*
1,1,$1+$1,$6,$7*
1,1,$1+$1,$8,$9*
0 Add four rect primitives between the rounded corners*
20,1,$1+$1,$2,$3,$4,$5,0*
20,1,$1+$1,$4,$5,$6,$7,0*
20,1,$1+$1,$6,$7,$8,$9,0*
20,1,$1+$1,$8,$9,$2,$3,0*%
G04 Aperture macros list end*
%TA.AperFunction,ComponentPad*%
%ADD10C,4.500000*%
%TD*%
%TA.AperFunction,ComponentPad*%
%ADD11C,1.500000*%
%TD*%
%TA.AperFunction,SMDPad,CuDef*%
%ADD12RoundRect,0.237500X-0.250000X-0.237500X0.250000X-0.237500X0.250000X0.237500X-0.250000X0.237500X0*%
%TD*%
%TA.AperFunction,SMDPad,CuDef*%
%ADD13RoundRect,0.237500X0.250000X0.237500X-0.250000X0.237500X-0.250000X-0.237500X0.250000X-0.237500X0*%
%TD*%
%TA.AperFunction,SMDPad,CuDef*%
%ADD14RoundRect,0.237500X0.300000X0.237500X-0.300000X0.237500X-0.300000X-0.237500X0.300000X-0.237500X0*%
%TD*%
%TA.AperFunction,ComponentPad*%
%ADD15R,2.400000X1.600000*%
%TD*%
%TA.AperFunction,ComponentPad*%
%ADD16O,2.400000X1.600000*%
%TD*%
%TA.AperFunction,ComponentPad*%
%ADD17R,1.700000X1.700000*%
%TD*%
%TA.AperFunction,ComponentPad*%
%ADD18O,1.700000X1.700000*%
%TD*%
%TA.AperFunction,ComponentPad*%
%ADD19R,1.000000X1.000000*%
%TD*%
%TA.AperFunction,ComponentPad*%
%ADD20O,1.000000X1.000000*%
%TD*%
%TA.AperFunction,ComponentPad*%
%ADD21C,7.500000*%
%TD*%
%TA.AperFunction,ViaPad*%
%ADD22C,0.800000*%
%TD*%
%TA.AperFunction,Conductor*%
%ADD23C,0.250000*%
%TD*%
G04 APERTURE END LIST*
D10*
%TO.P,J5,*%
%TO.N,*%
X145695166Y-137481254D03*
X120705166Y-137454731D03*
D11*
%TO.P,J5,1*%
%TO.N,/vga_red_2*%
X138041500Y-134945337D03*
%TO.P,J5,2*%
%TO.N,/vga_green_2*%
X135751500Y-134945337D03*
%TO.P,J5,3*%
%TO.N,/vga_blue_2*%
X133461500Y-134960000D03*
%TO.P,J5,4*%
%TO.N,unconnected-(J5-Pad4)*%
X131171500Y-134960000D03*
%TO.P,J5,5*%
%TO.N,GND*%
X128881500Y-134960000D03*
%TO.P,J5,6*%
X139186500Y-137447244D03*
%TO.P,J5,7*%
X136896500Y-137462593D03*
%TO.P,J5,8*%
X134606500Y-137477943D03*
%TO.P,J5,9*%
%TO.N,unconnected-(J5-Pad9)*%
X132316500Y-137493292D03*
%TO.P,J5,10*%
%TO.N,GND*%
X130026500Y-137500000D03*
%TO.P,J5,11*%
%TO.N,unconnected-(J5-Pad11)*%
X138030166Y-140040000D03*
%TO.P,J5,12*%
%TO.N,unconnected-(J5-Pad12)*%
X135740166Y-140040000D03*
%TO.P,J5,13*%
%TO.N,/vga_hsync_2*%
X133450166Y-140040000D03*
%TO.P,J5,14*%
%TO.N,/vga_vsync_2*%
X131160166Y-140040000D03*
%TO.P,J5,15*%
%TO.N,unconnected-(J5-Pad15)*%
X128881500Y-140040000D03*
%TD*%
D10*
%TO.P,J4,*%
%TO.N,*%
X179395166Y-137431254D03*
X154405166Y-137404731D03*
D11*
%TO.P,J4,1*%
%TO.N,/vga_red_1*%
X171741500Y-134895337D03*
%TO.P,J4,2*%
%TO.N,/vga_green_1*%
X169451500Y-134895337D03*
%TO.P,J4,3*%
%TO.N,/vga_blue_1*%
X167161500Y-134910000D03*
%TO.P,J4,4*%
%TO.N,unconnected-(J4-Pad4)*%
X164871500Y-134910000D03*
%TO.P,J4,5*%
%TO.N,GND*%
X162581500Y-134910000D03*
%TO.P,J4,6*%
X172886500Y-137397244D03*
%TO.P,J4,7*%
X170596500Y-137412593D03*
%TO.P,J4,8*%
X168306500Y-137427943D03*
%TO.P,J4,9*%
%TO.N,unconnected-(J4-Pad9)*%
X166016500Y-137443292D03*
%TO.P,J4,10*%
%TO.N,GND*%
X163726500Y-137450000D03*
%TO.P,J4,11*%
%TO.N,unconnected-(J4-Pad11)*%
X171730166Y-139990000D03*
%TO.P,J4,12*%
%TO.N,unconnected-(J4-Pad12)*%
X169440166Y-139990000D03*
%TO.P,J4,13*%
%TO.N,/vga_hsync_1*%
X167150166Y-139990000D03*
%TO.P,J4,14*%
%TO.N,/vga_vsync_1*%
X164860166Y-139990000D03*
%TO.P,J4,15*%
%TO.N,unconnected-(J4-Pad15)*%
X162581500Y-139990000D03*
%TD*%
D12*
%TO.P,R36,1*%
%TO.N,Net-(R36-Pad1)*%
X194667500Y-109220000D03*
%TO.P,R36,2*%
%TO.N,unconnected-(R36-Pad2)*%
X196492500Y-109220000D03*
%TD*%
%TO.P,R35,1*%
%TO.N,Net-(R35-Pad1)*%
X194667500Y-116840000D03*
%TO.P,R35,2*%
%TO.N,/vga_vsync_2*%
X196492500Y-116840000D03*
%TD*%
%TO.P,R34,1*%
%TO.N,Net-(R34-Pad1)*%
X194667500Y-121920000D03*
%TO.P,R34,2*%
%TO.N,/vga_hsync_2*%
X196492500Y-121920000D03*
%TD*%
D13*
%TO.P,R33,1*%
%TO.N,Net-(R33-Pad1)*%
X181252500Y-119380000D03*
%TO.P,R33,2*%
%TO.N,/vga_blue_2*%
X179427500Y-119380000D03*
%TD*%
%TO.P,R32,1*%
%TO.N,Net-(R32-Pad1)*%
X181252500Y-114300000D03*
%TO.P,R32,2*%
%TO.N,/vga_blue_2*%
X179427500Y-114300000D03*
%TD*%
%TO.P,R31,1*%
%TO.N,Net-(R31-Pad1)*%
X181252500Y-109220000D03*
%TO.P,R31,2*%
%TO.N,/vga_blue_2*%
X179427500Y-109220000D03*
%TD*%
D12*
%TO.P,R30,1*%
%TO.N,Net-(R30-Pad1)*%
X175617500Y-109220000D03*
%TO.P,R30,2*%
%TO.N,unconnected-(R30-Pad2)*%
X177442500Y-109220000D03*
%TD*%
%TO.P,R29,1*%
%TO.N,Net-(R29-Pad1)*%
X175617500Y-116840000D03*
%TO.P,R29,2*%
%TO.N,/vga_vsync_1*%
X177442500Y-116840000D03*
%TD*%
%TO.P,R28,1*%
%TO.N,Net-(R28-Pad1)*%
X175617500Y-121920000D03*
%TO.P,R28,2*%
%TO.N,/vga_hsync_1*%
X177442500Y-121920000D03*
%TD*%
D13*
%TO.P,R27,1*%
%TO.N,Net-(R27-Pad1)*%
X162202500Y-119380000D03*
%TO.P,R27,2*%
%TO.N,/vga_blue_1*%
X160377500Y-119380000D03*
%TD*%
%TO.P,R26,1*%
%TO.N,Net-(R26-Pad1)*%
X162202500Y-114300000D03*
%TO.P,R26,2*%
%TO.N,/vga_blue_1*%
X160377500Y-114300000D03*
%TD*%
%TO.P,R25,1*%
%TO.N,Net-(R25-Pad1)*%
X162202500Y-109220000D03*
%TO.P,R25,2*%
%TO.N,/vga_blue_1*%
X160377500Y-109220000D03*
%TD*%
D12*
%TO.P,R24,1*%
%TO.N,Net-(R24-Pad1)*%
X194667500Y-78740000D03*
%TO.P,R24,2*%
%TO.N,/vga_green_2*%
X196492500Y-78740000D03*
%TD*%
%TO.P,R23,1*%
%TO.N,Net-(R23-Pad1)*%
X194667500Y-86360000D03*
%TO.P,R23,2*%
%TO.N,/vga_green_2*%
X196492500Y-86360000D03*
%TD*%
%TO.P,R22,1*%
%TO.N,Net-(R22-Pad1)*%
X194667500Y-91440000D03*
%TO.P,R22,2*%
%TO.N,/vga_green_2*%
X196492500Y-91440000D03*
%TD*%
D13*
%TO.P,R21,1*%
%TO.N,Net-(R21-Pad1)*%
X181252500Y-88900000D03*
%TO.P,R21,2*%
%TO.N,/vga_red_2*%
X179427500Y-88900000D03*
%TD*%
%TO.P,R20,1*%
%TO.N,Net-(R20-Pad1)*%
X181252500Y-83820000D03*
%TO.P,R20,2*%
%TO.N,/vga_red_2*%
X179427500Y-83820000D03*
%TD*%
%TO.P,R19,1*%
%TO.N,Net-(R19-Pad1)*%
X181252500Y-78740000D03*
%TO.P,R19,2*%
%TO.N,/vga_red_2*%
X179427500Y-78740000D03*
%TD*%
D12*
%TO.P,R18,1*%
%TO.N,Net-(R18-Pad1)*%
X175617500Y-78740000D03*
%TO.P,R18,2*%
%TO.N,/vga_green_1*%
X177442500Y-78740000D03*
%TD*%
%TO.P,R17,1*%
%TO.N,Net-(R17-Pad1)*%
X175617500Y-86360000D03*
%TO.P,R17,2*%
%TO.N,/vga_green_1*%
X177442500Y-86360000D03*
%TD*%
%TO.P,R16,1*%
%TO.N,Net-(R16-Pad1)*%
X175617500Y-91440000D03*
%TO.P,R16,2*%
%TO.N,/vga_green_1*%
X177442500Y-91440000D03*
%TD*%
D13*
%TO.P,R15,1*%
%TO.N,Net-(R15-Pad1)*%
X162202500Y-88900000D03*
%TO.P,R15,2*%
%TO.N,/vga_red_1*%
X160377500Y-88900000D03*
%TD*%
%TO.P,R14,1*%
%TO.N,Net-(R14-Pad1)*%
X162202500Y-83820000D03*
%TO.P,R14,2*%
%TO.N,/vga_red_1*%
X160377500Y-83820000D03*
%TD*%
%TO.P,R13,1*%
%TO.N,Net-(R13-Pad1)*%
X162202500Y-78740000D03*
%TO.P,R13,2*%
%TO.N,/vga_red_1*%
X160377500Y-78740000D03*
%TD*%
%TO.P,R12,1*%
%TO.N,/in_25*%
X134262500Y-111760000D03*
%TO.P,R12,2*%
%TO.N,Net-(R12-Pad2)*%
X132437500Y-111760000D03*
%TD*%
%TO.P,R11,1*%
%TO.N,/in_23*%
X134262500Y-119380000D03*
%TO.P,R11,2*%
%TO.N,Net-(R11-Pad2)*%
X132437500Y-119380000D03*
%TD*%
%TO.P,R10,1*%
%TO.N,/in_21*%
X134262500Y-124460000D03*
%TO.P,R10,2*%
%TO.N,Net-(R10-Pad2)*%
X132437500Y-124460000D03*
%TD*%
D12*
%TO.P,R9,1*%
%TO.N,/in_19*%
X117197500Y-121920000D03*
%TO.P,R9,2*%
%TO.N,Net-(R9-Pad2)*%
X119022500Y-121920000D03*
%TD*%
%TO.P,R8,1*%
%TO.N,/in_15*%
X117197500Y-116840000D03*
%TO.P,R8,2*%
%TO.N,Net-(R8-Pad2)*%
X119022500Y-116840000D03*
%TD*%
%TO.P,R7,1*%
%TO.N,/in_14*%
X117197500Y-111760000D03*
%TO.P,R7,2*%
%TO.N,Net-(R7-Pad2)*%
X119022500Y-111760000D03*
%TD*%
D13*
%TO.P,R6,1*%
%TO.N,/in_13*%
X134262500Y-81280000D03*
%TO.P,R6,2*%
%TO.N,Net-(R6-Pad2)*%
X132437500Y-81280000D03*
%TD*%
%TO.P,R5,1*%
%TO.N,/in_11*%
X134262500Y-88900000D03*
%TO.P,R5,2*%
%TO.N,Net-(R5-Pad2)*%
X132437500Y-88900000D03*
%TD*%
%TO.P,R4,1*%
%TO.N,/in_09*%
X134262500Y-93980000D03*
%TO.P,R4,2*%
%TO.N,Net-(R4-Pad2)*%
X132437500Y-93980000D03*
%TD*%
D12*
%TO.P,R3,1*%
%TO.N,/in_07*%
X117197500Y-91440000D03*
%TO.P,R3,2*%
%TO.N,Net-(R3-Pad2)*%
X119022500Y-91440000D03*
%TD*%
%TO.P,R2,1*%
%TO.N,/in_05*%
X117197500Y-86360000D03*
%TO.P,R2,2*%
%TO.N,Net-(R2-Pad2)*%
X119022500Y-86360000D03*
%TD*%
%TO.P,R1,1*%
%TO.N,/in_03*%
X117197500Y-81280000D03*
%TO.P,R1,2*%
%TO.N,Net-(R1-Pad2)*%
X119022500Y-81280000D03*
%TD*%
D14*
%TO.P,C7,1*%
%TO.N,GND*%
X185875000Y-104140000D03*
%TO.P,C7,2*%
%TO.N,+5V*%
X184150000Y-104140000D03*
%TD*%
%TO.P,C6,1*%
%TO.N,GND*%
X166825000Y-104140000D03*
%TO.P,C6,2*%
%TO.N,+5V*%
X165100000Y-104140000D03*
%TD*%
%TO.P,C5,1*%
%TO.N,GND*%
X185875000Y-73660000D03*
%TO.P,C5,2*%
%TO.N,+5V*%
X184150000Y-73660000D03*
%TD*%
%TO.P,C4,1*%
%TO.N,GND*%
X166825000Y-73660000D03*
%TO.P,C4,2*%
%TO.N,+5V*%
X165100000Y-73660000D03*
%TD*%
%TO.P,C3,1*%
%TO.N,GND*%
X123645000Y-104140000D03*
%TO.P,C3,2*%
%TO.N,+5V*%
X121920000Y-104140000D03*
%TD*%
%TO.P,C2,1*%
%TO.N,GND*%
X123645000Y-73660000D03*
%TO.P,C2,2*%
%TO.N,+5V*%
X121920000Y-73660000D03*
%TD*%
D15*
%TO.P,U7,1,VDD*%
%TO.N,+5V*%
X184135000Y-106680000D03*
D16*
%TO.P,U7,2,1Y*%
%TO.N,Net-(R31-Pad1)*%
X184135000Y-109220000D03*
%TO.P,U7,3,1A*%
%TO.N,/f_out_b0*%
X184135000Y-111760000D03*
%TO.P,U7,4,2Y*%
%TO.N,Net-(R32-Pad1)*%
X184135000Y-114300000D03*
%TO.P,U7,5,2A*%
%TO.N,/f_out_b1*%
X184135000Y-116840000D03*
%TO.P,U7,6,3Y*%
%TO.N,Net-(R33-Pad1)*%
X184135000Y-119380000D03*
%TO.P,U7,7,3A*%
%TO.N,/f_out_b2*%
X184135000Y-121920000D03*
%TO.P,U7,8,VSS*%
%TO.N,GND*%
X184135000Y-124460000D03*
%TO.P,U7,9,4A*%
%TO.N,/f_out_hsync*%
X191755000Y-124460000D03*
%TO.P,U7,10,4Y*%
%TO.N,Net-(R34-Pad1)*%
X191755000Y-121920000D03*
%TO.P,U7,11,5A*%
%TO.N,/f_out_vsync*%
X191755000Y-119380000D03*
%TO.P,U7,12,5Y*%
%TO.N,Net-(R35-Pad1)*%
X191755000Y-116840000D03*
%TO.P,U7,13,NC*%
%TO.N,unconnected-(U7-Pad13)*%
X191755000Y-114300000D03*
%TO.P,U7,14,6A*%
%TO.N,GND*%
X191755000Y-111760000D03*
%TO.P,U7,15,6Y*%
%TO.N,Net-(R36-Pad1)*%
X191755000Y-109220000D03*
%TO.P,U7,16,NC*%
%TO.N,unconnected-(U7-Pad16)*%
X191755000Y-106680000D03*
%TD*%
D15*
%TO.P,U6,1,VDD*%
%TO.N,+5V*%
X165085000Y-106680000D03*
D16*
%TO.P,U6,2,1Y*%
%TO.N,Net-(R25-Pad1)*%
X165085000Y-109220000D03*
%TO.P,U6,3,1A*%
%TO.N,/f_out_b0*%
X165085000Y-111760000D03*
%TO.P,U6,4,2Y*%
%TO.N,Net-(R26-Pad1)*%
X165085000Y-114300000D03*
%TO.P,U6,5,2A*%
%TO.N,/f_out_b1*%
X165085000Y-116840000D03*
%TO.P,U6,6,3Y*%
%TO.N,Net-(R27-Pad1)*%
X165085000Y-119380000D03*
%TO.P,U6,7,3A*%
%TO.N,/f_out_b2*%
X165085000Y-121920000D03*
%TO.P,U6,8,VSS*%
%TO.N,GND*%
X165085000Y-124460000D03*
%TO.P,U6,9,4A*%
%TO.N,/f_out_hsync*%
X172705000Y-124460000D03*
%TO.P,U6,10,4Y*%
%TO.N,Net-(R28-Pad1)*%
X172705000Y-121920000D03*
%TO.P,U6,11,5A*%
%TO.N,/f_out_vsync*%
X172705000Y-119380000D03*
%TO.P,U6,12,5Y*%
%TO.N,Net-(R29-Pad1)*%
X172705000Y-116840000D03*
%TO.P,U6,13,NC*%
%TO.N,unconnected-(U6-Pad13)*%
X172705000Y-114300000D03*
%TO.P,U6,14,6A*%
%TO.N,GND*%
X172705000Y-111760000D03*
%TO.P,U6,15,6Y*%
%TO.N,Net-(R30-Pad1)*%
X172705000Y-109220000D03*
%TO.P,U6,16,NC*%
%TO.N,unconnected-(U6-Pad16)*%
X172705000Y-106680000D03*
%TD*%
D15*
%TO.P,U5,1,VDD*%
%TO.N,+5V*%
X184120000Y-76215000D03*
D16*
%TO.P,U5,2,1Y*%
%TO.N,Net-(R19-Pad1)*%
X184120000Y-78755000D03*
%TO.P,U5,3,1A*%
%TO.N,/f_out_r0*%
X184120000Y-81295000D03*
%TO.P,U5,4,2Y*%
%TO.N,Net-(R20-Pad1)*%
X184120000Y-83835000D03*
%TO.P,U5,5,2A*%
%TO.N,/f_out_r1*%
X184120000Y-86375000D03*
%TO.P,U5,6,3Y*%
%TO.N,Net-(R21-Pad1)*%
X184120000Y-88915000D03*
%TO.P,U5,7,3A*%
%TO.N,/f_out_r2*%
X184120000Y-91455000D03*
%TO.P,U5,8,VSS*%
%TO.N,GND*%
X184120000Y-93995000D03*
%TO.P,U5,9,4A*%
%TO.N,/f_out_g0*%
X191740000Y-93995000D03*
%TO.P,U5,10,4Y*%
%TO.N,Net-(R22-Pad1)*%
X191740000Y-91455000D03*
%TO.P,U5,11,5A*%
%TO.N,/f_out_g1*%
X191740000Y-88915000D03*
%TO.P,U5,12,5Y*%
%TO.N,Net-(R23-Pad1)*%
X191740000Y-86375000D03*
%TO.P,U5,13,NC*%
%TO.N,unconnected-(U5-Pad13)*%
X191740000Y-83835000D03*
%TO.P,U5,14,6A*%
%TO.N,/f_out_g2*%
X191740000Y-81295000D03*
%TO.P,U5,15,6Y*%
%TO.N,Net-(R24-Pad1)*%
X191740000Y-78755000D03*
%TO.P,U5,16,NC*%
%TO.N,unconnected-(U5-Pad16)*%
X191740000Y-76215000D03*
%TD*%
D15*
%TO.P,U4,1,VDD*%
%TO.N,+5V*%
X165085000Y-76215000D03*
D16*
%TO.P,U4,2,1Y*%
%TO.N,Net-(R13-Pad1)*%
X165085000Y-78755000D03*
%TO.P,U4,3,1A*%
%TO.N,/f_out_r0*%
X165085000Y-81295000D03*
%TO.P,U4,4,2Y*%
%TO.N,Net-(R14-Pad1)*%
X165085000Y-83835000D03*
%TO.P,U4,5,2A*%
%TO.N,/f_out_r1*%
X165085000Y-86375000D03*
%TO.P,U4,6,3Y*%
%TO.N,Net-(R15-Pad1)*%
X165085000Y-88915000D03*
%TO.P,U4,7,3A*%
%TO.N,/f_out_r2*%
X165085000Y-91455000D03*
%TO.P,U4,8,VSS*%
%TO.N,GND*%
X165085000Y-93995000D03*
%TO.P,U4,9,4A*%
%TO.N,/f_out_g0*%
X172705000Y-93995000D03*
%TO.P,U4,10,4Y*%
%TO.N,Net-(R16-Pad1)*%
X172705000Y-91455000D03*
%TO.P,U4,11,5A*%
%TO.N,/f_out_g1*%
X172705000Y-88915000D03*
%TO.P,U4,12,5Y*%
%TO.N,Net-(R17-Pad1)*%
X172705000Y-86375000D03*
%TO.P,U4,13,NC*%
%TO.N,unconnected-(U4-Pad13)*%
X172705000Y-83835000D03*
%TO.P,U4,14,6A*%
%TO.N,/f_out_g2*%
X172705000Y-81295000D03*
%TO.P,U4,15,6Y*%
%TO.N,Net-(R18-Pad1)*%
X172705000Y-78755000D03*
%TO.P,U4,16,NC*%
%TO.N,unconnected-(U4-Pad16)*%
X172705000Y-76215000D03*
%TD*%
D15*
%TO.P,U3,1,VDD*%
%TO.N,+5V*%
X121905000Y-106695000D03*
D16*
%TO.P,U3,2,1Y*%
%TO.N,/f_in_07*%
X121905000Y-109235000D03*
%TO.P,U3,3,1A*%
%TO.N,Net-(R7-Pad2)*%
X121905000Y-111775000D03*
%TO.P,U3,4,2Y*%
%TO.N,/f_in_08*%
X121905000Y-114315000D03*
%TO.P,U3,5,2A*%
%TO.N,Net-(R8-Pad2)*%
X121905000Y-116855000D03*
%TO.P,U3,6,3Y*%
%TO.N,/f_in_09*%
X121905000Y-119395000D03*
%TO.P,U3,7,3A*%
%TO.N,Net-(R9-Pad2)*%
X121905000Y-121935000D03*
%TO.P,U3,8,VSS*%
%TO.N,GND*%
X121905000Y-124475000D03*
%TO.P,U3,9,4A*%
%TO.N,Net-(R10-Pad2)*%
X129525000Y-124475000D03*
%TO.P,U3,10,4Y*%
%TO.N,/f_in_10*%
X129525000Y-121935000D03*
%TO.P,U3,11,5A*%
%TO.N,Net-(R11-Pad2)*%
X129525000Y-119395000D03*
%TO.P,U3,12,5Y*%
%TO.N,/f_in_11*%
X129525000Y-116855000D03*
%TO.P,U3,13,NC*%
%TO.N,unconnected-(U3-Pad13)*%
X129525000Y-114315000D03*
%TO.P,U3,14,6A*%
%TO.N,Net-(R12-Pad2)*%
X129525000Y-111775000D03*
%TO.P,U3,15,6Y*%
%TO.N,/f_in_12*%
X129525000Y-109235000D03*
%TO.P,U3,16,NC*%
%TO.N,unconnected-(U3-Pad16)*%
X129525000Y-106695000D03*
%TD*%
D15*
%TO.P,U2,1,VDD*%
%TO.N,+5V*%
X121920000Y-76200000D03*
D16*
%TO.P,U2,2,1Y*%
%TO.N,/f_in_01*%
X121920000Y-78740000D03*
%TO.P,U2,3,1A*%
%TO.N,Net-(R1-Pad2)*%
X121920000Y-81280000D03*
%TO.P,U2,4,2Y*%
%TO.N,/f_in_02*%
X121920000Y-83820000D03*
%TO.P,U2,5,2A*%
%TO.N,Net-(R2-Pad2)*%
X121920000Y-86360000D03*
%TO.P,U2,6,3Y*%
%TO.N,/f_in_03*%
X121920000Y-88900000D03*
%TO.P,U2,7,3A*%
%TO.N,Net-(R3-Pad2)*%
X121920000Y-91440000D03*
%TO.P,U2,8,VSS*%
%TO.N,GND*%
X121920000Y-93980000D03*
%TO.P,U2,9,4A*%
%TO.N,Net-(R4-Pad2)*%
X129540000Y-93980000D03*
%TO.P,U2,10,4Y*%
%TO.N,/f_in_04*%
X129540000Y-91440000D03*
%TO.P,U2,11,5A*%
%TO.N,Net-(R5-Pad2)*%
X129540000Y-88900000D03*
%TO.P,U2,12,5Y*%
%TO.N,/f_in_05*%
X129540000Y-86360000D03*
%TO.P,U2,13,NC*%
%TO.N,unconnected-(U2-Pad13)*%
X129540000Y-83820000D03*
%TO.P,U2,14,6A*%
%TO.N,Net-(R6-Pad2)*%
X129540000Y-81280000D03*
%TO.P,U2,15,6Y*%
%TO.N,/f_in_06*%
X129540000Y-78740000D03*
%TO.P,U2,16,NC*%
%TO.N,unconnected-(U2-Pad16)*%
X129540000Y-76200000D03*
%TD*%
D17*
%TO.P,J3,1,Pin_1*%
%TO.N,/in_01*%
X112500000Y-69850000D03*
D18*
%TO.P,J3,2,Pin_2*%
%TO.N,GND*%
X112500000Y-72390000D03*
%TO.P,J3,3,Pin_3*%
%TO.N,/in_03*%
X112500000Y-74930000D03*
%TO.P,J3,4,Pin_4*%
%TO.N,GND*%
X112500000Y-77470000D03*
%TO.P,J3,5,Pin_5*%
%TO.N,/in_05*%
X112500000Y-80010000D03*
%TO.P,J3,6,Pin_6*%
%TO.N,GND*%
X112500000Y-82550000D03*
%TO.P,J3,7,Pin_7*%
%TO.N,/in_07*%
X112500000Y-85090000D03*
%TO.P,J3,8,Pin_8*%
%TO.N,GND*%
X112500000Y-87630000D03*
%TO.P,J3,9,Pin_9*%
%TO.N,/in_09*%
X112500000Y-90170000D03*
%TO.P,J3,10,Pin_10*%
%TO.N,GND*%
X112500000Y-92710000D03*
%TO.P,J3,11,Pin_11*%
%TO.N,/in_11*%
X112500000Y-95250000D03*
%TO.P,J3,12,Pin_12*%
%TO.N,GND*%
X112500000Y-97790000D03*
%TO.P,J3,13,Pin_13*%
%TO.N,/in_13*%
X112500000Y-100330000D03*
%TO.P,J3,14,Pin_14*%
%TO.N,/in_14*%
X112500000Y-102870000D03*
%TO.P,J3,15,Pin_15*%
%TO.N,/in_15*%
X112500000Y-105410000D03*
%TO.P,J3,16,Pin_16*%
%TO.N,+5V*%
X112500000Y-107950000D03*
%TO.P,J3,17,Pin_17*%
X112500000Y-110490000D03*
%TO.P,J3,18,Pin_18*%
%TO.N,GND*%
X112500000Y-113030000D03*
%TO.P,J3,19,Pin_19*%
%TO.N,/in_19*%
X112500000Y-115570000D03*
%TO.P,J3,20,Pin_20*%
%TO.N,GND*%
X112500000Y-118110000D03*
%TO.P,J3,21,Pin_21*%
%TO.N,/in_21*%
X112500000Y-120650000D03*
%TO.P,J3,22,Pin_22*%
%TO.N,GND*%
X112500000Y-123190000D03*
%TO.P,J3,23,Pin_23*%
%TO.N,/in_23*%
X112500000Y-125730000D03*
%TO.P,J3,24,Pin_24*%
%TO.N,GND*%
X112500000Y-128270000D03*
%TO.P,J3,25,Pin_25*%
%TO.N,/in_25*%
X112500000Y-130810000D03*
%TD*%
D19*
%TO.P,J2,1,Pin_1*%
%TO.N,+5V*%
X102895000Y-113680000D03*
D20*
%TO.P,J2,2,Pin_2*%
X102895000Y-114950000D03*
%TO.P,J2,3,Pin_3*%
%TO.N,GND*%
X102895000Y-116220000D03*
%TO.P,J2,4,Pin_4*%
%TO.N,/in_19*%
X102895000Y-117490000D03*
%TO.P,J2,5,Pin_5*%
%TO.N,GND*%
X102895000Y-118760000D03*
%TO.P,J2,6,Pin_6*%
%TO.N,/in_21*%
X102895000Y-120030000D03*
%TO.P,J2,7,Pin_7*%
%TO.N,GND*%
X102895000Y-121300000D03*
%TO.P,J2,8,Pin_8*%
%TO.N,/in_23*%
X102895000Y-122570000D03*
%TO.P,J2,9,Pin_9*%
%TO.N,GND*%
X102895000Y-123840000D03*
%TO.P,J2,10,Pin_10*%
%TO.N,/in_25*%
X102895000Y-125110000D03*
%TD*%
D21*
%TO.P,H3,1*%
%TO.N,N/C*%
X187500000Y-137500000D03*
%TD*%
%TO.P,H2,1*%
%TO.N,N/C*%
X187500000Y-62500000D03*
%TD*%
D19*
%TO.P,J1,1,Pin_1*%
%TO.N,/in_01*%
X102895000Y-78755000D03*
D20*
%TO.P,J1,2,Pin_2*%
%TO.N,GND*%
X102895000Y-80025000D03*
%TO.P,J1,3,Pin_3*%
%TO.N,/in_03*%
X102895000Y-81295000D03*
%TO.P,J1,4,Pin_4*%
%TO.N,GND*%
X102895000Y-82565000D03*
%TO.P,J1,5,Pin_5*%
%TO.N,/in_05*%
X102895000Y-83835000D03*
%TO.P,J1,6,Pin_6*%
%TO.N,GND*%
X102895000Y-85105000D03*
%TO.P,J1,7,Pin_7*%
%TO.N,/in_07*%
X102895000Y-86375000D03*
%TO.P,J1,8,Pin_8*%
%TO.N,GND*%
X102895000Y-87645000D03*
%TO.P,J1,9,Pin_9*%
%TO.N,/in_09*%
X102895000Y-88915000D03*
%TO.P,J1,10,Pin_10*%
%TO.N,GND*%
X102895000Y-90185000D03*
%TO.P,J1,11,Pin_11*%
%TO.N,/in_11*%
X102895000Y-91455000D03*
%TO.P,J1,12,Pin_12*%
%TO.N,GND*%
X102895000Y-92725000D03*
%TO.P,J1,13,Pin_13*%
%TO.N,/in_13*%
X102895000Y-93995000D03*
%TO.P,J1,14,Pin_14*%
%TO.N,/in_14*%
X102895000Y-95265000D03*
%TO.P,J1,15,Pin_15*%
%TO.N,/in_15*%
X102895000Y-96535000D03*
%TD*%
D15*
%TO.P,U1,1,GND*%
%TO.N,GND*%
X157480000Y-129540000D03*
D16*
%TO.P,U1,2,VIO*%
%TO.N,unconnected-(U1-Pad2)*%
X157480000Y-127000000D03*
%TO.P,U1,3,RST*%
%TO.N,unconnected-(U1-Pad3)*%
X157480000Y-124460000D03*
%TO.P,U1,4,DONE*%
%TO.N,unconnected-(U1-Pad4)*%
X157480000Y-121920000D03*
%TO.P,U1,5,R*%
%TO.N,unconnected-(U1-Pad5)*%
X157480000Y-119380000D03*
%TO.P,U1,6,G*%
%TO.N,unconnected-(U1-Pad6)*%
X157480000Y-116840000D03*
%TO.P,U1,7,B*%
%TO.N,unconnected-(U1-Pad7)*%
X157480000Y-114300000D03*
%TO.P,U1,8,5V*%
%TO.N,+5V*%
X157480000Y-111760000D03*
%TO.P,U1,9,3V3*%
%TO.N,unconnected-(U1-Pad9)*%
X157480000Y-109220000D03*
%TO.P,U1,10,GND*%
%TO.N,GND*%
X157480000Y-106680000D03*
%TO.P,U1,11,23*%
%TO.N,unconnected-(U1-Pad11)*%
X157480000Y-104140000D03*
%TO.P,U1,12,25*%
%TO.N,unconnected-(U1-Pad12)*%
X157480000Y-101600000D03*
%TO.P,U1,13,26*%
%TO.N,unconnected-(U1-Pad13)*%
X157480000Y-99060000D03*
%TO.P,U1,14,27*%
%TO.N,/f_out_vsync*%
X157480000Y-96520000D03*
%TO.P,U1,15,32*%
%TO.N,/f_out_hsync*%
X157480000Y-93980000D03*
%TO.P,U1,16,35*%
%TO.N,/f_out_b2*%
X157480000Y-91440000D03*
%TO.P,U1,17,31*%
%TO.N,/f_out_b1*%
X157480000Y-88900000D03*
%TO.P,U1,18,37*%
%TO.N,/f_out_b0*%
X157480000Y-86360000D03*
%TO.P,U1,19,34*%
%TO.N,/f_out_g2*%
X157480000Y-83820000D03*
%TO.P,U1,20,43*%
%TO.N,/f_out_g1*%
X157480000Y-81280000D03*
%TO.P,U1,21,36*%
%TO.N,/f_out_g0*%
X157480000Y-78740000D03*
%TO.P,U1,22,42*%
%TO.N,/f_out_r2*%
X157480000Y-76200000D03*
%TO.P,U1,23,38*%
%TO.N,/f_out_r1*%
X157480000Y-73660000D03*
%TO.P,U1,24,28*%
%TO.N,/f_out_r0*%
X157480000Y-71120000D03*
%TO.P,U1,25,2*%
%TO.N,/f_in_01*%
X142240000Y-71120000D03*
%TO.P,U1,26,46*%
%TO.N,/f_in_02*%
X142240000Y-73660000D03*
%TO.P,U1,27,47*%
%TO.N,/f_in_03*%
X142240000Y-76200000D03*
%TO.P,U1,28,45*%
%TO.N,/f_in_04*%
X142240000Y-78740000D03*
%TO.P,U1,29,48*%
%TO.N,/f_in_05*%
X142240000Y-81280000D03*
%TO.P,U1,30,3*%
%TO.N,/f_in_06*%
X142240000Y-83820000D03*
%TO.P,U1,31,4*%
%TO.N,/f_in_07*%
X142240000Y-86360000D03*
%TO.P,U1,32,44*%
%TO.N,/f_in_08*%
X142240000Y-88900000D03*
%TO.P,U1,33,6*%
%TO.N,/f_in_09*%
X142240000Y-91440000D03*
%TO.P,U1,34,9*%
%TO.N,/f_in_10*%
X142240000Y-93980000D03*
%TO.P,U1,35,11*%
%TO.N,/f_in_11*%
X142240000Y-96520000D03*
%TO.P,U1,36,18*%
%TO.N,/f_in_12*%
X142240000Y-99060000D03*
%TO.P,U1,37,19*%
%TO.N,unconnected-(U1-Pad37)*%
X142240000Y-101600000D03*
%TO.P,U1,38,13*%
%TO.N,unconnected-(U1-Pad38)*%
X142240000Y-104140000D03*
%TO.P,U1,39,21*%
%TO.N,unconnected-(U1-Pad39)*%
X142240000Y-106680000D03*
%TO.P,U1,40*%
%TO.N,unconnected-(U1-Pad40)*%
X142240000Y-109220000D03*
%TO.P,U1,41*%
%TO.N,unconnected-(U1-Pad41)*%
X142240000Y-111760000D03*
%TO.P,U1,42,12M*%
%TO.N,unconnected-(U1-Pad42)*%
X142240000Y-114300000D03*
%TO.P,U1,43,10*%
%TO.N,unconnected-(U1-Pad43)*%
X142240000Y-116840000D03*
%TO.P,U1,44,20*%
%TO.N,unconnected-(U1-Pad44)*%
X142240000Y-119380000D03*
%TO.P,U1,45,SO*%
%TO.N,unconnected-(U1-Pad45)*%
X142240000Y-121920000D03*
%TO.P,U1,46,SI*%
%TO.N,unconnected-(U1-Pad46)*%
X142240000Y-124460000D03*
%TO.P,U1,47,SCK*%
%TO.N,unconnected-(U1-Pad47)*%
X142240000Y-127000000D03*
%TO.P,U1,48,SS*%
%TO.N,unconnected-(U1-Pad48)*%
X142240000Y-129540000D03*
%TD*%
D21*
%TO.P,H1,1*%
%TO.N,N/C*%
X112500000Y-62500000D03*
%TD*%
%TO.P,H4,1*%
%TO.N,N/C*%
X112500000Y-137500000D03*
%TD*%
D22*
%TO.N,/vga_blue_2*%
X178500000Y-127300000D03*
%TO.N,/in_13*%
X135890000Y-81280000D03*
%TO.N,GND*%
X186690000Y-102870000D03*
X167640000Y-102870000D03*
X186690000Y-72390000D03*
X167640000Y-72390000D03*
X124460000Y-102870000D03*
X124460000Y-72390000D03*
%TD*%
D23*
%TO.N,/vga_vsync_1*%
X177442500Y-116840000D02*
X177442500Y-119942500D01*
X177442500Y-119942500D02*
X178500000Y-121000000D01*
X174550000Y-143000000D02*
X166000000Y-143000000D01*
X166000000Y-143000000D02*
X164860166Y-141860166D01*
X178500000Y-121000000D02*
X178500000Y-124950000D01*
X176450000Y-141100000D02*
X174550000Y-143000000D01*
X178500000Y-124950000D02*
X176450000Y-127000000D01*
X176450000Y-127000000D02*
X176450000Y-141100000D01*
X164860166Y-141860166D02*
X164860166Y-139990000D01*
%TO.N,/vga_green_1*%
X161900000Y-138700000D02*
X173250000Y-138700000D01*
X161000000Y-139600000D02*
X161900000Y-138700000D01*
X182450000Y-138800000D02*
X177250000Y-144000000D01*
X177250000Y-144000000D02*
X162300000Y-144000000D01*
X182450000Y-130550000D02*
X182450000Y-138800000D01*
X161000000Y-142700000D02*
X161000000Y-139600000D01*
X186700000Y-90250000D02*
X188050000Y-91600000D01*
X188050000Y-124950000D02*
X182450000Y-130550000D01*
X188050000Y-91600000D02*
X188050000Y-124950000D01*
X169451500Y-133798500D02*
X169451500Y-134895337D01*
X182550000Y-90250000D02*
X186700000Y-90250000D01*
X181360000Y-91440000D02*
X182550000Y-90250000D01*
X162300000Y-144000000D02*
X161000000Y-142700000D01*
X174150000Y-134250000D02*
X173150000Y-133250000D01*
X177442500Y-91440000D02*
X181360000Y-91440000D01*
X173250000Y-138700000D02*
X174150000Y-137800000D01*
X174150000Y-137800000D02*
X174150000Y-134250000D01*
X173150000Y-133250000D02*
X170000000Y-133250000D01*
X170000000Y-133250000D02*
X169451500Y-133798500D01*
%TO.N,/vga_red_1*%
X171741500Y-134895337D02*
X170436837Y-136200000D01*
X160377500Y-76127500D02*
X160377500Y-78740000D01*
X170436837Y-136200000D02*
X159800000Y-136200000D01*
X159800000Y-136200000D02*
X154000000Y-130400000D01*
X154000000Y-130400000D02*
X154000000Y-76950000D01*
X154000000Y-76950000D02*
X156050000Y-74900000D01*
X156050000Y-74900000D02*
X159150000Y-74900000D01*
X159150000Y-74900000D02*
X160377500Y-76127500D01*
%TO.N,/f_in_11*%
X129525000Y-116855000D02*
X130975000Y-116855000D01*
X130975000Y-116855000D02*
X139700000Y-108130000D01*
X139700000Y-108130000D02*
X139700000Y-104140000D01*
X139700000Y-104140000D02*
X140970000Y-102870000D01*
X140970000Y-102870000D02*
X143130000Y-102870000D01*
X144000000Y-102000000D02*
X144000000Y-98280000D01*
X143130000Y-102870000D02*
X144000000Y-102000000D01*
X144000000Y-98280000D02*
X142240000Y-96520000D01*
%TO.N,/in_25*%
X112500000Y-130810000D02*
X133350000Y-130810000D01*
X127750000Y-113625000D02*
X128345000Y-113030000D01*
X128345000Y-113030000D02*
X132992500Y-113030000D01*
X132992500Y-113030000D02*
X134262500Y-111760000D01*
X133350000Y-130810000D02*
X136750000Y-127410000D01*
X136750000Y-127410000D02*
X136750000Y-120240000D01*
X136750000Y-120240000D02*
X134620000Y-118110000D01*
X134620000Y-118110000D02*
X128252253Y-118110000D01*
X128252253Y-118110000D02*
X127750000Y-117607747D01*
X127750000Y-117607747D02*
X127750000Y-113625000D01*
%TO.N,/vga_blue_1*%
X162000000Y-128500000D02*
X166000000Y-128500000D01*
X160377500Y-119380000D02*
X160377500Y-126877500D01*
X160377500Y-126877500D02*
X162000000Y-128500000D01*
X166000000Y-128500000D02*
X167161500Y-129661500D01*
X167161500Y-129661500D02*
X167161500Y-134910000D01*
%TO.N,/f_in_09*%
X121905000Y-119395000D02*
X124460000Y-116840000D01*
X124460000Y-116840000D02*
X124460000Y-109769010D01*
X124460000Y-109769010D02*
X140715000Y-93514010D01*
X140715000Y-93514010D02*
X140715000Y-92965000D01*
X140715000Y-92965000D02*
X142240000Y-91440000D01*
%TO.N,/f_in_08*%
X121905000Y-114315000D02*
X123430000Y-112790000D01*
X123430000Y-112790000D02*
X123430000Y-109025000D01*
X123430000Y-109025000D02*
X139700000Y-92755000D01*
X139700000Y-91440000D02*
X142240000Y-88900000D01*
X139700000Y-92755000D02*
X139700000Y-91440000D01*
%TO.N,/f_in_07*%
X121905000Y-109235000D02*
X121905000Y-108595000D01*
X121905000Y-108595000D02*
X122680000Y-107820000D01*
X138430000Y-87630000D02*
X139700000Y-86360000D01*
X122680000Y-107820000D02*
X123430000Y-107820000D01*
X123430000Y-107070000D02*
X138430000Y-92070000D01*
X123430000Y-107820000D02*
X123430000Y-107070000D01*
X138430000Y-92070000D02*
X138430000Y-87630000D01*
X139700000Y-86360000D02*
X142240000Y-86360000D01*
%TO.N,/f_in_10*%
X142240000Y-93980000D02*
X132080000Y-104140000D01*
X128270000Y-107950000D02*
X125730000Y-110490000D01*
X132080000Y-104140000D02*
X132080000Y-106680000D01*
X132080000Y-106680000D02*
X130810000Y-107950000D01*
X125730000Y-119380000D02*
X128285000Y-121935000D01*
X130810000Y-107950000D02*
X128270000Y-107950000D01*
X128285000Y-121935000D02*
X129525000Y-121935000D01*
X125730000Y-110490000D02*
X125730000Y-119380000D01*
%TO.N,/vga_hsync_2*%
X196492500Y-121920000D02*
X196492500Y-138157500D01*
X196492500Y-138157500D02*
X189650000Y-145000000D01*
X189650000Y-145000000D02*
X135700000Y-145000000D01*
X135700000Y-145000000D02*
X133450166Y-142750166D01*
X133450166Y-142750166D02*
X133450166Y-140040000D01*
%TO.N,/vga_hsync_1*%
X177442500Y-121920000D02*
X177442500Y-123007500D01*
X175500000Y-140525000D02*
X174025000Y-142000000D01*
X177442500Y-123007500D02*
X175500000Y-124950000D01*
X175500000Y-124950000D02*
X175500000Y-140525000D01*
X174025000Y-142000000D02*
X167900000Y-142000000D01*
X167900000Y-142000000D02*
X167150166Y-141250166D01*
X167150166Y-141250166D02*
X167150166Y-139990000D01*
%TO.N,/vga_green_2*%
X196492500Y-91440000D02*
X196492500Y-105592500D01*
X196492500Y-105592500D02*
X198500000Y-107600000D01*
X134306163Y-133500000D02*
X135751500Y-134945337D01*
X198500000Y-107600000D02*
X198500000Y-139500000D01*
X127500000Y-144100000D02*
X127500000Y-134500000D01*
X198500000Y-139500000D02*
X191000000Y-147000000D01*
X191000000Y-147000000D02*
X130400000Y-147000000D01*
X127500000Y-134500000D02*
X128500000Y-133500000D01*
X130400000Y-147000000D02*
X127500000Y-144100000D01*
X128500000Y-133500000D02*
X134306163Y-133500000D01*
%TO.N,/vga_vsync_2*%
X196492500Y-116840000D02*
X196492500Y-116842500D01*
X196492500Y-116842500D02*
X197500000Y-117850000D01*
X197500000Y-117850000D02*
X197500000Y-139000000D01*
X197500000Y-139000000D02*
X190500000Y-146000000D01*
X190500000Y-146000000D02*
X133600000Y-146000000D01*
X133600000Y-146000000D02*
X131160166Y-143560166D01*
X131160166Y-143560166D02*
X131160166Y-140040000D01*
%TO.N,/vga_blue_2*%
X179427500Y-119380000D02*
X179427500Y-126372500D01*
X179427500Y-126372500D02*
X178500000Y-127300000D01*
%TO.N,/vga_red_2*%
X179427500Y-83820000D02*
X180547500Y-82700000D01*
X188100000Y-80650000D02*
X188100000Y-72000000D01*
X180547500Y-82700000D02*
X186050000Y-82700000D01*
X186050000Y-82700000D02*
X188100000Y-80650000D01*
X147400000Y-76050000D02*
X147400000Y-128950000D01*
X147400000Y-128950000D02*
X141404663Y-134945337D01*
X141404663Y-134945337D02*
X138041500Y-134945337D01*
X188100000Y-72000000D02*
X185400000Y-69300000D01*
X185400000Y-69300000D02*
X154150000Y-69300000D01*
X154150000Y-69300000D02*
X147400000Y-76050000D01*
%TO.N,/f_out_b0*%
X167640000Y-107950000D02*
X167640000Y-110490000D01*
X167640000Y-110490000D02*
X166370000Y-111760000D01*
X166370000Y-111760000D02*
X165085000Y-111760000D01*
%TO.N,/f_out_r0*%
X167640000Y-77470000D02*
X167640000Y-80010000D01*
X167640000Y-80010000D02*
X166355000Y-81295000D01*
X166355000Y-81295000D02*
X165085000Y-81295000D01*
%TO.N,/in_13*%
X135890000Y-81280000D02*
X134262500Y-81280000D01*
%TO.N,/f_out_b0*%
X186690000Y-109220000D02*
X186690000Y-110490000D01*
X166370000Y-107950000D02*
X185420000Y-107950000D01*
X185420000Y-107950000D02*
X186690000Y-109220000D01*
X186690000Y-110490000D02*
X185420000Y-111760000D01*
X185420000Y-111760000D02*
X184135000Y-111760000D01*
X157480000Y-86360000D02*
X154940000Y-88900000D01*
X156210000Y-107950000D02*
X166370000Y-107950000D01*
X154940000Y-88900000D02*
X154940000Y-106680000D01*
X154940000Y-106680000D02*
X156210000Y-107950000D01*
%TO.N,/f_out_r2*%
X168925000Y-91455000D02*
X170180000Y-92710000D01*
X165085000Y-91455000D02*
X168925000Y-91455000D01*
X182865000Y-92710000D02*
X184120000Y-91455000D01*
X170180000Y-92710000D02*
X182865000Y-92710000D01*
X165085000Y-91455000D02*
X161560000Y-91455000D01*
X161560000Y-91455000D02*
X159005000Y-88900000D01*
X159005000Y-88900000D02*
X159005000Y-77725000D01*
X159005000Y-77725000D02*
X157480000Y-76200000D01*
%TO.N,/f_out_r0*%
X186690000Y-78740000D02*
X186690000Y-80010000D01*
X166370000Y-77470000D02*
X185420000Y-77470000D01*
X185420000Y-77470000D02*
X186690000Y-78740000D01*
X186690000Y-80010000D02*
X185405000Y-81295000D01*
X185405000Y-81295000D02*
X184120000Y-81295000D01*
X157480000Y-71120000D02*
X163830000Y-77470000D01*
X163830000Y-77470000D02*
X166370000Y-77470000D01*
%TO.N,/vga_blue_2*%
X179427500Y-114300000D02*
X179427500Y-119380000D01*
X179427500Y-109220000D02*
X179427500Y-114300000D01*
%TO.N,Net-(R34-Pad1)*%
X194667500Y-121920000D02*
X191755000Y-121920000D01*
%TO.N,Net-(R35-Pad1)*%
X194667500Y-116840000D02*
X191755000Y-116840000D01*
%TO.N,Net-(R36-Pad1)*%
X194667500Y-109220000D02*
X191755000Y-109220000D01*
%TO.N,Net-(R33-Pad1)*%
X181252500Y-119380000D02*
X184135000Y-119380000D01*
%TO.N,Net-(R32-Pad1)*%
X181252500Y-114300000D02*
X184135000Y-114300000D01*
%TO.N,Net-(R31-Pad1)*%
X181252500Y-109220000D02*
X184135000Y-109220000D01*
%TO.N,Net-(R28-Pad1)*%
X175617500Y-121920000D02*
X172705000Y-121920000D01*
%TO.N,Net-(R29-Pad1)*%
X175617500Y-116840000D02*
X172705000Y-116840000D01*
%TO.N,Net-(R30-Pad1)*%
X175617500Y-109220000D02*
X172705000Y-109220000D01*
%TO.N,/vga_blue_1*%
X160377500Y-114300000D02*
X160377500Y-119380000D01*
X160377500Y-109220000D02*
X160377500Y-114300000D01*
%TO.N,Net-(R27-Pad1)*%
X162202500Y-119380000D02*
X165085000Y-119380000D01*
%TO.N,Net-(R26-Pad1)*%
X165085000Y-114300000D02*
X162202500Y-114300000D01*
%TO.N,Net-(R25-Pad1)*%
X165085000Y-109220000D02*
X162202500Y-109220000D01*
%TO.N,GND*%
X185875000Y-103685000D02*
X186690000Y-102870000D01*
X185875000Y-104140000D02*
X185875000Y-103685000D01*
X166825000Y-103685000D02*
X167640000Y-102870000D01*
X166825000Y-104140000D02*
X166825000Y-103685000D01*
%TO.N,+5V*%
X184135000Y-106680000D02*
X184135000Y-104155000D01*
X184135000Y-104155000D02*
X184150000Y-104140000D01*
X165085000Y-106680000D02*
X165085000Y-104155000D01*
X165085000Y-104155000D02*
X165100000Y-104140000D01*
%TO.N,/vga_green_2*%
X196492500Y-86360000D02*
X196492500Y-78740000D01*
X196492500Y-91440000D02*
X196492500Y-86360000D01*
%TO.N,Net-(R22-Pad1)*%
X191740000Y-91455000D02*
X194652500Y-91455000D01*
X194652500Y-91455000D02*
X194667500Y-91440000D01*
%TO.N,Net-(R23-Pad1)*%
X194295000Y-86375000D02*
X194310000Y-86360000D01*
X191740000Y-86375000D02*
X194295000Y-86375000D01*
X194310000Y-86360000D02*
X194667500Y-86360000D01*
%TO.N,Net-(R24-Pad1)*%
X191740000Y-78755000D02*
X194652500Y-78755000D01*
X194652500Y-78755000D02*
X194667500Y-78740000D01*
%TO.N,Net-(R19-Pad1)*%
X181252500Y-78740000D02*
X181267500Y-78755000D01*
X181267500Y-78755000D02*
X184120000Y-78755000D01*
%TO.N,Net-(R20-Pad1)*%
X181252500Y-83820000D02*
X181267500Y-83835000D01*
X181267500Y-83835000D02*
X184120000Y-83835000D01*
%TO.N,Net-(R21-Pad1)*%
X181252500Y-88900000D02*
X181267500Y-88915000D01*
X181267500Y-88915000D02*
X184120000Y-88915000D01*
%TO.N,/vga_red_2*%
X179427500Y-83820000D02*
X179427500Y-88900000D01*
X179427500Y-78740000D02*
X179427500Y-83820000D01*
%TO.N,/vga_green_1*%
X177442500Y-86360000D02*
X177442500Y-78740000D01*
X177442500Y-91440000D02*
X177442500Y-86360000D01*
%TO.N,Net-(R16-Pad1)*%
X172705000Y-91455000D02*
X175602500Y-91455000D01*
X175602500Y-91455000D02*
X175617500Y-91440000D01*
%TO.N,Net-(R17-Pad1)*%
X172705000Y-86375000D02*
X175602500Y-86375000D01*
X175602500Y-86375000D02*
X175617500Y-86360000D01*
%TO.N,Net-(R18-Pad1)*%
X172705000Y-78755000D02*
X175602500Y-78755000D01*
X175602500Y-78755000D02*
X175617500Y-78740000D01*
%TO.N,/vga_red_1*%
X160377500Y-83820000D02*
X160377500Y-88900000D01*
X160377500Y-78740000D02*
X160377500Y-83820000D01*
%TO.N,Net-(R15-Pad1)*%
X162202500Y-88900000D02*
X162217500Y-88915000D01*
X162217500Y-88915000D02*
X165085000Y-88915000D01*
%TO.N,Net-(R14-Pad1)*%
X162202500Y-83820000D02*
X162217500Y-83835000D01*
X162217500Y-83835000D02*
X165085000Y-83835000D01*
%TO.N,Net-(R13-Pad1)*%
X162202500Y-78740000D02*
X162217500Y-78755000D01*
X162217500Y-78755000D02*
X165085000Y-78755000D01*
%TO.N,+5V*%
X184120000Y-76215000D02*
X184120000Y-73690000D01*
X184120000Y-73690000D02*
X184150000Y-73660000D01*
X165085000Y-76215000D02*
X165085000Y-73675000D01*
X165085000Y-73675000D02*
X165100000Y-73660000D01*
%TO.N,GND*%
X124460000Y-102870000D02*
X123645000Y-103685000D01*
X123645000Y-103685000D02*
X123645000Y-104140000D01*
X124460000Y-72390000D02*
X123645000Y-73205000D01*
X123645000Y-73205000D02*
X123645000Y-73660000D01*
X186690000Y-72390000D02*
X185875000Y-73205000D01*
X185875000Y-73205000D02*
X185875000Y-73660000D01*
X167640000Y-72390000D02*
X166825000Y-73205000D01*
X166825000Y-73205000D02*
X166825000Y-73660000D01*
%TO.N,/in_21*%
X134262500Y-124460000D02*
X132992500Y-123190000D01*
X132992500Y-123190000D02*
X115040000Y-123190000D01*
X115040000Y-123190000D02*
X112500000Y-120650000D01*
%TO.N,/in_23*%
X112500000Y-125730000D02*
X134620000Y-125730000D01*
X134620000Y-125730000D02*
X135890000Y-124460000D01*
X135890000Y-124460000D02*
X135890000Y-120650000D01*
X135890000Y-120650000D02*
X134620000Y-119380000D01*
X134620000Y-119380000D02*
X134262500Y-119380000D01*
%TO.N,Net-(R10-Pad2)*%
X129525000Y-124475000D02*
X132422500Y-124475000D01*
X132422500Y-124475000D02*
X132437500Y-124460000D01*
%TO.N,/f_in_06*%
X129540000Y-78740000D02*
X134620000Y-78740000D01*
X134620000Y-78740000D02*
X138430000Y-74930000D01*
X138430000Y-74930000D02*
X143510000Y-74930000D01*
X143510000Y-74930000D02*
X144780000Y-76200000D01*
X144780000Y-76200000D02*
X144780000Y-81280000D01*
X144780000Y-81280000D02*
X142240000Y-83820000D01*
%TO.N,/f_in_02*%
X121920000Y-83820000D02*
X128270000Y-77470000D01*
X128270000Y-77470000D02*
X132080000Y-77470000D01*
X132080000Y-77470000D02*
X135890000Y-73660000D01*
X135890000Y-73660000D02*
X142240000Y-73660000D01*
%TO.N,/in_09*%
X134262500Y-93980000D02*
X135890000Y-92352500D01*
X135890000Y-92352500D02*
X135890000Y-88900000D01*
X135890000Y-88900000D02*
X134620000Y-87630000D01*
X123190000Y-92710000D02*
X115040000Y-92710000D01*
X134620000Y-87630000D02*
X128270000Y-87630000D01*
X128270000Y-87630000D02*
X123190000Y-92710000D01*
X115040000Y-92710000D02*
X112500000Y-90170000D01*
%TO.N,/in_11*%
X112500000Y-95250000D02*
X122640990Y-95250000D01*
X122640990Y-95250000D02*
X127720990Y-90170000D01*
X127720990Y-90170000D02*
X132992500Y-90170000D01*
X132992500Y-90170000D02*
X134262500Y-88900000D01*
%TO.N,/f_in_12*%
X129525000Y-109235000D02*
X132065000Y-109235000D01*
X132065000Y-109235000D02*
X142240000Y-99060000D01*
%TO.N,Net-(R11-Pad2)*%
X129525000Y-119395000D02*
X132422500Y-119395000D01*
X132422500Y-119395000D02*
X132437500Y-119380000D01*
%TO.N,Net-(R12-Pad2)*%
X129525000Y-111775000D02*
X132422500Y-111775000D01*
X132422500Y-111775000D02*
X132437500Y-111760000D01*
%TO.N,+5V*%
X121905000Y-106695000D02*
X121905000Y-104155000D01*
X121905000Y-104155000D02*
X121920000Y-104140000D01*
%TO.N,Net-(R9-Pad2)*%
X119022500Y-121920000D02*
X119037500Y-121935000D01*
X119037500Y-121935000D02*
X121905000Y-121935000D01*
%TO.N,Net-(R8-Pad2)*%
X119022500Y-116840000D02*
X119037500Y-116855000D01*
X119037500Y-116855000D02*
X121905000Y-116855000D01*
%TO.N,Net-(R7-Pad2)*%
X119022500Y-111760000D02*
X119037500Y-111775000D01*
X119037500Y-111775000D02*
X121905000Y-111775000D01*
%TO.N,/f_in_05*%
X129540000Y-86360000D02*
X137160000Y-86360000D01*
X137160000Y-86360000D02*
X142240000Y-81280000D01*
%TO.N,/f_in_01*%
X121920000Y-78740000D02*
X124460000Y-78740000D01*
X124460000Y-78740000D02*
X132080000Y-71120000D01*
X132080000Y-71120000D02*
X142240000Y-71120000D01*
%TO.N,+5V*%
X121920000Y-76200000D02*
X121920000Y-73660000D01*
%TO.N,/f_in_03*%
X128270000Y-80010000D02*
X137160000Y-80010000D01*
X124460000Y-86360000D02*
X124460000Y-83820000D01*
X121920000Y-88900000D02*
X124460000Y-86360000D01*
X124460000Y-83820000D02*
X128270000Y-80010000D01*
X137160000Y-80010000D02*
X140970000Y-76200000D01*
X140970000Y-76200000D02*
X142240000Y-76200000D01*
%TO.N,Net-(R6-Pad2)*%
X132437500Y-81280000D02*
X129540000Y-81280000D01*
%TO.N,Net-(R5-Pad2)*%
X132437500Y-88900000D02*
X129540000Y-88900000D01*
%TO.N,Net-(R4-Pad2)*%
X132437500Y-93980000D02*
X129540000Y-93980000D01*
%TO.N,Net-(R3-Pad2)*%
X119022500Y-91440000D02*
X121920000Y-91440000D01*
%TO.N,Net-(R2-Pad2)*%
X119022500Y-86360000D02*
X121920000Y-86360000D01*
%TO.N,Net-(R1-Pad2)*%
X119022500Y-81280000D02*
X121920000Y-81280000D01*
%TO.N,/in_19*%
X112500000Y-115570000D02*
X117197500Y-120267500D01*
X117197500Y-120267500D02*
X117197500Y-121920000D01*
%TO.N,/in_15*%
X117197500Y-116840000D02*
X115570000Y-115212500D01*
X115570000Y-115212500D02*
X115570000Y-108480000D01*
X112500000Y-105410000D02*
X115570000Y-108480000D01*
%TO.N,/in_14*%
X117197500Y-111760000D02*
X117197500Y-107567500D01*
X117197500Y-107567500D02*
X112500000Y-102870000D01*
%TO.N,/in_07*%
X112500000Y-85090000D02*
X117197500Y-89787500D01*
X117197500Y-89787500D02*
X117197500Y-91440000D01*
%TO.N,/in_05*%
X112500000Y-80010000D02*
X117197500Y-84707500D01*
X117197500Y-84707500D02*
X117197500Y-86360000D01*
%TO.N,/in_03*%
X112500000Y-74930000D02*
X117197500Y-79627500D01*
X117197500Y-79627500D02*
X117197500Y-81280000D01*
%TO.N,/in_25*%
X102895000Y-125110000D02*
X106800000Y-125110000D01*
X106800000Y-125110000D02*
X112500000Y-130810000D01*
%TO.N,/in_23*%
X102895000Y-122570000D02*
X109340000Y-122570000D01*
X109340000Y-122570000D02*
X112500000Y-125730000D01*
%TO.N,/in_21*%
X102895000Y-120030000D02*
X111880000Y-120030000D01*
X111880000Y-120030000D02*
X112500000Y-120650000D01*
%TO.N,/in_19*%
X102895000Y-117490000D02*
X110580000Y-117490000D01*
X110580000Y-117490000D02*
X112500000Y-115570000D01*
%TO.N,+5V*%
X102895000Y-113680000D02*
X106770000Y-113680000D01*
X106770000Y-113680000D02*
X112500000Y-107950000D01*
X102895000Y-114950000D02*
X108040000Y-114950000D01*
X108040000Y-114950000D02*
X112500000Y-110490000D01*
%TO.N,/in_15*%
X102895000Y-96535000D02*
X103625000Y-96535000D01*
X103625000Y-96535000D02*
X112500000Y-105410000D01*
%TO.N,/in_14*%
X102895000Y-95265000D02*
X104895000Y-95265000D01*
X104895000Y-95265000D02*
X112500000Y-102870000D01*
%TO.N,/in_13*%
X102895000Y-93995000D02*
X106165000Y-93995000D01*
X106165000Y-93995000D02*
X112500000Y-100330000D01*
%TO.N,/in_11*%
X102895000Y-91455000D02*
X108705000Y-91455000D01*
X108705000Y-91455000D02*
X112500000Y-95250000D01*
%TO.N,/in_09*%
X102895000Y-88915000D02*
X111245000Y-88915000D01*
X111245000Y-88915000D02*
X112500000Y-90170000D01*
%TO.N,/in_07*%
X102895000Y-86375000D02*
X111215000Y-86375000D01*
X111215000Y-86375000D02*
X112500000Y-85090000D01*
%TO.N,/in_05*%
X102895000Y-83835000D02*
X108675000Y-83835000D01*
X108675000Y-83835000D02*
X112500000Y-80010000D01*
%TO.N,/in_03*%
X102895000Y-81295000D02*
X106135000Y-81295000D01*
X106135000Y-81295000D02*
X112500000Y-74930000D01*
%TO.N,/in_01*%
X102895000Y-78755000D02*
X103595000Y-78755000D01*
X103595000Y-78755000D02*
X112500000Y-69850000D01*
%TD*%
M02*
