M48
; DRILL file {KiCad 6.0.9+dfsg-1} date Tue 20 Dec 2022 10:46:18 PM UTC
; FORMAT={-:-/ absolute / metric / decimal}
; #@! TF.CreationDate,2022-12-20T22:46:18+00:00
; #@! TF.GenerationSoftware,Kicad,Pcbnew,6.0.9+dfsg-1
; #@! TF.FileFunction,Plated,1,4,PTH
FMAT,2
METRIC
; #@! TA.AperFunction,Plated,PTH,ViaDrill
T1C0.400
; #@! TA.AperFunction,Plated,PTH,ComponentDrill
T2C0.700
; #@! TA.AperFunction,Plated,PTH,ComponentDrill
T3C0.800
; #@! TA.AperFunction,Plated,PTH,ComponentDrill
T4C1.000
; #@! TA.AperFunction,Plated,PTH,ComponentDrill
T5C1.100
; #@! TA.AperFunction,Plated,PTH,ComponentDrill
T6C3.200
; #@! TA.AperFunction,Plated,PTH,ComponentDrill
T7C4.300
%
G90
G05
T1
X124.46Y-72.39
X124.46Y-102.87
X135.89Y-81.28
X167.64Y-72.39
X167.64Y-102.87
X178.5Y-127.3
X186.69Y-72.39
X186.69Y-102.87
T2
X102.895Y-78.755
X102.895Y-80.025
X102.895Y-81.295
X102.895Y-82.565
X102.895Y-83.835
X102.895Y-85.105
X102.895Y-86.375
X102.895Y-87.645
X102.895Y-88.915
X102.895Y-90.185
X102.895Y-91.455
X102.895Y-92.725
X102.895Y-93.995
X102.895Y-95.265
X102.895Y-96.535
X102.895Y-113.68
X102.895Y-114.95
X102.895Y-116.22
X102.895Y-117.49
X102.895Y-118.76
X102.895Y-120.03
X102.895Y-121.3
X102.895Y-122.57
X102.895Y-123.84
X102.895Y-125.11
T3
X121.905Y-106.695
X121.905Y-109.235
X121.905Y-111.775
X121.905Y-114.315
X121.905Y-116.855
X121.905Y-119.395
X121.905Y-121.935
X121.905Y-124.475
X121.92Y-76.2
X121.92Y-78.74
X121.92Y-81.28
X121.92Y-83.82
X121.92Y-86.36
X121.92Y-88.9
X121.92Y-91.44
X121.92Y-93.98
X129.525Y-106.695
X129.525Y-109.235
X129.525Y-111.775
X129.525Y-114.315
X129.525Y-116.855
X129.525Y-119.395
X129.525Y-121.935
X129.525Y-124.475
X129.54Y-76.2
X129.54Y-78.74
X129.54Y-81.28
X129.54Y-83.82
X129.54Y-86.36
X129.54Y-88.9
X129.54Y-91.44
X129.54Y-93.98
X142.24Y-71.12
X142.24Y-73.66
X142.24Y-76.2
X142.24Y-78.74
X142.24Y-81.28
X142.24Y-83.82
X142.24Y-86.36
X142.24Y-88.9
X142.24Y-91.44
X142.24Y-93.98
X142.24Y-96.52
X142.24Y-99.06
X142.24Y-101.6
X142.24Y-104.14
X142.24Y-106.68
X142.24Y-109.22
X142.24Y-111.76
X142.24Y-114.3
X142.24Y-116.84
X142.24Y-119.38
X142.24Y-121.92
X142.24Y-124.46
X142.24Y-127.0
X142.24Y-129.54
X157.48Y-71.12
X157.48Y-73.66
X157.48Y-76.2
X157.48Y-78.74
X157.48Y-81.28
X157.48Y-83.82
X157.48Y-86.36
X157.48Y-88.9
X157.48Y-91.44
X157.48Y-93.98
X157.48Y-96.52
X157.48Y-99.06
X157.48Y-101.6
X157.48Y-104.14
X157.48Y-106.68
X157.48Y-109.22
X157.48Y-111.76
X157.48Y-114.3
X157.48Y-116.84
X157.48Y-119.38
X157.48Y-121.92
X157.48Y-124.46
X157.48Y-127.0
X157.48Y-129.54
X165.085Y-76.215
X165.085Y-78.755
X165.085Y-81.295
X165.085Y-83.835
X165.085Y-86.375
X165.085Y-88.915
X165.085Y-91.455
X165.085Y-93.995
X165.085Y-106.68
X165.085Y-109.22
X165.085Y-111.76
X165.085Y-114.3
X165.085Y-116.84
X165.085Y-119.38
X165.085Y-121.92
X165.085Y-124.46
X172.705Y-76.215
X172.705Y-78.755
X172.705Y-81.295
X172.705Y-83.835
X172.705Y-86.375
X172.705Y-88.915
X172.705Y-91.455
X172.705Y-93.995
X172.705Y-106.68
X172.705Y-109.22
X172.705Y-111.76
X172.705Y-114.3
X172.705Y-116.84
X172.705Y-119.38
X172.705Y-121.92
X172.705Y-124.46
X184.12Y-76.215
X184.12Y-78.755
X184.12Y-81.295
X184.12Y-83.835
X184.12Y-86.375
X184.12Y-88.915
X184.12Y-91.455
X184.12Y-93.995
X184.135Y-106.68
X184.135Y-109.22
X184.135Y-111.76
X184.135Y-114.3
X184.135Y-116.84
X184.135Y-119.38
X184.135Y-121.92
X184.135Y-124.46
X191.74Y-76.215
X191.74Y-78.755
X191.74Y-81.295
X191.74Y-83.835
X191.74Y-86.375
X191.74Y-88.915
X191.74Y-91.455
X191.74Y-93.995
X191.755Y-106.68
X191.755Y-109.22
X191.755Y-111.76
X191.755Y-114.3
X191.755Y-116.84
X191.755Y-119.38
X191.755Y-121.92
X191.755Y-124.46
T4
X112.5Y-69.85
X112.5Y-72.39
X112.5Y-74.93
X112.5Y-77.47
X112.5Y-80.01
X112.5Y-82.55
X112.5Y-85.09
X112.5Y-87.63
X112.5Y-90.17
X112.5Y-92.71
X112.5Y-95.25
X112.5Y-97.79
X112.5Y-100.33
X112.5Y-102.87
X112.5Y-105.41
X112.5Y-107.95
X112.5Y-110.49
X112.5Y-113.03
X112.5Y-115.57
X112.5Y-118.11
X112.5Y-120.65
X112.5Y-123.19
X112.5Y-125.73
X112.5Y-128.27
X112.5Y-130.81
T5
X128.881Y-134.96
X128.881Y-140.04
X130.026Y-137.5
X131.16Y-140.04
X131.171Y-134.96
X132.316Y-137.493
X133.45Y-140.04
X133.462Y-134.96
X134.606Y-137.478
X135.74Y-140.04
X135.751Y-134.945
X136.897Y-137.463
X138.03Y-140.04
X138.041Y-134.945
X139.186Y-137.447
X162.582Y-134.91
X162.582Y-139.99
X163.726Y-137.45
X164.86Y-139.99
X164.871Y-134.91
X166.016Y-137.443
X167.15Y-139.99
X167.161Y-134.91
X168.306Y-137.428
X169.44Y-139.99
X169.451Y-134.895
X170.596Y-137.413
X171.73Y-139.99
X171.742Y-134.895
X172.886Y-137.397
T6
X120.705Y-137.455
X145.695Y-137.481
X154.405Y-137.405
X179.395Y-137.431
T7
X112.5Y-62.5
X112.5Y-137.5
X187.5Y-62.5
X187.5Y-137.5
T0
M30
