%TF.GenerationSoftware,KiCad,Pcbnew,6.0.9+dfsg-1*%
%TF.CreationDate,2022-12-20T22:45:33+00:00*%
%TF.ProjectId,HP_54542C_Display_Adapter,48505f35-3435-4343-9243-5f446973706c,1*%
%TF.SameCoordinates,Original*%
%TF.FileFunction,Legend,Top*%
%TF.FilePolarity,Positive*%
%FSLAX46Y46*%
G04 Gerber Fmt 4.6, Leading zero omitted, Abs format (unit mm)*
G04 Created by KiCad (PCBNEW 6.0.9+dfsg-1) date 2022-12-20 22:45:33*
%MOMM*%
%LPD*%
G01*
G04 APERTURE LIST*
G04 Aperture macros list*
%AMRoundRect*
0 Rectangle with rounded corners*
0 $1 Rounding radius*
0 $2 $3 $4 $5 $6 $7 $8 $9 X,Y pos of 4 corners*
0 Add a 4 corners polygon primitive as box body*
4,1,4,$2,$3,$4,$5,$6,$7,$8,$9,$2,$3,0*
0 Add four circle primitives for the rounded corners*
1,1,$1+$1,$2,$3*
1,1,$1+$1,$4,$5*
1,1,$1+$1,$6,$7*
1,1,$1+$1,$8,$9*
0 Add four rect primitives between the rounded corners*
20,1,$1+$1,$2,$3,$4,$5,0*
20,1,$1+$1,$4,$5,$6,$7,0*
20,1,$1+$1,$6,$7,$8,$9,0*
20,1,$1+$1,$8,$9,$2,$3,0*%
G04 Aperture macros list end*
%ADD10C,0.150000*%
%ADD11C,0.120000*%
%ADD12C,4.500000*%
%ADD13C,1.500000*%
%ADD14RoundRect,0.237500X-0.250000X-0.237500X0.250000X-0.237500X0.250000X0.237500X-0.250000X0.237500X0*%
%ADD15RoundRect,0.237500X0.250000X0.237500X-0.250000X0.237500X-0.250000X-0.237500X0.250000X-0.237500X0*%
%ADD16RoundRect,0.237500X0.300000X0.237500X-0.300000X0.237500X-0.300000X-0.237500X0.300000X-0.237500X0*%
%ADD17R,2.400000X1.600000*%
%ADD18O,2.400000X1.600000*%
%ADD19R,1.700000X1.700000*%
%ADD20O,1.700000X1.700000*%
%ADD21R,1.000000X1.000000*%
%ADD22O,1.000000X1.000000*%
%ADD23C,7.500000*%
G04 APERTURE END LIST*
D10*
X137764761Y-59737473D02*
X137160000Y-59737473D01*
X137160000Y-58467473D01*
X138913809Y-59616521D02*
X138853333Y-59676997D01*
X138671904Y-59737473D01*
X138550952Y-59737473D01*
X138369523Y-59676997D01*
X138248571Y-59556045D01*
X138188095Y-59435092D01*
X138127619Y-59193188D01*
X138127619Y-59011759D01*
X138188095Y-58769854D01*
X138248571Y-58648902D01*
X138369523Y-58527950D01*
X138550952Y-58467473D01*
X138671904Y-58467473D01*
X138853333Y-58527950D01*
X138913809Y-58588426D01*
X139458095Y-59737473D02*
X139458095Y-58467473D01*
X139760476Y-58467473D01*
X139941904Y-58527950D01*
X140062857Y-58648902D01*
X140123333Y-58769854D01*
X140183809Y-59011759D01*
X140183809Y-59193188D01*
X140123333Y-59435092D01*
X140062857Y-59556045D01*
X139941904Y-59676997D01*
X139760476Y-59737473D01*
X139458095Y-59737473D01*
X141514285Y-58890807D02*
X141998095Y-58890807D01*
X141695714Y-58467473D02*
X141695714Y-59556045D01*
X141756190Y-59676997D01*
X141877142Y-59737473D01*
X141998095Y-59737473D01*
X142602857Y-59737473D02*
X142481904Y-59676997D01*
X142421428Y-59616521D01*
X142360952Y-59495569D01*
X142360952Y-59132711D01*
X142421428Y-59011759D01*
X142481904Y-58951283D01*
X142602857Y-58890807D01*
X142784285Y-58890807D01*
X142905238Y-58951283D01*
X142965714Y-59011759D01*
X143026190Y-59132711D01*
X143026190Y-59495569D01*
X142965714Y-59616521D01*
X142905238Y-59676997D01*
X142784285Y-59737473D01*
X142602857Y-59737473D01*
X144356666Y-58467473D02*
X144780000Y-59737473D01*
X145203333Y-58467473D01*
X146291904Y-58527950D02*
X146170952Y-58467473D01*
X145989523Y-58467473D01*
X145808095Y-58527950D01*
X145687142Y-58648902D01*
X145626666Y-58769854D01*
X145566190Y-59011759D01*
X145566190Y-59193188D01*
X145626666Y-59435092D01*
X145687142Y-59556045D01*
X145808095Y-59676997D01*
X145989523Y-59737473D01*
X146110476Y-59737473D01*
X146291904Y-59676997D01*
X146352380Y-59616521D01*
X146352380Y-59193188D01*
X146110476Y-59193188D01*
X146836190Y-59374616D02*
X147440952Y-59374616D01*
X146715238Y-59737473D02*
X147138571Y-58467473D01*
X147561904Y-59737473D01*
X148892380Y-59374616D02*
X149497142Y-59374616D01*
X148771428Y-59737473D02*
X149194761Y-58467473D01*
X149618095Y-59737473D01*
X150585714Y-59737473D02*
X150585714Y-58467473D01*
X150585714Y-59676997D02*
X150464761Y-59737473D01*
X150222857Y-59737473D01*
X150101904Y-59676997D01*
X150041428Y-59616521D01*
X149980952Y-59495569D01*
X149980952Y-59132711D01*
X150041428Y-59011759D01*
X150101904Y-58951283D01*
X150222857Y-58890807D01*
X150464761Y-58890807D01*
X150585714Y-58951283D01*
X151734761Y-59737473D02*
X151734761Y-59072235D01*
X151674285Y-58951283D01*
X151553333Y-58890807D01*
X151311428Y-58890807D01*
X151190476Y-58951283D01*
X151734761Y-59676997D02*
X151613809Y-59737473D01*
X151311428Y-59737473D01*
X151190476Y-59676997D01*
X151130000Y-59556045D01*
X151130000Y-59435092D01*
X151190476Y-59314140D01*
X151311428Y-59253664D01*
X151613809Y-59253664D01*
X151734761Y-59193188D01*
X152339523Y-58890807D02*
X152339523Y-60160807D01*
X152339523Y-58951283D02*
X152460476Y-58890807D01*
X152702380Y-58890807D01*
X152823333Y-58951283D01*
X152883809Y-59011759D01*
X152944285Y-59132711D01*
X152944285Y-59495569D01*
X152883809Y-59616521D01*
X152823333Y-59676997D01*
X152702380Y-59737473D01*
X152460476Y-59737473D01*
X152339523Y-59676997D01*
X153307142Y-58890807D02*
X153790952Y-58890807D01*
X153488571Y-58467473D02*
X153488571Y-59556045D01*
X153549047Y-59676997D01*
X153670000Y-59737473D01*
X153790952Y-59737473D01*
X154698095Y-59676997D02*
X154577142Y-59737473D01*
X154335238Y-59737473D01*
X154214285Y-59676997D01*
X154153809Y-59556045D01*
X154153809Y-59072235D01*
X154214285Y-58951283D01*
X154335238Y-58890807D01*
X154577142Y-58890807D01*
X154698095Y-58951283D01*
X154758571Y-59072235D01*
X154758571Y-59193188D01*
X154153809Y-59314140D01*
X155302857Y-59737473D02*
X155302857Y-58890807D01*
X155302857Y-59132711D02*
X155363333Y-59011759D01*
X155423809Y-58951283D01*
X155544761Y-58890807D01*
X155665714Y-58890807D01*
X157782380Y-59737473D02*
X157359047Y-59132711D01*
X157056666Y-59737473D02*
X157056666Y-58467473D01*
X157540476Y-58467473D01*
X157661428Y-58527950D01*
X157721904Y-58588426D01*
X157782380Y-58709378D01*
X157782380Y-58890807D01*
X157721904Y-59011759D01*
X157661428Y-59072235D01*
X157540476Y-59132711D01*
X157056666Y-59132711D01*
X158810476Y-59676997D02*
X158689523Y-59737473D01*
X158447619Y-59737473D01*
X158326666Y-59676997D01*
X158266190Y-59556045D01*
X158266190Y-59072235D01*
X158326666Y-58951283D01*
X158447619Y-58890807D01*
X158689523Y-58890807D01*
X158810476Y-58951283D01*
X158870952Y-59072235D01*
X158870952Y-59193188D01*
X158266190Y-59314140D01*
X159294285Y-58890807D02*
X159596666Y-59737473D01*
X159899047Y-58890807D01*
X160382857Y-59616521D02*
X160443333Y-59676997D01*
X160382857Y-59737473D01*
X160322380Y-59676997D01*
X160382857Y-59616521D01*
X160382857Y-59737473D01*
X162620476Y-59737473D02*
X161894761Y-59737473D01*
X162257619Y-59737473D02*
X162257619Y-58467473D01*
X162136666Y-58648902D01*
X162015714Y-58769854D01*
X161894761Y-58830330D01*
X126032380Y-61782173D02*
X126032380Y-60512173D01*
X126032380Y-61116935D02*
X126758095Y-61116935D01*
X126758095Y-61782173D02*
X126758095Y-60512173D01*
X127362857Y-61782173D02*
X127362857Y-60512173D01*
X127846666Y-60512173D01*
X127967619Y-60572650D01*
X128028095Y-60633126D01*
X128088571Y-60754078D01*
X128088571Y-60935507D01*
X128028095Y-61056459D01*
X127967619Y-61116935D01*
X127846666Y-61177411D01*
X127362857Y-61177411D01*
X130205238Y-60512173D02*
X129600476Y-60512173D01*
X129540000Y-61116935D01*
X129600476Y-61056459D01*
X129721428Y-60995983D01*
X130023809Y-60995983D01*
X130144761Y-61056459D01*
X130205238Y-61116935D01*
X130265714Y-61237888D01*
X130265714Y-61540269D01*
X130205238Y-61661221D01*
X130144761Y-61721697D01*
X130023809Y-61782173D01*
X129721428Y-61782173D01*
X129600476Y-61721697D01*
X129540000Y-61661221D01*
X131354285Y-60935507D02*
X131354285Y-61782173D01*
X131051904Y-60451697D02*
X130749523Y-61358840D01*
X131535714Y-61358840D01*
X132624285Y-60512173D02*
X132019523Y-60512173D01*
X131959047Y-61116935D01*
X132019523Y-61056459D01*
X132140476Y-60995983D01*
X132442857Y-60995983D01*
X132563809Y-61056459D01*
X132624285Y-61116935D01*
X132684761Y-61237888D01*
X132684761Y-61540269D01*
X132624285Y-61661221D01*
X132563809Y-61721697D01*
X132442857Y-61782173D01*
X132140476Y-61782173D01*
X132019523Y-61721697D01*
X131959047Y-61661221D01*
X133168571Y-60633126D02*
X133229047Y-60572650D01*
X133350000Y-60512173D01*
X133652380Y-60512173D01*
X133773333Y-60572650D01*
X133833809Y-60633126D01*
X133894285Y-60754078D01*
X133894285Y-60875030D01*
X133833809Y-61056459D01*
X133108095Y-61782173D01*
X133894285Y-61782173D01*
X134680476Y-60512173D02*
X134801428Y-60512173D01*
X134922380Y-60572650D01*
X134982857Y-60633126D01*
X135043333Y-60754078D01*
X135103809Y-60995983D01*
X135103809Y-61298364D01*
X135043333Y-61540269D01*
X134982857Y-61661221D01*
X134922380Y-61721697D01*
X134801428Y-61782173D01*
X134680476Y-61782173D01*
X134559523Y-61721697D01*
X134499047Y-61661221D01*
X134438571Y-61540269D01*
X134378095Y-61298364D01*
X134378095Y-60995983D01*
X134438571Y-60754078D01*
X134499047Y-60633126D01*
X134559523Y-60572650D01*
X134680476Y-60512173D01*
X136373809Y-61661221D02*
X136313333Y-61721697D01*
X136131904Y-61782173D01*
X136010952Y-61782173D01*
X135829523Y-61721697D01*
X135708571Y-61600745D01*
X135648095Y-61479792D01*
X135587619Y-61237888D01*
X135587619Y-61056459D01*
X135648095Y-60814554D01*
X135708571Y-60693602D01*
X135829523Y-60572650D01*
X136010952Y-60512173D01*
X136131904Y-60512173D01*
X136313333Y-60572650D01*
X136373809Y-60633126D01*
X136978571Y-61721697D02*
X136978571Y-61782173D01*
X136918095Y-61903126D01*
X136857619Y-61963602D01*
X138490476Y-61782173D02*
X138490476Y-60512173D01*
X138490476Y-61116935D02*
X139216190Y-61116935D01*
X139216190Y-61782173D02*
X139216190Y-60512173D01*
X139820952Y-61782173D02*
X139820952Y-60512173D01*
X140304761Y-60512173D01*
X140425714Y-60572650D01*
X140486190Y-60633126D01*
X140546666Y-60754078D01*
X140546666Y-60935507D01*
X140486190Y-61056459D01*
X140425714Y-61116935D01*
X140304761Y-61177411D01*
X139820952Y-61177411D01*
X142663333Y-60512173D02*
X142058571Y-60512173D01*
X141998095Y-61116935D01*
X142058571Y-61056459D01*
X142179523Y-60995983D01*
X142481904Y-60995983D01*
X142602857Y-61056459D01*
X142663333Y-61116935D01*
X142723809Y-61237888D01*
X142723809Y-61540269D01*
X142663333Y-61661221D01*
X142602857Y-61721697D01*
X142481904Y-61782173D01*
X142179523Y-61782173D01*
X142058571Y-61721697D01*
X141998095Y-61661221D01*
X143812380Y-60935507D02*
X143812380Y-61782173D01*
X143510000Y-60451697D02*
X143207619Y-61358840D01*
X143993809Y-61358840D01*
X145082380Y-60512173D02*
X144477619Y-60512173D01*
X144417142Y-61116935D01*
X144477619Y-61056459D01*
X144598571Y-60995983D01*
X144900952Y-60995983D01*
X145021904Y-61056459D01*
X145082380Y-61116935D01*
X145142857Y-61237888D01*
X145142857Y-61540269D01*
X145082380Y-61661221D01*
X145021904Y-61721697D01*
X144900952Y-61782173D01*
X144598571Y-61782173D01*
X144477619Y-61721697D01*
X144417142Y-61661221D01*
X145626666Y-60633126D02*
X145687142Y-60572650D01*
X145808095Y-60512173D01*
X146110476Y-60512173D01*
X146231428Y-60572650D01*
X146291904Y-60633126D01*
X146352380Y-60754078D01*
X146352380Y-60875030D01*
X146291904Y-61056459D01*
X145566190Y-61782173D01*
X146352380Y-61782173D01*
X146836190Y-60633126D02*
X146896666Y-60572650D01*
X147017619Y-60512173D01*
X147320000Y-60512173D01*
X147440952Y-60572650D01*
X147501428Y-60633126D01*
X147561904Y-60754078D01*
X147561904Y-60875030D01*
X147501428Y-61056459D01*
X146775714Y-61782173D01*
X147561904Y-61782173D01*
X148831904Y-61661221D02*
X148771428Y-61721697D01*
X148590000Y-61782173D01*
X148469047Y-61782173D01*
X148287619Y-61721697D01*
X148166666Y-61600745D01*
X148106190Y-61479792D01*
X148045714Y-61237888D01*
X148045714Y-61056459D01*
X148106190Y-60814554D01*
X148166666Y-60693602D01*
X148287619Y-60572650D01*
X148469047Y-60512173D01*
X148590000Y-60512173D01*
X148771428Y-60572650D01*
X148831904Y-60633126D01*
X149436666Y-61721697D02*
X149436666Y-61782173D01*
X149376190Y-61903126D01*
X149315714Y-61963602D01*
X150948571Y-61782173D02*
X150948571Y-60512173D01*
X150948571Y-61116935D02*
X151674285Y-61116935D01*
X151674285Y-61782173D02*
X151674285Y-60512173D01*
X152279047Y-61782173D02*
X152279047Y-60512173D01*
X152762857Y-60512173D01*
X152883809Y-60572650D01*
X152944285Y-60633126D01*
X153004761Y-60754078D01*
X153004761Y-60935507D01*
X152944285Y-61056459D01*
X152883809Y-61116935D01*
X152762857Y-61177411D01*
X152279047Y-61177411D01*
X155121428Y-60512173D02*
X154516666Y-60512173D01*
X154456190Y-61116935D01*
X154516666Y-61056459D01*
X154637619Y-60995983D01*
X154940000Y-60995983D01*
X155060952Y-61056459D01*
X155121428Y-61116935D01*
X155181904Y-61237888D01*
X155181904Y-61540269D01*
X155121428Y-61661221D01*
X155060952Y-61721697D01*
X154940000Y-61782173D01*
X154637619Y-61782173D01*
X154516666Y-61721697D01*
X154456190Y-61661221D01*
X156270476Y-60935507D02*
X156270476Y-61782173D01*
X155968095Y-60451697D02*
X155665714Y-61358840D01*
X156451904Y-61358840D01*
X157540476Y-60512173D02*
X156935714Y-60512173D01*
X156875238Y-61116935D01*
X156935714Y-61056459D01*
X157056666Y-60995983D01*
X157359047Y-60995983D01*
X157480000Y-61056459D01*
X157540476Y-61116935D01*
X157600952Y-61237888D01*
X157600952Y-61540269D01*
X157540476Y-61661221D01*
X157480000Y-61721697D01*
X157359047Y-61782173D01*
X157056666Y-61782173D01*
X156935714Y-61721697D01*
X156875238Y-61661221D01*
X158689523Y-60935507D02*
X158689523Y-61782173D01*
X158387142Y-60451697D02*
X158084761Y-61358840D01*
X158870952Y-61358840D01*
X159596666Y-60512173D02*
X159717619Y-60512173D01*
X159838571Y-60572650D01*
X159899047Y-60633126D01*
X159959523Y-60754078D01*
X160020000Y-60995983D01*
X160020000Y-61298364D01*
X159959523Y-61540269D01*
X159899047Y-61661221D01*
X159838571Y-61721697D01*
X159717619Y-61782173D01*
X159596666Y-61782173D01*
X159475714Y-61721697D01*
X159415238Y-61661221D01*
X159354761Y-61540269D01*
X159294285Y-61298364D01*
X159294285Y-60995983D01*
X159354761Y-60754078D01*
X159415238Y-60633126D01*
X159475714Y-60572650D01*
X159596666Y-60512173D01*
X161290000Y-61661221D02*
X161229523Y-61721697D01*
X161048095Y-61782173D01*
X160927142Y-61782173D01*
X160745714Y-61721697D01*
X160624761Y-61600745D01*
X160564285Y-61479792D01*
X160503809Y-61237888D01*
X160503809Y-61056459D01*
X160564285Y-60814554D01*
X160624761Y-60693602D01*
X160745714Y-60572650D01*
X160927142Y-60512173D01*
X161048095Y-60512173D01*
X161229523Y-60572650D01*
X161290000Y-60633126D01*
X161894761Y-61721697D02*
X161894761Y-61782173D01*
X161834285Y-61903126D01*
X161773809Y-61963602D01*
X163406666Y-61782173D02*
X163406666Y-60512173D01*
X163406666Y-61116935D02*
X164132380Y-61116935D01*
X164132380Y-61782173D02*
X164132380Y-60512173D01*
X164737142Y-61782173D02*
X164737142Y-60512173D01*
X165220952Y-60512173D01*
X165341904Y-60572650D01*
X165402380Y-60633126D01*
X165462857Y-60754078D01*
X165462857Y-60935507D01*
X165402380Y-61056459D01*
X165341904Y-61116935D01*
X165220952Y-61177411D01*
X164737142Y-61177411D01*
X167579523Y-60512173D02*
X166974761Y-60512173D01*
X166914285Y-61116935D01*
X166974761Y-61056459D01*
X167095714Y-60995983D01*
X167398095Y-60995983D01*
X167519047Y-61056459D01*
X167579523Y-61116935D01*
X167640000Y-61237888D01*
X167640000Y-61540269D01*
X167579523Y-61661221D01*
X167519047Y-61721697D01*
X167398095Y-61782173D01*
X167095714Y-61782173D01*
X166974761Y-61721697D01*
X166914285Y-61661221D01*
X168728571Y-60935507D02*
X168728571Y-61782173D01*
X168426190Y-60451697D02*
X168123809Y-61358840D01*
X168910000Y-61358840D01*
X169998571Y-60512173D02*
X169393809Y-60512173D01*
X169333333Y-61116935D01*
X169393809Y-61056459D01*
X169514761Y-60995983D01*
X169817142Y-60995983D01*
X169938095Y-61056459D01*
X169998571Y-61116935D01*
X170059047Y-61237888D01*
X170059047Y-61540269D01*
X169998571Y-61661221D01*
X169938095Y-61721697D01*
X169817142Y-61782173D01*
X169514761Y-61782173D01*
X169393809Y-61721697D01*
X169333333Y-61661221D01*
X171147619Y-60935507D02*
X171147619Y-61782173D01*
X170845238Y-60451697D02*
X170542857Y-61358840D01*
X171329047Y-61358840D01*
X171752380Y-60633126D02*
X171812857Y-60572650D01*
X171933809Y-60512173D01*
X172236190Y-60512173D01*
X172357142Y-60572650D01*
X172417619Y-60633126D01*
X172478095Y-60754078D01*
X172478095Y-60875030D01*
X172417619Y-61056459D01*
X171691904Y-61782173D01*
X172478095Y-61782173D01*
X173748095Y-61661221D02*
X173687619Y-61721697D01*
X173506190Y-61782173D01*
X173385238Y-61782173D01*
X173203809Y-61721697D01*
X173082857Y-61600745D01*
X173022380Y-61479792D01*
X172961904Y-61237888D01*
X172961904Y-61056459D01*
X173022380Y-60814554D01*
X173082857Y-60693602D01*
X173203809Y-60572650D01*
X173385238Y-60512173D01*
X173506190Y-60512173D01*
X173687619Y-60572650D01*
X173748095Y-60633126D01*
X137583333Y-63826873D02*
X136978571Y-63826873D01*
X136978571Y-62556873D01*
X138006666Y-63826873D02*
X138006666Y-62980207D01*
X138006666Y-62556873D02*
X137946190Y-62617350D01*
X138006666Y-62677826D01*
X138067142Y-62617350D01*
X138006666Y-62556873D01*
X138006666Y-62677826D01*
X139155714Y-63766397D02*
X139034761Y-63826873D01*
X138792857Y-63826873D01*
X138671904Y-63766397D01*
X138611428Y-63705921D01*
X138550952Y-63584969D01*
X138550952Y-63222111D01*
X138611428Y-63101159D01*
X138671904Y-63040683D01*
X138792857Y-62980207D01*
X139034761Y-62980207D01*
X139155714Y-63040683D01*
X140183809Y-63766397D02*
X140062857Y-63826873D01*
X139820952Y-63826873D01*
X139700000Y-63766397D01*
X139639523Y-63645445D01*
X139639523Y-63161635D01*
X139700000Y-63040683D01*
X139820952Y-62980207D01*
X140062857Y-62980207D01*
X140183809Y-63040683D01*
X140244285Y-63161635D01*
X140244285Y-63282588D01*
X139639523Y-63403540D01*
X140788571Y-62980207D02*
X140788571Y-63826873D01*
X140788571Y-63101159D02*
X140849047Y-63040683D01*
X140970000Y-62980207D01*
X141151428Y-62980207D01*
X141272380Y-63040683D01*
X141332857Y-63161635D01*
X141332857Y-63826873D01*
X141877142Y-63766397D02*
X141998095Y-63826873D01*
X142240000Y-63826873D01*
X142360952Y-63766397D01*
X142421428Y-63645445D01*
X142421428Y-63584969D01*
X142360952Y-63464016D01*
X142240000Y-63403540D01*
X142058571Y-63403540D01*
X141937619Y-63343064D01*
X141877142Y-63222111D01*
X141877142Y-63161635D01*
X141937619Y-63040683D01*
X142058571Y-62980207D01*
X142240000Y-62980207D01*
X142360952Y-63040683D01*
X143449523Y-63766397D02*
X143328571Y-63826873D01*
X143086666Y-63826873D01*
X142965714Y-63766397D01*
X142905238Y-63645445D01*
X142905238Y-63161635D01*
X142965714Y-63040683D01*
X143086666Y-62980207D01*
X143328571Y-62980207D01*
X143449523Y-63040683D01*
X143510000Y-63161635D01*
X143510000Y-63282588D01*
X142905238Y-63403540D01*
X144054285Y-63705921D02*
X144114761Y-63766397D01*
X144054285Y-63826873D01*
X143993809Y-63766397D01*
X144054285Y-63705921D01*
X144054285Y-63826873D01*
X144054285Y-63040683D02*
X144114761Y-63101159D01*
X144054285Y-63161635D01*
X143993809Y-63101159D01*
X144054285Y-63040683D01*
X144054285Y-63161635D01*
X146352380Y-63705921D02*
X146291904Y-63766397D01*
X146110476Y-63826873D01*
X145989523Y-63826873D01*
X145808095Y-63766397D01*
X145687142Y-63645445D01*
X145626666Y-63524492D01*
X145566190Y-63282588D01*
X145566190Y-63101159D01*
X145626666Y-62859254D01*
X145687142Y-62738302D01*
X145808095Y-62617350D01*
X145989523Y-62556873D01*
X146110476Y-62556873D01*
X146291904Y-62617350D01*
X146352380Y-62677826D01*
X146896666Y-63161635D02*
X147320000Y-63161635D01*
X147501428Y-63826873D02*
X146896666Y-63826873D01*
X146896666Y-62556873D01*
X147501428Y-62556873D01*
X148771428Y-63826873D02*
X148348095Y-63222111D01*
X148045714Y-63826873D02*
X148045714Y-62556873D01*
X148529523Y-62556873D01*
X148650476Y-62617350D01*
X148710952Y-62677826D01*
X148771428Y-62798778D01*
X148771428Y-62980207D01*
X148710952Y-63101159D01*
X148650476Y-63161635D01*
X148529523Y-63222111D01*
X148045714Y-63222111D01*
X149315714Y-63826873D02*
X149315714Y-62556873D01*
X150041428Y-63826873D01*
X150041428Y-62556873D01*
X150646190Y-63343064D02*
X151613809Y-63343064D01*
X152460476Y-62556873D02*
X152702380Y-62556873D01*
X152823333Y-62617350D01*
X152944285Y-62738302D01*
X153004761Y-62980207D01*
X153004761Y-63403540D01*
X152944285Y-63645445D01*
X152823333Y-63766397D01*
X152702380Y-63826873D01*
X152460476Y-63826873D01*
X152339523Y-63766397D01*
X152218571Y-63645445D01*
X152158095Y-63403540D01*
X152158095Y-62980207D01*
X152218571Y-62738302D01*
X152339523Y-62617350D01*
X152460476Y-62556873D01*
X153549047Y-63826873D02*
X153549047Y-62556873D01*
X153549047Y-63161635D02*
X154274761Y-63161635D01*
X154274761Y-63826873D02*
X154274761Y-62556873D01*
X155484285Y-63826873D02*
X154879523Y-63826873D01*
X154879523Y-62556873D01*
X155907619Y-63343064D02*
X156875238Y-63343064D01*
X157480000Y-63826873D02*
X157480000Y-62556873D01*
X157963809Y-62556873D01*
X158084761Y-62617350D01*
X158145238Y-62677826D01*
X158205714Y-62798778D01*
X158205714Y-62980207D01*
X158145238Y-63101159D01*
X158084761Y-63161635D01*
X157963809Y-63222111D01*
X157480000Y-63222111D01*
X158750000Y-63343064D02*
X159717619Y-63343064D01*
X160261904Y-62677826D02*
X160322380Y-62617350D01*
X160443333Y-62556873D01*
X160745714Y-62556873D01*
X160866666Y-62617350D01*
X160927142Y-62677826D01*
X160987619Y-62798778D01*
X160987619Y-62919730D01*
X160927142Y-63101159D01*
X160201428Y-63826873D01*
X160987619Y-63826873D01*
X161531904Y-63705921D02*
X161592380Y-63766397D01*
X161531904Y-63826873D01*
X161471428Y-63766397D01*
X161531904Y-63705921D01*
X161531904Y-63826873D01*
X162378571Y-62556873D02*
X162499523Y-62556873D01*
X162620476Y-62617350D01*
X162680952Y-62677826D01*
X162741428Y-62798778D01*
X162801904Y-63040683D01*
X162801904Y-63343064D01*
X162741428Y-63584969D01*
X162680952Y-63705921D01*
X162620476Y-63766397D01*
X162499523Y-63826873D01*
X162378571Y-63826873D01*
X162257619Y-63766397D01*
X162197142Y-63705921D01*
X162136666Y-63584969D01*
X162076190Y-63343064D01*
X162076190Y-63040683D01*
X162136666Y-62798778D01*
X162197142Y-62677826D01*
X162257619Y-62617350D01*
X162378571Y-62556873D01*
X133319761Y-65508716D02*
X133924523Y-65508716D01*
X133198809Y-65871573D02*
X133622142Y-64601573D01*
X134045476Y-65871573D01*
X134650238Y-65871573D02*
X134529285Y-65811097D01*
X134468809Y-65690145D01*
X134468809Y-64601573D01*
X135617857Y-65811097D02*
X135496904Y-65871573D01*
X135255000Y-65871573D01*
X135134047Y-65811097D01*
X135073571Y-65690145D01*
X135073571Y-65206335D01*
X135134047Y-65085383D01*
X135255000Y-65024907D01*
X135496904Y-65024907D01*
X135617857Y-65085383D01*
X135678333Y-65206335D01*
X135678333Y-65327288D01*
X135073571Y-65448240D01*
X136101666Y-65871573D02*
X136766904Y-65024907D01*
X136101666Y-65024907D02*
X136766904Y-65871573D01*
X137795000Y-65871573D02*
X137795000Y-65206335D01*
X137734523Y-65085383D01*
X137613571Y-65024907D01*
X137371666Y-65024907D01*
X137250714Y-65085383D01*
X137795000Y-65811097D02*
X137674047Y-65871573D01*
X137371666Y-65871573D01*
X137250714Y-65811097D01*
X137190238Y-65690145D01*
X137190238Y-65569192D01*
X137250714Y-65448240D01*
X137371666Y-65387764D01*
X137674047Y-65387764D01*
X137795000Y-65327288D01*
X138399761Y-65024907D02*
X138399761Y-65871573D01*
X138399761Y-65145859D02*
X138460238Y-65085383D01*
X138581190Y-65024907D01*
X138762619Y-65024907D01*
X138883571Y-65085383D01*
X138944047Y-65206335D01*
X138944047Y-65871573D01*
X140093095Y-65871573D02*
X140093095Y-64601573D01*
X140093095Y-65811097D02*
X139972142Y-65871573D01*
X139730238Y-65871573D01*
X139609285Y-65811097D01*
X139548809Y-65750621D01*
X139488333Y-65629669D01*
X139488333Y-65266811D01*
X139548809Y-65145859D01*
X139609285Y-65085383D01*
X139730238Y-65024907D01*
X139972142Y-65024907D01*
X140093095Y-65085383D01*
X141181666Y-65811097D02*
X141060714Y-65871573D01*
X140818809Y-65871573D01*
X140697857Y-65811097D01*
X140637380Y-65690145D01*
X140637380Y-65206335D01*
X140697857Y-65085383D01*
X140818809Y-65024907D01*
X141060714Y-65024907D01*
X141181666Y-65085383D01*
X141242142Y-65206335D01*
X141242142Y-65327288D01*
X140637380Y-65448240D01*
X141786428Y-65871573D02*
X141786428Y-65024907D01*
X141786428Y-65266811D02*
X141846904Y-65145859D01*
X141907380Y-65085383D01*
X142028333Y-65024907D01*
X142149285Y-65024907D01*
X143479761Y-64601573D02*
X143479761Y-64843478D01*
X143963571Y-64601573D02*
X143963571Y-64843478D01*
X144507857Y-65871573D02*
X144507857Y-64601573D01*
X144507857Y-65085383D02*
X144628809Y-65024907D01*
X144870714Y-65024907D01*
X144991666Y-65085383D01*
X145052142Y-65145859D01*
X145112619Y-65266811D01*
X145112619Y-65629669D01*
X145052142Y-65750621D01*
X144991666Y-65811097D01*
X144870714Y-65871573D01*
X144628809Y-65871573D01*
X144507857Y-65811097D01*
X145838333Y-65871573D02*
X145717380Y-65811097D01*
X145656904Y-65690145D01*
X145656904Y-64601573D01*
X146866428Y-65871573D02*
X146866428Y-65206335D01*
X146805952Y-65085383D01*
X146685000Y-65024907D01*
X146443095Y-65024907D01*
X146322142Y-65085383D01*
X146866428Y-65811097D02*
X146745476Y-65871573D01*
X146443095Y-65871573D01*
X146322142Y-65811097D01*
X146261666Y-65690145D01*
X146261666Y-65569192D01*
X146322142Y-65448240D01*
X146443095Y-65387764D01*
X146745476Y-65387764D01*
X146866428Y-65327288D01*
X148015476Y-65811097D02*
X147894523Y-65871573D01*
X147652619Y-65871573D01*
X147531666Y-65811097D01*
X147471190Y-65750621D01*
X147410714Y-65629669D01*
X147410714Y-65266811D01*
X147471190Y-65145859D01*
X147531666Y-65085383D01*
X147652619Y-65024907D01*
X147894523Y-65024907D01*
X148015476Y-65085383D01*
X148559761Y-65871573D02*
X148559761Y-64601573D01*
X148680714Y-65387764D02*
X149043571Y-65871573D01*
X149043571Y-65024907D02*
X148559761Y-65508716D01*
X149587857Y-65871573D02*
X149587857Y-64601573D01*
X149587857Y-65085383D02*
X149708809Y-65024907D01*
X149950714Y-65024907D01*
X150071666Y-65085383D01*
X150132142Y-65145859D01*
X150192619Y-65266811D01*
X150192619Y-65629669D01*
X150132142Y-65750621D01*
X150071666Y-65811097D01*
X149950714Y-65871573D01*
X149708809Y-65871573D01*
X149587857Y-65811097D01*
X150736904Y-65871573D02*
X150736904Y-65024907D01*
X150736904Y-64601573D02*
X150676428Y-64662050D01*
X150736904Y-64722526D01*
X150797380Y-64662050D01*
X150736904Y-64601573D01*
X150736904Y-64722526D01*
X151160238Y-65024907D02*
X151644047Y-65024907D01*
X151341666Y-64601573D02*
X151341666Y-65690145D01*
X151402142Y-65811097D01*
X151523095Y-65871573D01*
X151644047Y-65871573D01*
X152006904Y-64601573D02*
X152006904Y-64843478D01*
X152490714Y-64601573D02*
X152490714Y-64843478D01*
X154002619Y-65871573D02*
X154002619Y-64601573D01*
X154002619Y-65206335D02*
X154728333Y-65206335D01*
X154728333Y-65871573D02*
X154728333Y-64601573D01*
X155877380Y-65024907D02*
X155877380Y-65871573D01*
X155333095Y-65024907D02*
X155333095Y-65690145D01*
X155393571Y-65811097D01*
X155514523Y-65871573D01*
X155695952Y-65871573D01*
X155816904Y-65811097D01*
X155877380Y-65750621D01*
X156965952Y-65811097D02*
X156845000Y-65871573D01*
X156603095Y-65871573D01*
X156482142Y-65811097D01*
X156421666Y-65690145D01*
X156421666Y-65206335D01*
X156482142Y-65085383D01*
X156603095Y-65024907D01*
X156845000Y-65024907D01*
X156965952Y-65085383D01*
X157026428Y-65206335D01*
X157026428Y-65327288D01*
X156421666Y-65448240D01*
X157570714Y-65871573D02*
X157570714Y-65024907D01*
X157570714Y-65145859D02*
X157631190Y-65085383D01*
X157752142Y-65024907D01*
X157933571Y-65024907D01*
X158054523Y-65085383D01*
X158115000Y-65206335D01*
X158115000Y-65871573D01*
X158115000Y-65206335D02*
X158175476Y-65085383D01*
X158296428Y-65024907D01*
X158477857Y-65024907D01*
X158598809Y-65085383D01*
X158659285Y-65206335D01*
X158659285Y-65871573D01*
X159747857Y-65811097D02*
X159626904Y-65871573D01*
X159385000Y-65871573D01*
X159264047Y-65811097D01*
X159203571Y-65690145D01*
X159203571Y-65206335D01*
X159264047Y-65085383D01*
X159385000Y-65024907D01*
X159626904Y-65024907D01*
X159747857Y-65085383D01*
X159808333Y-65206335D01*
X159808333Y-65327288D01*
X159203571Y-65448240D01*
X160352619Y-65871573D02*
X160352619Y-65024907D01*
X160352619Y-65266811D02*
X160413095Y-65145859D01*
X160473571Y-65085383D01*
X160594523Y-65024907D01*
X160715476Y-65024907D01*
X162045952Y-64722526D02*
X162106428Y-64662050D01*
X162227380Y-64601573D01*
X162529761Y-64601573D01*
X162650714Y-64662050D01*
X162711190Y-64722526D01*
X162771666Y-64843478D01*
X162771666Y-64964430D01*
X162711190Y-65145859D01*
X161985476Y-65871573D01*
X162771666Y-65871573D01*
X163557857Y-64601573D02*
X163678809Y-64601573D01*
X163799761Y-64662050D01*
X163860238Y-64722526D01*
X163920714Y-64843478D01*
X163981190Y-65085383D01*
X163981190Y-65387764D01*
X163920714Y-65629669D01*
X163860238Y-65750621D01*
X163799761Y-65811097D01*
X163678809Y-65871573D01*
X163557857Y-65871573D01*
X163436904Y-65811097D01*
X163376428Y-65750621D01*
X163315952Y-65629669D01*
X163255476Y-65387764D01*
X163255476Y-65085383D01*
X163315952Y-64843478D01*
X163376428Y-64722526D01*
X163436904Y-64662050D01*
X163557857Y-64601573D01*
X164465000Y-64722526D02*
X164525476Y-64662050D01*
X164646428Y-64601573D01*
X164948809Y-64601573D01*
X165069761Y-64662050D01*
X165130238Y-64722526D01*
X165190714Y-64843478D01*
X165190714Y-64964430D01*
X165130238Y-65145859D01*
X164404523Y-65871573D01*
X165190714Y-65871573D01*
X165674523Y-64722526D02*
X165735000Y-64662050D01*
X165855952Y-64601573D01*
X166158333Y-64601573D01*
X166279285Y-64662050D01*
X166339761Y-64722526D01*
X166400238Y-64843478D01*
X166400238Y-64964430D01*
X166339761Y-65145859D01*
X165614047Y-65871573D01*
X166400238Y-65871573D01*
%TO.C,J5*%
X132856666Y-127912380D02*
X132856666Y-128626666D01*
X132809047Y-128769523D01*
X132713809Y-128864761D01*
X132570952Y-128912380D01*
X132475714Y-128912380D01*
X133809047Y-127912380D02*
X133332857Y-127912380D01*
X133285238Y-128388571D01*
X133332857Y-128340952D01*
X133428095Y-128293333D01*
X133666190Y-128293333D01*
X133761428Y-128340952D01*
X133809047Y-128388571D01*
X133856666Y-128483809D01*
X133856666Y-128721904D01*
X133809047Y-128817142D01*
X133761428Y-128864761D01*
X133666190Y-128912380D01*
X133428095Y-128912380D01*
X133332857Y-128864761D01*
X133285238Y-128817142D01*
%TO.C,J4*%
X166556666Y-127862380D02*
X166556666Y-128576666D01*
X166509047Y-128719523D01*
X166413809Y-128814761D01*
X166270952Y-128862380D01*
X166175714Y-128862380D01*
X167461428Y-128195714D02*
X167461428Y-128862380D01*
X167223333Y-127814761D02*
X166985238Y-128529047D01*
X167604285Y-128529047D01*
%TO.C,R36*%
X194937142Y-108242380D02*
X194603809Y-107766190D01*
X194365714Y-108242380D02*
X194365714Y-107242380D01*
X194746666Y-107242380D01*
X194841904Y-107290000D01*
X194889523Y-107337619D01*
X194937142Y-107432857D01*
X194937142Y-107575714D01*
X194889523Y-107670952D01*
X194841904Y-107718571D01*
X194746666Y-107766190D01*
X194365714Y-107766190D01*
X195270476Y-107242380D02*
X195889523Y-107242380D01*
X195556190Y-107623333D01*
X195699047Y-107623333D01*
X195794285Y-107670952D01*
X195841904Y-107718571D01*
X195889523Y-107813809D01*
X195889523Y-108051904D01*
X195841904Y-108147142D01*
X195794285Y-108194761D01*
X195699047Y-108242380D01*
X195413333Y-108242380D01*
X195318095Y-108194761D01*
X195270476Y-108147142D01*
X196746666Y-107242380D02*
X196556190Y-107242380D01*
X196460952Y-107290000D01*
X196413333Y-107337619D01*
X196318095Y-107480476D01*
X196270476Y-107670952D01*
X196270476Y-108051904D01*
X196318095Y-108147142D01*
X196365714Y-108194761D01*
X196460952Y-108242380D01*
X196651428Y-108242380D01*
X196746666Y-108194761D01*
X196794285Y-108147142D01*
X196841904Y-108051904D01*
X196841904Y-107813809D01*
X196794285Y-107718571D01*
X196746666Y-107670952D01*
X196651428Y-107623333D01*
X196460952Y-107623333D01*
X196365714Y-107670952D01*
X196318095Y-107718571D01*
X196270476Y-107813809D01*
%TO.C,R35*%
X194937142Y-115862380D02*
X194603809Y-115386190D01*
X194365714Y-115862380D02*
X194365714Y-114862380D01*
X194746666Y-114862380D01*
X194841904Y-114910000D01*
X194889523Y-114957619D01*
X194937142Y-115052857D01*
X194937142Y-115195714D01*
X194889523Y-115290952D01*
X194841904Y-115338571D01*
X194746666Y-115386190D01*
X194365714Y-115386190D01*
X195270476Y-114862380D02*
X195889523Y-114862380D01*
X195556190Y-115243333D01*
X195699047Y-115243333D01*
X195794285Y-115290952D01*
X195841904Y-115338571D01*
X195889523Y-115433809D01*
X195889523Y-115671904D01*
X195841904Y-115767142D01*
X195794285Y-115814761D01*
X195699047Y-115862380D01*
X195413333Y-115862380D01*
X195318095Y-115814761D01*
X195270476Y-115767142D01*
X196794285Y-114862380D02*
X196318095Y-114862380D01*
X196270476Y-115338571D01*
X196318095Y-115290952D01*
X196413333Y-115243333D01*
X196651428Y-115243333D01*
X196746666Y-115290952D01*
X196794285Y-115338571D01*
X196841904Y-115433809D01*
X196841904Y-115671904D01*
X196794285Y-115767142D01*
X196746666Y-115814761D01*
X196651428Y-115862380D01*
X196413333Y-115862380D01*
X196318095Y-115814761D01*
X196270476Y-115767142D01*
%TO.C,R34*%
X194937142Y-120942380D02*
X194603809Y-120466190D01*
X194365714Y-120942380D02*
X194365714Y-119942380D01*
X194746666Y-119942380D01*
X194841904Y-119990000D01*
X194889523Y-120037619D01*
X194937142Y-120132857D01*
X194937142Y-120275714D01*
X194889523Y-120370952D01*
X194841904Y-120418571D01*
X194746666Y-120466190D01*
X194365714Y-120466190D01*
X195270476Y-119942380D02*
X195889523Y-119942380D01*
X195556190Y-120323333D01*
X195699047Y-120323333D01*
X195794285Y-120370952D01*
X195841904Y-120418571D01*
X195889523Y-120513809D01*
X195889523Y-120751904D01*
X195841904Y-120847142D01*
X195794285Y-120894761D01*
X195699047Y-120942380D01*
X195413333Y-120942380D01*
X195318095Y-120894761D01*
X195270476Y-120847142D01*
X196746666Y-120275714D02*
X196746666Y-120942380D01*
X196508571Y-119894761D02*
X196270476Y-120609047D01*
X196889523Y-120609047D01*
%TO.C,R33*%
X179697142Y-118562380D02*
X179363809Y-118086190D01*
X179125714Y-118562380D02*
X179125714Y-117562380D01*
X179506666Y-117562380D01*
X179601904Y-117610000D01*
X179649523Y-117657619D01*
X179697142Y-117752857D01*
X179697142Y-117895714D01*
X179649523Y-117990952D01*
X179601904Y-118038571D01*
X179506666Y-118086190D01*
X179125714Y-118086190D01*
X180030476Y-117562380D02*
X180649523Y-117562380D01*
X180316190Y-117943333D01*
X180459047Y-117943333D01*
X180554285Y-117990952D01*
X180601904Y-118038571D01*
X180649523Y-118133809D01*
X180649523Y-118371904D01*
X180601904Y-118467142D01*
X180554285Y-118514761D01*
X180459047Y-118562380D01*
X180173333Y-118562380D01*
X180078095Y-118514761D01*
X180030476Y-118467142D01*
X180982857Y-117562380D02*
X181601904Y-117562380D01*
X181268571Y-117943333D01*
X181411428Y-117943333D01*
X181506666Y-117990952D01*
X181554285Y-118038571D01*
X181601904Y-118133809D01*
X181601904Y-118371904D01*
X181554285Y-118467142D01*
X181506666Y-118514761D01*
X181411428Y-118562380D01*
X181125714Y-118562380D01*
X181030476Y-118514761D01*
X180982857Y-118467142D01*
%TO.C,R32*%
X179697142Y-113482380D02*
X179363809Y-113006190D01*
X179125714Y-113482380D02*
X179125714Y-112482380D01*
X179506666Y-112482380D01*
X179601904Y-112530000D01*
X179649523Y-112577619D01*
X179697142Y-112672857D01*
X179697142Y-112815714D01*
X179649523Y-112910952D01*
X179601904Y-112958571D01*
X179506666Y-113006190D01*
X179125714Y-113006190D01*
X180030476Y-112482380D02*
X180649523Y-112482380D01*
X180316190Y-112863333D01*
X180459047Y-112863333D01*
X180554285Y-112910952D01*
X180601904Y-112958571D01*
X180649523Y-113053809D01*
X180649523Y-113291904D01*
X180601904Y-113387142D01*
X180554285Y-113434761D01*
X180459047Y-113482380D01*
X180173333Y-113482380D01*
X180078095Y-113434761D01*
X180030476Y-113387142D01*
X181030476Y-112577619D02*
X181078095Y-112530000D01*
X181173333Y-112482380D01*
X181411428Y-112482380D01*
X181506666Y-112530000D01*
X181554285Y-112577619D01*
X181601904Y-112672857D01*
X181601904Y-112768095D01*
X181554285Y-112910952D01*
X180982857Y-113482380D01*
X181601904Y-113482380D01*
%TO.C,R31*%
X179697142Y-108402380D02*
X179363809Y-107926190D01*
X179125714Y-108402380D02*
X179125714Y-107402380D01*
X179506666Y-107402380D01*
X179601904Y-107450000D01*
X179649523Y-107497619D01*
X179697142Y-107592857D01*
X179697142Y-107735714D01*
X179649523Y-107830952D01*
X179601904Y-107878571D01*
X179506666Y-107926190D01*
X179125714Y-107926190D01*
X180030476Y-107402380D02*
X180649523Y-107402380D01*
X180316190Y-107783333D01*
X180459047Y-107783333D01*
X180554285Y-107830952D01*
X180601904Y-107878571D01*
X180649523Y-107973809D01*
X180649523Y-108211904D01*
X180601904Y-108307142D01*
X180554285Y-108354761D01*
X180459047Y-108402380D01*
X180173333Y-108402380D01*
X180078095Y-108354761D01*
X180030476Y-108307142D01*
X181601904Y-108402380D02*
X181030476Y-108402380D01*
X181316190Y-108402380D02*
X181316190Y-107402380D01*
X181220952Y-107545238D01*
X181125714Y-107640476D01*
X181030476Y-107688095D01*
%TO.C,R30*%
X175887142Y-108242380D02*
X175553809Y-107766190D01*
X175315714Y-108242380D02*
X175315714Y-107242380D01*
X175696666Y-107242380D01*
X175791904Y-107290000D01*
X175839523Y-107337619D01*
X175887142Y-107432857D01*
X175887142Y-107575714D01*
X175839523Y-107670952D01*
X175791904Y-107718571D01*
X175696666Y-107766190D01*
X175315714Y-107766190D01*
X176220476Y-107242380D02*
X176839523Y-107242380D01*
X176506190Y-107623333D01*
X176649047Y-107623333D01*
X176744285Y-107670952D01*
X176791904Y-107718571D01*
X176839523Y-107813809D01*
X176839523Y-108051904D01*
X176791904Y-108147142D01*
X176744285Y-108194761D01*
X176649047Y-108242380D01*
X176363333Y-108242380D01*
X176268095Y-108194761D01*
X176220476Y-108147142D01*
X177458571Y-107242380D02*
X177553809Y-107242380D01*
X177649047Y-107290000D01*
X177696666Y-107337619D01*
X177744285Y-107432857D01*
X177791904Y-107623333D01*
X177791904Y-107861428D01*
X177744285Y-108051904D01*
X177696666Y-108147142D01*
X177649047Y-108194761D01*
X177553809Y-108242380D01*
X177458571Y-108242380D01*
X177363333Y-108194761D01*
X177315714Y-108147142D01*
X177268095Y-108051904D01*
X177220476Y-107861428D01*
X177220476Y-107623333D01*
X177268095Y-107432857D01*
X177315714Y-107337619D01*
X177363333Y-107290000D01*
X177458571Y-107242380D01*
%TO.C,R29*%
X175887142Y-115862380D02*
X175553809Y-115386190D01*
X175315714Y-115862380D02*
X175315714Y-114862380D01*
X175696666Y-114862380D01*
X175791904Y-114910000D01*
X175839523Y-114957619D01*
X175887142Y-115052857D01*
X175887142Y-115195714D01*
X175839523Y-115290952D01*
X175791904Y-115338571D01*
X175696666Y-115386190D01*
X175315714Y-115386190D01*
X176268095Y-114957619D02*
X176315714Y-114910000D01*
X176410952Y-114862380D01*
X176649047Y-114862380D01*
X176744285Y-114910000D01*
X176791904Y-114957619D01*
X176839523Y-115052857D01*
X176839523Y-115148095D01*
X176791904Y-115290952D01*
X176220476Y-115862380D01*
X176839523Y-115862380D01*
X177315714Y-115862380D02*
X177506190Y-115862380D01*
X177601428Y-115814761D01*
X177649047Y-115767142D01*
X177744285Y-115624285D01*
X177791904Y-115433809D01*
X177791904Y-115052857D01*
X177744285Y-114957619D01*
X177696666Y-114910000D01*
X177601428Y-114862380D01*
X177410952Y-114862380D01*
X177315714Y-114910000D01*
X177268095Y-114957619D01*
X177220476Y-115052857D01*
X177220476Y-115290952D01*
X177268095Y-115386190D01*
X177315714Y-115433809D01*
X177410952Y-115481428D01*
X177601428Y-115481428D01*
X177696666Y-115433809D01*
X177744285Y-115386190D01*
X177791904Y-115290952D01*
%TO.C,R28*%
X175887142Y-120942380D02*
X175553809Y-120466190D01*
X175315714Y-120942380D02*
X175315714Y-119942380D01*
X175696666Y-119942380D01*
X175791904Y-119990000D01*
X175839523Y-120037619D01*
X175887142Y-120132857D01*
X175887142Y-120275714D01*
X175839523Y-120370952D01*
X175791904Y-120418571D01*
X175696666Y-120466190D01*
X175315714Y-120466190D01*
X176268095Y-120037619D02*
X176315714Y-119990000D01*
X176410952Y-119942380D01*
X176649047Y-119942380D01*
X176744285Y-119990000D01*
X176791904Y-120037619D01*
X176839523Y-120132857D01*
X176839523Y-120228095D01*
X176791904Y-120370952D01*
X176220476Y-120942380D01*
X176839523Y-120942380D01*
X177410952Y-120370952D02*
X177315714Y-120323333D01*
X177268095Y-120275714D01*
X177220476Y-120180476D01*
X177220476Y-120132857D01*
X177268095Y-120037619D01*
X177315714Y-119990000D01*
X177410952Y-119942380D01*
X177601428Y-119942380D01*
X177696666Y-119990000D01*
X177744285Y-120037619D01*
X177791904Y-120132857D01*
X177791904Y-120180476D01*
X177744285Y-120275714D01*
X177696666Y-120323333D01*
X177601428Y-120370952D01*
X177410952Y-120370952D01*
X177315714Y-120418571D01*
X177268095Y-120466190D01*
X177220476Y-120561428D01*
X177220476Y-120751904D01*
X177268095Y-120847142D01*
X177315714Y-120894761D01*
X177410952Y-120942380D01*
X177601428Y-120942380D01*
X177696666Y-120894761D01*
X177744285Y-120847142D01*
X177791904Y-120751904D01*
X177791904Y-120561428D01*
X177744285Y-120466190D01*
X177696666Y-120418571D01*
X177601428Y-120370952D01*
%TO.C,R27*%
X160647142Y-118562380D02*
X160313809Y-118086190D01*
X160075714Y-118562380D02*
X160075714Y-117562380D01*
X160456666Y-117562380D01*
X160551904Y-117610000D01*
X160599523Y-117657619D01*
X160647142Y-117752857D01*
X160647142Y-117895714D01*
X160599523Y-117990952D01*
X160551904Y-118038571D01*
X160456666Y-118086190D01*
X160075714Y-118086190D01*
X161028095Y-117657619D02*
X161075714Y-117610000D01*
X161170952Y-117562380D01*
X161409047Y-117562380D01*
X161504285Y-117610000D01*
X161551904Y-117657619D01*
X161599523Y-117752857D01*
X161599523Y-117848095D01*
X161551904Y-117990952D01*
X160980476Y-118562380D01*
X161599523Y-118562380D01*
X161932857Y-117562380D02*
X162599523Y-117562380D01*
X162170952Y-118562380D01*
%TO.C,R26*%
X160647142Y-113482380D02*
X160313809Y-113006190D01*
X160075714Y-113482380D02*
X160075714Y-112482380D01*
X160456666Y-112482380D01*
X160551904Y-112530000D01*
X160599523Y-112577619D01*
X160647142Y-112672857D01*
X160647142Y-112815714D01*
X160599523Y-112910952D01*
X160551904Y-112958571D01*
X160456666Y-113006190D01*
X160075714Y-113006190D01*
X161028095Y-112577619D02*
X161075714Y-112530000D01*
X161170952Y-112482380D01*
X161409047Y-112482380D01*
X161504285Y-112530000D01*
X161551904Y-112577619D01*
X161599523Y-112672857D01*
X161599523Y-112768095D01*
X161551904Y-112910952D01*
X160980476Y-113482380D01*
X161599523Y-113482380D01*
X162456666Y-112482380D02*
X162266190Y-112482380D01*
X162170952Y-112530000D01*
X162123333Y-112577619D01*
X162028095Y-112720476D01*
X161980476Y-112910952D01*
X161980476Y-113291904D01*
X162028095Y-113387142D01*
X162075714Y-113434761D01*
X162170952Y-113482380D01*
X162361428Y-113482380D01*
X162456666Y-113434761D01*
X162504285Y-113387142D01*
X162551904Y-113291904D01*
X162551904Y-113053809D01*
X162504285Y-112958571D01*
X162456666Y-112910952D01*
X162361428Y-112863333D01*
X162170952Y-112863333D01*
X162075714Y-112910952D01*
X162028095Y-112958571D01*
X161980476Y-113053809D01*
%TO.C,R25*%
X160647142Y-108402380D02*
X160313809Y-107926190D01*
X160075714Y-108402380D02*
X160075714Y-107402380D01*
X160456666Y-107402380D01*
X160551904Y-107450000D01*
X160599523Y-107497619D01*
X160647142Y-107592857D01*
X160647142Y-107735714D01*
X160599523Y-107830952D01*
X160551904Y-107878571D01*
X160456666Y-107926190D01*
X160075714Y-107926190D01*
X161028095Y-107497619D02*
X161075714Y-107450000D01*
X161170952Y-107402380D01*
X161409047Y-107402380D01*
X161504285Y-107450000D01*
X161551904Y-107497619D01*
X161599523Y-107592857D01*
X161599523Y-107688095D01*
X161551904Y-107830952D01*
X160980476Y-108402380D01*
X161599523Y-108402380D01*
X162504285Y-107402380D02*
X162028095Y-107402380D01*
X161980476Y-107878571D01*
X162028095Y-107830952D01*
X162123333Y-107783333D01*
X162361428Y-107783333D01*
X162456666Y-107830952D01*
X162504285Y-107878571D01*
X162551904Y-107973809D01*
X162551904Y-108211904D01*
X162504285Y-108307142D01*
X162456666Y-108354761D01*
X162361428Y-108402380D01*
X162123333Y-108402380D01*
X162028095Y-108354761D01*
X161980476Y-108307142D01*
%TO.C,R24*%
X194937142Y-77762380D02*
X194603809Y-77286190D01*
X194365714Y-77762380D02*
X194365714Y-76762380D01*
X194746666Y-76762380D01*
X194841904Y-76810000D01*
X194889523Y-76857619D01*
X194937142Y-76952857D01*
X194937142Y-77095714D01*
X194889523Y-77190952D01*
X194841904Y-77238571D01*
X194746666Y-77286190D01*
X194365714Y-77286190D01*
X195318095Y-76857619D02*
X195365714Y-76810000D01*
X195460952Y-76762380D01*
X195699047Y-76762380D01*
X195794285Y-76810000D01*
X195841904Y-76857619D01*
X195889523Y-76952857D01*
X195889523Y-77048095D01*
X195841904Y-77190952D01*
X195270476Y-77762380D01*
X195889523Y-77762380D01*
X196746666Y-77095714D02*
X196746666Y-77762380D01*
X196508571Y-76714761D02*
X196270476Y-77429047D01*
X196889523Y-77429047D01*
%TO.C,R23*%
X194937142Y-85382380D02*
X194603809Y-84906190D01*
X194365714Y-85382380D02*
X194365714Y-84382380D01*
X194746666Y-84382380D01*
X194841904Y-84430000D01*
X194889523Y-84477619D01*
X194937142Y-84572857D01*
X194937142Y-84715714D01*
X194889523Y-84810952D01*
X194841904Y-84858571D01*
X194746666Y-84906190D01*
X194365714Y-84906190D01*
X195318095Y-84477619D02*
X195365714Y-84430000D01*
X195460952Y-84382380D01*
X195699047Y-84382380D01*
X195794285Y-84430000D01*
X195841904Y-84477619D01*
X195889523Y-84572857D01*
X195889523Y-84668095D01*
X195841904Y-84810952D01*
X195270476Y-85382380D01*
X195889523Y-85382380D01*
X196222857Y-84382380D02*
X196841904Y-84382380D01*
X196508571Y-84763333D01*
X196651428Y-84763333D01*
X196746666Y-84810952D01*
X196794285Y-84858571D01*
X196841904Y-84953809D01*
X196841904Y-85191904D01*
X196794285Y-85287142D01*
X196746666Y-85334761D01*
X196651428Y-85382380D01*
X196365714Y-85382380D01*
X196270476Y-85334761D01*
X196222857Y-85287142D01*
%TO.C,R22*%
X194937142Y-90462380D02*
X194603809Y-89986190D01*
X194365714Y-90462380D02*
X194365714Y-89462380D01*
X194746666Y-89462380D01*
X194841904Y-89510000D01*
X194889523Y-89557619D01*
X194937142Y-89652857D01*
X194937142Y-89795714D01*
X194889523Y-89890952D01*
X194841904Y-89938571D01*
X194746666Y-89986190D01*
X194365714Y-89986190D01*
X195318095Y-89557619D02*
X195365714Y-89510000D01*
X195460952Y-89462380D01*
X195699047Y-89462380D01*
X195794285Y-89510000D01*
X195841904Y-89557619D01*
X195889523Y-89652857D01*
X195889523Y-89748095D01*
X195841904Y-89890952D01*
X195270476Y-90462380D01*
X195889523Y-90462380D01*
X196270476Y-89557619D02*
X196318095Y-89510000D01*
X196413333Y-89462380D01*
X196651428Y-89462380D01*
X196746666Y-89510000D01*
X196794285Y-89557619D01*
X196841904Y-89652857D01*
X196841904Y-89748095D01*
X196794285Y-89890952D01*
X196222857Y-90462380D01*
X196841904Y-90462380D01*
%TO.C,R21*%
X179697142Y-88082380D02*
X179363809Y-87606190D01*
X179125714Y-88082380D02*
X179125714Y-87082380D01*
X179506666Y-87082380D01*
X179601904Y-87130000D01*
X179649523Y-87177619D01*
X179697142Y-87272857D01*
X179697142Y-87415714D01*
X179649523Y-87510952D01*
X179601904Y-87558571D01*
X179506666Y-87606190D01*
X179125714Y-87606190D01*
X180078095Y-87177619D02*
X180125714Y-87130000D01*
X180220952Y-87082380D01*
X180459047Y-87082380D01*
X180554285Y-87130000D01*
X180601904Y-87177619D01*
X180649523Y-87272857D01*
X180649523Y-87368095D01*
X180601904Y-87510952D01*
X180030476Y-88082380D01*
X180649523Y-88082380D01*
X181601904Y-88082380D02*
X181030476Y-88082380D01*
X181316190Y-88082380D02*
X181316190Y-87082380D01*
X181220952Y-87225238D01*
X181125714Y-87320476D01*
X181030476Y-87368095D01*
%TO.C,R20*%
X179697142Y-83002380D02*
X179363809Y-82526190D01*
X179125714Y-83002380D02*
X179125714Y-82002380D01*
X179506666Y-82002380D01*
X179601904Y-82050000D01*
X179649523Y-82097619D01*
X179697142Y-82192857D01*
X179697142Y-82335714D01*
X179649523Y-82430952D01*
X179601904Y-82478571D01*
X179506666Y-82526190D01*
X179125714Y-82526190D01*
X180078095Y-82097619D02*
X180125714Y-82050000D01*
X180220952Y-82002380D01*
X180459047Y-82002380D01*
X180554285Y-82050000D01*
X180601904Y-82097619D01*
X180649523Y-82192857D01*
X180649523Y-82288095D01*
X180601904Y-82430952D01*
X180030476Y-83002380D01*
X180649523Y-83002380D01*
X181268571Y-82002380D02*
X181363809Y-82002380D01*
X181459047Y-82050000D01*
X181506666Y-82097619D01*
X181554285Y-82192857D01*
X181601904Y-82383333D01*
X181601904Y-82621428D01*
X181554285Y-82811904D01*
X181506666Y-82907142D01*
X181459047Y-82954761D01*
X181363809Y-83002380D01*
X181268571Y-83002380D01*
X181173333Y-82954761D01*
X181125714Y-82907142D01*
X181078095Y-82811904D01*
X181030476Y-82621428D01*
X181030476Y-82383333D01*
X181078095Y-82192857D01*
X181125714Y-82097619D01*
X181173333Y-82050000D01*
X181268571Y-82002380D01*
%TO.C,R19*%
X179697142Y-77922380D02*
X179363809Y-77446190D01*
X179125714Y-77922380D02*
X179125714Y-76922380D01*
X179506666Y-76922380D01*
X179601904Y-76970000D01*
X179649523Y-77017619D01*
X179697142Y-77112857D01*
X179697142Y-77255714D01*
X179649523Y-77350952D01*
X179601904Y-77398571D01*
X179506666Y-77446190D01*
X179125714Y-77446190D01*
X180649523Y-77922380D02*
X180078095Y-77922380D01*
X180363809Y-77922380D02*
X180363809Y-76922380D01*
X180268571Y-77065238D01*
X180173333Y-77160476D01*
X180078095Y-77208095D01*
X181125714Y-77922380D02*
X181316190Y-77922380D01*
X181411428Y-77874761D01*
X181459047Y-77827142D01*
X181554285Y-77684285D01*
X181601904Y-77493809D01*
X181601904Y-77112857D01*
X181554285Y-77017619D01*
X181506666Y-76970000D01*
X181411428Y-76922380D01*
X181220952Y-76922380D01*
X181125714Y-76970000D01*
X181078095Y-77017619D01*
X181030476Y-77112857D01*
X181030476Y-77350952D01*
X181078095Y-77446190D01*
X181125714Y-77493809D01*
X181220952Y-77541428D01*
X181411428Y-77541428D01*
X181506666Y-77493809D01*
X181554285Y-77446190D01*
X181601904Y-77350952D01*
%TO.C,R18*%
X175887142Y-77762380D02*
X175553809Y-77286190D01*
X175315714Y-77762380D02*
X175315714Y-76762380D01*
X175696666Y-76762380D01*
X175791904Y-76810000D01*
X175839523Y-76857619D01*
X175887142Y-76952857D01*
X175887142Y-77095714D01*
X175839523Y-77190952D01*
X175791904Y-77238571D01*
X175696666Y-77286190D01*
X175315714Y-77286190D01*
X176839523Y-77762380D02*
X176268095Y-77762380D01*
X176553809Y-77762380D02*
X176553809Y-76762380D01*
X176458571Y-76905238D01*
X176363333Y-77000476D01*
X176268095Y-77048095D01*
X177410952Y-77190952D02*
X177315714Y-77143333D01*
X177268095Y-77095714D01*
X177220476Y-77000476D01*
X177220476Y-76952857D01*
X177268095Y-76857619D01*
X177315714Y-76810000D01*
X177410952Y-76762380D01*
X177601428Y-76762380D01*
X177696666Y-76810000D01*
X177744285Y-76857619D01*
X177791904Y-76952857D01*
X177791904Y-77000476D01*
X177744285Y-77095714D01*
X177696666Y-77143333D01*
X177601428Y-77190952D01*
X177410952Y-77190952D01*
X177315714Y-77238571D01*
X177268095Y-77286190D01*
X177220476Y-77381428D01*
X177220476Y-77571904D01*
X177268095Y-77667142D01*
X177315714Y-77714761D01*
X177410952Y-77762380D01*
X177601428Y-77762380D01*
X177696666Y-77714761D01*
X177744285Y-77667142D01*
X177791904Y-77571904D01*
X177791904Y-77381428D01*
X177744285Y-77286190D01*
X177696666Y-77238571D01*
X177601428Y-77190952D01*
%TO.C,R17*%
X175887142Y-85382380D02*
X175553809Y-84906190D01*
X175315714Y-85382380D02*
X175315714Y-84382380D01*
X175696666Y-84382380D01*
X175791904Y-84430000D01*
X175839523Y-84477619D01*
X175887142Y-84572857D01*
X175887142Y-84715714D01*
X175839523Y-84810952D01*
X175791904Y-84858571D01*
X175696666Y-84906190D01*
X175315714Y-84906190D01*
X176839523Y-85382380D02*
X176268095Y-85382380D01*
X176553809Y-85382380D02*
X176553809Y-84382380D01*
X176458571Y-84525238D01*
X176363333Y-84620476D01*
X176268095Y-84668095D01*
X177172857Y-84382380D02*
X177839523Y-84382380D01*
X177410952Y-85382380D01*
%TO.C,R16*%
X175887142Y-90462380D02*
X175553809Y-89986190D01*
X175315714Y-90462380D02*
X175315714Y-89462380D01*
X175696666Y-89462380D01*
X175791904Y-89510000D01*
X175839523Y-89557619D01*
X175887142Y-89652857D01*
X175887142Y-89795714D01*
X175839523Y-89890952D01*
X175791904Y-89938571D01*
X175696666Y-89986190D01*
X175315714Y-89986190D01*
X176839523Y-90462380D02*
X176268095Y-90462380D01*
X176553809Y-90462380D02*
X176553809Y-89462380D01*
X176458571Y-89605238D01*
X176363333Y-89700476D01*
X176268095Y-89748095D01*
X177696666Y-89462380D02*
X177506190Y-89462380D01*
X177410952Y-89510000D01*
X177363333Y-89557619D01*
X177268095Y-89700476D01*
X177220476Y-89890952D01*
X177220476Y-90271904D01*
X177268095Y-90367142D01*
X177315714Y-90414761D01*
X177410952Y-90462380D01*
X177601428Y-90462380D01*
X177696666Y-90414761D01*
X177744285Y-90367142D01*
X177791904Y-90271904D01*
X177791904Y-90033809D01*
X177744285Y-89938571D01*
X177696666Y-89890952D01*
X177601428Y-89843333D01*
X177410952Y-89843333D01*
X177315714Y-89890952D01*
X177268095Y-89938571D01*
X177220476Y-90033809D01*
%TO.C,R15*%
X160647142Y-88082380D02*
X160313809Y-87606190D01*
X160075714Y-88082380D02*
X160075714Y-87082380D01*
X160456666Y-87082380D01*
X160551904Y-87130000D01*
X160599523Y-87177619D01*
X160647142Y-87272857D01*
X160647142Y-87415714D01*
X160599523Y-87510952D01*
X160551904Y-87558571D01*
X160456666Y-87606190D01*
X160075714Y-87606190D01*
X161599523Y-88082380D02*
X161028095Y-88082380D01*
X161313809Y-88082380D02*
X161313809Y-87082380D01*
X161218571Y-87225238D01*
X161123333Y-87320476D01*
X161028095Y-87368095D01*
X162504285Y-87082380D02*
X162028095Y-87082380D01*
X161980476Y-87558571D01*
X162028095Y-87510952D01*
X162123333Y-87463333D01*
X162361428Y-87463333D01*
X162456666Y-87510952D01*
X162504285Y-87558571D01*
X162551904Y-87653809D01*
X162551904Y-87891904D01*
X162504285Y-87987142D01*
X162456666Y-88034761D01*
X162361428Y-88082380D01*
X162123333Y-88082380D01*
X162028095Y-88034761D01*
X161980476Y-87987142D01*
%TO.C,R14*%
X160647142Y-83002380D02*
X160313809Y-82526190D01*
X160075714Y-83002380D02*
X160075714Y-82002380D01*
X160456666Y-82002380D01*
X160551904Y-82050000D01*
X160599523Y-82097619D01*
X160647142Y-82192857D01*
X160647142Y-82335714D01*
X160599523Y-82430952D01*
X160551904Y-82478571D01*
X160456666Y-82526190D01*
X160075714Y-82526190D01*
X161599523Y-83002380D02*
X161028095Y-83002380D01*
X161313809Y-83002380D02*
X161313809Y-82002380D01*
X161218571Y-82145238D01*
X161123333Y-82240476D01*
X161028095Y-82288095D01*
X162456666Y-82335714D02*
X162456666Y-83002380D01*
X162218571Y-81954761D02*
X161980476Y-82669047D01*
X162599523Y-82669047D01*
%TO.C,R13*%
X160647142Y-77922380D02*
X160313809Y-77446190D01*
X160075714Y-77922380D02*
X160075714Y-76922380D01*
X160456666Y-76922380D01*
X160551904Y-76970000D01*
X160599523Y-77017619D01*
X160647142Y-77112857D01*
X160647142Y-77255714D01*
X160599523Y-77350952D01*
X160551904Y-77398571D01*
X160456666Y-77446190D01*
X160075714Y-77446190D01*
X161599523Y-77922380D02*
X161028095Y-77922380D01*
X161313809Y-77922380D02*
X161313809Y-76922380D01*
X161218571Y-77065238D01*
X161123333Y-77160476D01*
X161028095Y-77208095D01*
X161932857Y-76922380D02*
X162551904Y-76922380D01*
X162218571Y-77303333D01*
X162361428Y-77303333D01*
X162456666Y-77350952D01*
X162504285Y-77398571D01*
X162551904Y-77493809D01*
X162551904Y-77731904D01*
X162504285Y-77827142D01*
X162456666Y-77874761D01*
X162361428Y-77922380D01*
X162075714Y-77922380D01*
X161980476Y-77874761D01*
X161932857Y-77827142D01*
%TO.C,R12*%
X132707142Y-110942380D02*
X132373809Y-110466190D01*
X132135714Y-110942380D02*
X132135714Y-109942380D01*
X132516666Y-109942380D01*
X132611904Y-109990000D01*
X132659523Y-110037619D01*
X132707142Y-110132857D01*
X132707142Y-110275714D01*
X132659523Y-110370952D01*
X132611904Y-110418571D01*
X132516666Y-110466190D01*
X132135714Y-110466190D01*
X133659523Y-110942380D02*
X133088095Y-110942380D01*
X133373809Y-110942380D02*
X133373809Y-109942380D01*
X133278571Y-110085238D01*
X133183333Y-110180476D01*
X133088095Y-110228095D01*
X134040476Y-110037619D02*
X134088095Y-109990000D01*
X134183333Y-109942380D01*
X134421428Y-109942380D01*
X134516666Y-109990000D01*
X134564285Y-110037619D01*
X134611904Y-110132857D01*
X134611904Y-110228095D01*
X134564285Y-110370952D01*
X133992857Y-110942380D01*
X134611904Y-110942380D01*
%TO.C,R11*%
X132707142Y-118562380D02*
X132373809Y-118086190D01*
X132135714Y-118562380D02*
X132135714Y-117562380D01*
X132516666Y-117562380D01*
X132611904Y-117610000D01*
X132659523Y-117657619D01*
X132707142Y-117752857D01*
X132707142Y-117895714D01*
X132659523Y-117990952D01*
X132611904Y-118038571D01*
X132516666Y-118086190D01*
X132135714Y-118086190D01*
X133659523Y-118562380D02*
X133088095Y-118562380D01*
X133373809Y-118562380D02*
X133373809Y-117562380D01*
X133278571Y-117705238D01*
X133183333Y-117800476D01*
X133088095Y-117848095D01*
X134611904Y-118562380D02*
X134040476Y-118562380D01*
X134326190Y-118562380D02*
X134326190Y-117562380D01*
X134230952Y-117705238D01*
X134135714Y-117800476D01*
X134040476Y-117848095D01*
%TO.C,R10*%
X132707142Y-123642380D02*
X132373809Y-123166190D01*
X132135714Y-123642380D02*
X132135714Y-122642380D01*
X132516666Y-122642380D01*
X132611904Y-122690000D01*
X132659523Y-122737619D01*
X132707142Y-122832857D01*
X132707142Y-122975714D01*
X132659523Y-123070952D01*
X132611904Y-123118571D01*
X132516666Y-123166190D01*
X132135714Y-123166190D01*
X133659523Y-123642380D02*
X133088095Y-123642380D01*
X133373809Y-123642380D02*
X133373809Y-122642380D01*
X133278571Y-122785238D01*
X133183333Y-122880476D01*
X133088095Y-122928095D01*
X134278571Y-122642380D02*
X134373809Y-122642380D01*
X134469047Y-122690000D01*
X134516666Y-122737619D01*
X134564285Y-122832857D01*
X134611904Y-123023333D01*
X134611904Y-123261428D01*
X134564285Y-123451904D01*
X134516666Y-123547142D01*
X134469047Y-123594761D01*
X134373809Y-123642380D01*
X134278571Y-123642380D01*
X134183333Y-123594761D01*
X134135714Y-123547142D01*
X134088095Y-123451904D01*
X134040476Y-123261428D01*
X134040476Y-123023333D01*
X134088095Y-122832857D01*
X134135714Y-122737619D01*
X134183333Y-122690000D01*
X134278571Y-122642380D01*
%TO.C,R9*%
X117943333Y-120942380D02*
X117610000Y-120466190D01*
X117371904Y-120942380D02*
X117371904Y-119942380D01*
X117752857Y-119942380D01*
X117848095Y-119990000D01*
X117895714Y-120037619D01*
X117943333Y-120132857D01*
X117943333Y-120275714D01*
X117895714Y-120370952D01*
X117848095Y-120418571D01*
X117752857Y-120466190D01*
X117371904Y-120466190D01*
X118419523Y-120942380D02*
X118610000Y-120942380D01*
X118705238Y-120894761D01*
X118752857Y-120847142D01*
X118848095Y-120704285D01*
X118895714Y-120513809D01*
X118895714Y-120132857D01*
X118848095Y-120037619D01*
X118800476Y-119990000D01*
X118705238Y-119942380D01*
X118514761Y-119942380D01*
X118419523Y-119990000D01*
X118371904Y-120037619D01*
X118324285Y-120132857D01*
X118324285Y-120370952D01*
X118371904Y-120466190D01*
X118419523Y-120513809D01*
X118514761Y-120561428D01*
X118705238Y-120561428D01*
X118800476Y-120513809D01*
X118848095Y-120466190D01*
X118895714Y-120370952D01*
%TO.C,R8*%
X117943333Y-115862380D02*
X117610000Y-115386190D01*
X117371904Y-115862380D02*
X117371904Y-114862380D01*
X117752857Y-114862380D01*
X117848095Y-114910000D01*
X117895714Y-114957619D01*
X117943333Y-115052857D01*
X117943333Y-115195714D01*
X117895714Y-115290952D01*
X117848095Y-115338571D01*
X117752857Y-115386190D01*
X117371904Y-115386190D01*
X118514761Y-115290952D02*
X118419523Y-115243333D01*
X118371904Y-115195714D01*
X118324285Y-115100476D01*
X118324285Y-115052857D01*
X118371904Y-114957619D01*
X118419523Y-114910000D01*
X118514761Y-114862380D01*
X118705238Y-114862380D01*
X118800476Y-114910000D01*
X118848095Y-114957619D01*
X118895714Y-115052857D01*
X118895714Y-115100476D01*
X118848095Y-115195714D01*
X118800476Y-115243333D01*
X118705238Y-115290952D01*
X118514761Y-115290952D01*
X118419523Y-115338571D01*
X118371904Y-115386190D01*
X118324285Y-115481428D01*
X118324285Y-115671904D01*
X118371904Y-115767142D01*
X118419523Y-115814761D01*
X118514761Y-115862380D01*
X118705238Y-115862380D01*
X118800476Y-115814761D01*
X118848095Y-115767142D01*
X118895714Y-115671904D01*
X118895714Y-115481428D01*
X118848095Y-115386190D01*
X118800476Y-115338571D01*
X118705238Y-115290952D01*
%TO.C,R7*%
X117943333Y-110782380D02*
X117610000Y-110306190D01*
X117371904Y-110782380D02*
X117371904Y-109782380D01*
X117752857Y-109782380D01*
X117848095Y-109830000D01*
X117895714Y-109877619D01*
X117943333Y-109972857D01*
X117943333Y-110115714D01*
X117895714Y-110210952D01*
X117848095Y-110258571D01*
X117752857Y-110306190D01*
X117371904Y-110306190D01*
X118276666Y-109782380D02*
X118943333Y-109782380D01*
X118514761Y-110782380D01*
%TO.C,R6*%
X133183333Y-80462380D02*
X132850000Y-79986190D01*
X132611904Y-80462380D02*
X132611904Y-79462380D01*
X132992857Y-79462380D01*
X133088095Y-79510000D01*
X133135714Y-79557619D01*
X133183333Y-79652857D01*
X133183333Y-79795714D01*
X133135714Y-79890952D01*
X133088095Y-79938571D01*
X132992857Y-79986190D01*
X132611904Y-79986190D01*
X134040476Y-79462380D02*
X133850000Y-79462380D01*
X133754761Y-79510000D01*
X133707142Y-79557619D01*
X133611904Y-79700476D01*
X133564285Y-79890952D01*
X133564285Y-80271904D01*
X133611904Y-80367142D01*
X133659523Y-80414761D01*
X133754761Y-80462380D01*
X133945238Y-80462380D01*
X134040476Y-80414761D01*
X134088095Y-80367142D01*
X134135714Y-80271904D01*
X134135714Y-80033809D01*
X134088095Y-79938571D01*
X134040476Y-79890952D01*
X133945238Y-79843333D01*
X133754761Y-79843333D01*
X133659523Y-79890952D01*
X133611904Y-79938571D01*
X133564285Y-80033809D01*
%TO.C,R5*%
X133183333Y-88082380D02*
X132850000Y-87606190D01*
X132611904Y-88082380D02*
X132611904Y-87082380D01*
X132992857Y-87082380D01*
X133088095Y-87130000D01*
X133135714Y-87177619D01*
X133183333Y-87272857D01*
X133183333Y-87415714D01*
X133135714Y-87510952D01*
X133088095Y-87558571D01*
X132992857Y-87606190D01*
X132611904Y-87606190D01*
X134088095Y-87082380D02*
X133611904Y-87082380D01*
X133564285Y-87558571D01*
X133611904Y-87510952D01*
X133707142Y-87463333D01*
X133945238Y-87463333D01*
X134040476Y-87510952D01*
X134088095Y-87558571D01*
X134135714Y-87653809D01*
X134135714Y-87891904D01*
X134088095Y-87987142D01*
X134040476Y-88034761D01*
X133945238Y-88082380D01*
X133707142Y-88082380D01*
X133611904Y-88034761D01*
X133564285Y-87987142D01*
%TO.C,R4*%
X133183333Y-93162380D02*
X132850000Y-92686190D01*
X132611904Y-93162380D02*
X132611904Y-92162380D01*
X132992857Y-92162380D01*
X133088095Y-92210000D01*
X133135714Y-92257619D01*
X133183333Y-92352857D01*
X133183333Y-92495714D01*
X133135714Y-92590952D01*
X133088095Y-92638571D01*
X132992857Y-92686190D01*
X132611904Y-92686190D01*
X134040476Y-92495714D02*
X134040476Y-93162380D01*
X133802380Y-92114761D02*
X133564285Y-92829047D01*
X134183333Y-92829047D01*
%TO.C,R3*%
X117943333Y-90462380D02*
X117610000Y-89986190D01*
X117371904Y-90462380D02*
X117371904Y-89462380D01*
X117752857Y-89462380D01*
X117848095Y-89510000D01*
X117895714Y-89557619D01*
X117943333Y-89652857D01*
X117943333Y-89795714D01*
X117895714Y-89890952D01*
X117848095Y-89938571D01*
X117752857Y-89986190D01*
X117371904Y-89986190D01*
X118276666Y-89462380D02*
X118895714Y-89462380D01*
X118562380Y-89843333D01*
X118705238Y-89843333D01*
X118800476Y-89890952D01*
X118848095Y-89938571D01*
X118895714Y-90033809D01*
X118895714Y-90271904D01*
X118848095Y-90367142D01*
X118800476Y-90414761D01*
X118705238Y-90462380D01*
X118419523Y-90462380D01*
X118324285Y-90414761D01*
X118276666Y-90367142D01*
%TO.C,R2*%
X117943333Y-85382380D02*
X117610000Y-84906190D01*
X117371904Y-85382380D02*
X117371904Y-84382380D01*
X117752857Y-84382380D01*
X117848095Y-84430000D01*
X117895714Y-84477619D01*
X117943333Y-84572857D01*
X117943333Y-84715714D01*
X117895714Y-84810952D01*
X117848095Y-84858571D01*
X117752857Y-84906190D01*
X117371904Y-84906190D01*
X118324285Y-84477619D02*
X118371904Y-84430000D01*
X118467142Y-84382380D01*
X118705238Y-84382380D01*
X118800476Y-84430000D01*
X118848095Y-84477619D01*
X118895714Y-84572857D01*
X118895714Y-84668095D01*
X118848095Y-84810952D01*
X118276666Y-85382380D01*
X118895714Y-85382380D01*
%TO.C,R1*%
X117943333Y-80302380D02*
X117610000Y-79826190D01*
X117371904Y-80302380D02*
X117371904Y-79302380D01*
X117752857Y-79302380D01*
X117848095Y-79350000D01*
X117895714Y-79397619D01*
X117943333Y-79492857D01*
X117943333Y-79635714D01*
X117895714Y-79730952D01*
X117848095Y-79778571D01*
X117752857Y-79826190D01*
X117371904Y-79826190D01*
X118895714Y-80302380D02*
X118324285Y-80302380D01*
X118610000Y-80302380D02*
X118610000Y-79302380D01*
X118514761Y-79445238D01*
X118419523Y-79540476D01*
X118324285Y-79588095D01*
%TO.C,C7*%
X184845833Y-103227142D02*
X184798214Y-103274761D01*
X184655357Y-103322380D01*
X184560119Y-103322380D01*
X184417261Y-103274761D01*
X184322023Y-103179523D01*
X184274404Y-103084285D01*
X184226785Y-102893809D01*
X184226785Y-102750952D01*
X184274404Y-102560476D01*
X184322023Y-102465238D01*
X184417261Y-102370000D01*
X184560119Y-102322380D01*
X184655357Y-102322380D01*
X184798214Y-102370000D01*
X184845833Y-102417619D01*
X185179166Y-102322380D02*
X185845833Y-102322380D01*
X185417261Y-103322380D01*
%TO.C,C6*%
X165795833Y-103227142D02*
X165748214Y-103274761D01*
X165605357Y-103322380D01*
X165510119Y-103322380D01*
X165367261Y-103274761D01*
X165272023Y-103179523D01*
X165224404Y-103084285D01*
X165176785Y-102893809D01*
X165176785Y-102750952D01*
X165224404Y-102560476D01*
X165272023Y-102465238D01*
X165367261Y-102370000D01*
X165510119Y-102322380D01*
X165605357Y-102322380D01*
X165748214Y-102370000D01*
X165795833Y-102417619D01*
X166652976Y-102322380D02*
X166462500Y-102322380D01*
X166367261Y-102370000D01*
X166319642Y-102417619D01*
X166224404Y-102560476D01*
X166176785Y-102750952D01*
X166176785Y-103131904D01*
X166224404Y-103227142D01*
X166272023Y-103274761D01*
X166367261Y-103322380D01*
X166557738Y-103322380D01*
X166652976Y-103274761D01*
X166700595Y-103227142D01*
X166748214Y-103131904D01*
X166748214Y-102893809D01*
X166700595Y-102798571D01*
X166652976Y-102750952D01*
X166557738Y-102703333D01*
X166367261Y-102703333D01*
X166272023Y-102750952D01*
X166224404Y-102798571D01*
X166176785Y-102893809D01*
%TO.C,C5*%
X184699566Y-72747142D02*
X184651947Y-72794761D01*
X184509090Y-72842380D01*
X184413852Y-72842380D01*
X184270994Y-72794761D01*
X184175756Y-72699523D01*
X184128137Y-72604285D01*
X184080518Y-72413809D01*
X184080518Y-72270952D01*
X184128137Y-72080476D01*
X184175756Y-71985238D01*
X184270994Y-71890000D01*
X184413852Y-71842380D01*
X184509090Y-71842380D01*
X184651947Y-71890000D01*
X184699566Y-71937619D01*
X185604328Y-71842380D02*
X185128137Y-71842380D01*
X185080518Y-72318571D01*
X185128137Y-72270952D01*
X185223375Y-72223333D01*
X185461471Y-72223333D01*
X185556709Y-72270952D01*
X185604328Y-72318571D01*
X185651947Y-72413809D01*
X185651947Y-72651904D01*
X185604328Y-72747142D01*
X185556709Y-72794761D01*
X185461471Y-72842380D01*
X185223375Y-72842380D01*
X185128137Y-72794761D01*
X185080518Y-72747142D01*
%TO.C,C4*%
X165795833Y-72747142D02*
X165748214Y-72794761D01*
X165605357Y-72842380D01*
X165510119Y-72842380D01*
X165367261Y-72794761D01*
X165272023Y-72699523D01*
X165224404Y-72604285D01*
X165176785Y-72413809D01*
X165176785Y-72270952D01*
X165224404Y-72080476D01*
X165272023Y-71985238D01*
X165367261Y-71890000D01*
X165510119Y-71842380D01*
X165605357Y-71842380D01*
X165748214Y-71890000D01*
X165795833Y-71937619D01*
X166652976Y-72175714D02*
X166652976Y-72842380D01*
X166414880Y-71794761D02*
X166176785Y-72509047D01*
X166795833Y-72509047D01*
%TO.C,C3*%
X122615833Y-103227142D02*
X122568214Y-103274761D01*
X122425357Y-103322380D01*
X122330119Y-103322380D01*
X122187261Y-103274761D01*
X122092023Y-103179523D01*
X122044404Y-103084285D01*
X121996785Y-102893809D01*
X121996785Y-102750952D01*
X122044404Y-102560476D01*
X122092023Y-102465238D01*
X122187261Y-102370000D01*
X122330119Y-102322380D01*
X122425357Y-102322380D01*
X122568214Y-102370000D01*
X122615833Y-102417619D01*
X122949166Y-102322380D02*
X123568214Y-102322380D01*
X123234880Y-102703333D01*
X123377738Y-102703333D01*
X123472976Y-102750952D01*
X123520595Y-102798571D01*
X123568214Y-102893809D01*
X123568214Y-103131904D01*
X123520595Y-103227142D01*
X123472976Y-103274761D01*
X123377738Y-103322380D01*
X123092023Y-103322380D01*
X122996785Y-103274761D01*
X122949166Y-103227142D01*
%TO.C,C2*%
X122615833Y-72747142D02*
X122568214Y-72794761D01*
X122425357Y-72842380D01*
X122330119Y-72842380D01*
X122187261Y-72794761D01*
X122092023Y-72699523D01*
X122044404Y-72604285D01*
X121996785Y-72413809D01*
X121996785Y-72270952D01*
X122044404Y-72080476D01*
X122092023Y-71985238D01*
X122187261Y-71890000D01*
X122330119Y-71842380D01*
X122425357Y-71842380D01*
X122568214Y-71890000D01*
X122615833Y-71937619D01*
X122996785Y-71937619D02*
X123044404Y-71890000D01*
X123139642Y-71842380D01*
X123377738Y-71842380D01*
X123472976Y-71890000D01*
X123520595Y-71937619D01*
X123568214Y-72032857D01*
X123568214Y-72128095D01*
X123520595Y-72270952D01*
X122949166Y-72842380D01*
X123568214Y-72842380D01*
%TO.C,U7*%
X187183095Y-103802380D02*
X187183095Y-104611904D01*
X187230714Y-104707142D01*
X187278333Y-104754761D01*
X187373571Y-104802380D01*
X187564047Y-104802380D01*
X187659285Y-104754761D01*
X187706904Y-104707142D01*
X187754523Y-104611904D01*
X187754523Y-103802380D01*
X188135476Y-103802380D02*
X188802142Y-103802380D01*
X188373571Y-104802380D01*
%TO.C,U6*%
X168133095Y-103802380D02*
X168133095Y-104611904D01*
X168180714Y-104707142D01*
X168228333Y-104754761D01*
X168323571Y-104802380D01*
X168514047Y-104802380D01*
X168609285Y-104754761D01*
X168656904Y-104707142D01*
X168704523Y-104611904D01*
X168704523Y-103802380D01*
X169609285Y-103802380D02*
X169418809Y-103802380D01*
X169323571Y-103850000D01*
X169275952Y-103897619D01*
X169180714Y-104040476D01*
X169133095Y-104230952D01*
X169133095Y-104611904D01*
X169180714Y-104707142D01*
X169228333Y-104754761D01*
X169323571Y-104802380D01*
X169514047Y-104802380D01*
X169609285Y-104754761D01*
X169656904Y-104707142D01*
X169704523Y-104611904D01*
X169704523Y-104373809D01*
X169656904Y-104278571D01*
X169609285Y-104230952D01*
X169514047Y-104183333D01*
X169323571Y-104183333D01*
X169228333Y-104230952D01*
X169180714Y-104278571D01*
X169133095Y-104373809D01*
%TO.C,U5*%
X187168095Y-73337380D02*
X187168095Y-74146904D01*
X187215714Y-74242142D01*
X187263333Y-74289761D01*
X187358571Y-74337380D01*
X187549047Y-74337380D01*
X187644285Y-74289761D01*
X187691904Y-74242142D01*
X187739523Y-74146904D01*
X187739523Y-73337380D01*
X188691904Y-73337380D02*
X188215714Y-73337380D01*
X188168095Y-73813571D01*
X188215714Y-73765952D01*
X188310952Y-73718333D01*
X188549047Y-73718333D01*
X188644285Y-73765952D01*
X188691904Y-73813571D01*
X188739523Y-73908809D01*
X188739523Y-74146904D01*
X188691904Y-74242142D01*
X188644285Y-74289761D01*
X188549047Y-74337380D01*
X188310952Y-74337380D01*
X188215714Y-74289761D01*
X188168095Y-74242142D01*
%TO.C,U4*%
X168133095Y-73337380D02*
X168133095Y-74146904D01*
X168180714Y-74242142D01*
X168228333Y-74289761D01*
X168323571Y-74337380D01*
X168514047Y-74337380D01*
X168609285Y-74289761D01*
X168656904Y-74242142D01*
X168704523Y-74146904D01*
X168704523Y-73337380D01*
X169609285Y-73670714D02*
X169609285Y-74337380D01*
X169371190Y-73289761D02*
X169133095Y-74004047D01*
X169752142Y-74004047D01*
%TO.C,U3*%
X124953095Y-103817380D02*
X124953095Y-104626904D01*
X125000714Y-104722142D01*
X125048333Y-104769761D01*
X125143571Y-104817380D01*
X125334047Y-104817380D01*
X125429285Y-104769761D01*
X125476904Y-104722142D01*
X125524523Y-104626904D01*
X125524523Y-103817380D01*
X125905476Y-103817380D02*
X126524523Y-103817380D01*
X126191190Y-104198333D01*
X126334047Y-104198333D01*
X126429285Y-104245952D01*
X126476904Y-104293571D01*
X126524523Y-104388809D01*
X126524523Y-104626904D01*
X126476904Y-104722142D01*
X126429285Y-104769761D01*
X126334047Y-104817380D01*
X126048333Y-104817380D01*
X125953095Y-104769761D01*
X125905476Y-104722142D01*
%TO.C,U2*%
X124968095Y-73322380D02*
X124968095Y-74131904D01*
X125015714Y-74227142D01*
X125063333Y-74274761D01*
X125158571Y-74322380D01*
X125349047Y-74322380D01*
X125444285Y-74274761D01*
X125491904Y-74227142D01*
X125539523Y-74131904D01*
X125539523Y-73322380D01*
X125968095Y-73417619D02*
X126015714Y-73370000D01*
X126110952Y-73322380D01*
X126349047Y-73322380D01*
X126444285Y-73370000D01*
X126491904Y-73417619D01*
X126539523Y-73512857D01*
X126539523Y-73608095D01*
X126491904Y-73750952D01*
X125920476Y-74322380D01*
X126539523Y-74322380D01*
%TO.C,J3*%
X112166666Y-66972380D02*
X112166666Y-67686666D01*
X112119047Y-67829523D01*
X112023809Y-67924761D01*
X111880952Y-67972380D01*
X111785714Y-67972380D01*
X112547619Y-66972380D02*
X113166666Y-66972380D01*
X112833333Y-67353333D01*
X112976190Y-67353333D01*
X113071428Y-67400952D01*
X113119047Y-67448571D01*
X113166666Y-67543809D01*
X113166666Y-67781904D01*
X113119047Y-67877142D01*
X113071428Y-67924761D01*
X112976190Y-67972380D01*
X112690476Y-67972380D01*
X112595238Y-67924761D01*
X112547619Y-67877142D01*
%TO.C,J2*%
X102561666Y-110997380D02*
X102561666Y-111711666D01*
X102514047Y-111854523D01*
X102418809Y-111949761D01*
X102275952Y-111997380D01*
X102180714Y-111997380D01*
X102990238Y-111092619D02*
X103037857Y-111045000D01*
X103133095Y-110997380D01*
X103371190Y-110997380D01*
X103466428Y-111045000D01*
X103514047Y-111092619D01*
X103561666Y-111187857D01*
X103561666Y-111283095D01*
X103514047Y-111425952D01*
X102942619Y-111997380D01*
X103561666Y-111997380D01*
%TO.C,J1*%
X102561666Y-76072380D02*
X102561666Y-76786666D01*
X102514047Y-76929523D01*
X102418809Y-77024761D01*
X102275952Y-77072380D01*
X102180714Y-77072380D01*
X103561666Y-77072380D02*
X102990238Y-77072380D01*
X103275952Y-77072380D02*
X103275952Y-76072380D01*
X103180714Y-76215238D01*
X103085476Y-76310476D01*
X102990238Y-76358095D01*
%TO.C,U1*%
X149088095Y-68252380D02*
X149088095Y-69061904D01*
X149135714Y-69157142D01*
X149183333Y-69204761D01*
X149278571Y-69252380D01*
X149469047Y-69252380D01*
X149564285Y-69204761D01*
X149611904Y-69157142D01*
X149659523Y-69061904D01*
X149659523Y-68252380D01*
X150659523Y-69252380D02*
X150088095Y-69252380D01*
X150373809Y-69252380D02*
X150373809Y-68252380D01*
X150278571Y-68395238D01*
X150183333Y-68490476D01*
X150088095Y-68538095D01*
D11*
%TO.C,J5*%
X117795000Y-132500000D02*
X148605000Y-132500000D01*
X117795000Y-132500000D02*
X117795000Y-148930000D01*
X117795000Y-148930000D02*
X148605000Y-148930000D01*
X148605000Y-132500000D02*
X148605000Y-148930000D01*
%TO.C,J4*%
X151495000Y-132450000D02*
X182305000Y-132450000D01*
X151495000Y-132450000D02*
X151495000Y-148880000D01*
X151495000Y-148880000D02*
X182305000Y-148880000D01*
X182305000Y-132450000D02*
X182305000Y-148880000D01*
%TO.C,R36*%
X195325276Y-108697500D02*
X195834724Y-108697500D01*
X195325276Y-109742500D02*
X195834724Y-109742500D01*
%TO.C,R35*%
X195325276Y-116317500D02*
X195834724Y-116317500D01*
X195325276Y-117362500D02*
X195834724Y-117362500D01*
%TO.C,R34*%
X195325276Y-121397500D02*
X195834724Y-121397500D01*
X195325276Y-122442500D02*
X195834724Y-122442500D01*
%TO.C,R33*%
X180594724Y-119902500D02*
X180085276Y-119902500D01*
X180594724Y-118857500D02*
X180085276Y-118857500D01*
%TO.C,R32*%
X180594724Y-114822500D02*
X180085276Y-114822500D01*
X180594724Y-113777500D02*
X180085276Y-113777500D01*
%TO.C,R31*%
X180594724Y-109742500D02*
X180085276Y-109742500D01*
X180594724Y-108697500D02*
X180085276Y-108697500D01*
%TO.C,R30*%
X176275276Y-108697500D02*
X176784724Y-108697500D01*
X176275276Y-109742500D02*
X176784724Y-109742500D01*
%TO.C,R29*%
X176275276Y-116317500D02*
X176784724Y-116317500D01*
X176275276Y-117362500D02*
X176784724Y-117362500D01*
%TO.C,R28*%
X176275276Y-121397500D02*
X176784724Y-121397500D01*
X176275276Y-122442500D02*
X176784724Y-122442500D01*
%TO.C,R27*%
X161544724Y-119902500D02*
X161035276Y-119902500D01*
X161544724Y-118857500D02*
X161035276Y-118857500D01*
%TO.C,R26*%
X161544724Y-114822500D02*
X161035276Y-114822500D01*
X161544724Y-113777500D02*
X161035276Y-113777500D01*
%TO.C,R25*%
X161544724Y-109742500D02*
X161035276Y-109742500D01*
X161544724Y-108697500D02*
X161035276Y-108697500D01*
%TO.C,R24*%
X195325276Y-78217500D02*
X195834724Y-78217500D01*
X195325276Y-79262500D02*
X195834724Y-79262500D01*
%TO.C,R23*%
X195325276Y-85837500D02*
X195834724Y-85837500D01*
X195325276Y-86882500D02*
X195834724Y-86882500D01*
%TO.C,R22*%
X195325276Y-90917500D02*
X195834724Y-90917500D01*
X195325276Y-91962500D02*
X195834724Y-91962500D01*
%TO.C,R21*%
X180594724Y-89422500D02*
X180085276Y-89422500D01*
X180594724Y-88377500D02*
X180085276Y-88377500D01*
%TO.C,R20*%
X180594724Y-84342500D02*
X180085276Y-84342500D01*
X180594724Y-83297500D02*
X180085276Y-83297500D01*
%TO.C,R19*%
X180594724Y-79262500D02*
X180085276Y-79262500D01*
X180594724Y-78217500D02*
X180085276Y-78217500D01*
%TO.C,R18*%
X176275276Y-78217500D02*
X176784724Y-78217500D01*
X176275276Y-79262500D02*
X176784724Y-79262500D01*
%TO.C,R17*%
X176275276Y-85837500D02*
X176784724Y-85837500D01*
X176275276Y-86882500D02*
X176784724Y-86882500D01*
%TO.C,R16*%
X176275276Y-90917500D02*
X176784724Y-90917500D01*
X176275276Y-91962500D02*
X176784724Y-91962500D01*
%TO.C,R15*%
X161544724Y-89422500D02*
X161035276Y-89422500D01*
X161544724Y-88377500D02*
X161035276Y-88377500D01*
%TO.C,R14*%
X161544724Y-84342500D02*
X161035276Y-84342500D01*
X161544724Y-83297500D02*
X161035276Y-83297500D01*
%TO.C,R13*%
X161544724Y-79262500D02*
X161035276Y-79262500D01*
X161544724Y-78217500D02*
X161035276Y-78217500D01*
%TO.C,R12*%
X133604724Y-112282500D02*
X133095276Y-112282500D01*
X133604724Y-111237500D02*
X133095276Y-111237500D01*
%TO.C,R11*%
X133604724Y-119902500D02*
X133095276Y-119902500D01*
X133604724Y-118857500D02*
X133095276Y-118857500D01*
%TO.C,R10*%
X133604724Y-124982500D02*
X133095276Y-124982500D01*
X133604724Y-123937500D02*
X133095276Y-123937500D01*
%TO.C,R9*%
X117855276Y-121397500D02*
X118364724Y-121397500D01*
X117855276Y-122442500D02*
X118364724Y-122442500D01*
%TO.C,R8*%
X117855276Y-116317500D02*
X118364724Y-116317500D01*
X117855276Y-117362500D02*
X118364724Y-117362500D01*
%TO.C,R7*%
X117855276Y-111237500D02*
X118364724Y-111237500D01*
X117855276Y-112282500D02*
X118364724Y-112282500D01*
%TO.C,R6*%
X133604724Y-81802500D02*
X133095276Y-81802500D01*
X133604724Y-80757500D02*
X133095276Y-80757500D01*
%TO.C,R5*%
X133604724Y-89422500D02*
X133095276Y-89422500D01*
X133604724Y-88377500D02*
X133095276Y-88377500D01*
%TO.C,R4*%
X133604724Y-94502500D02*
X133095276Y-94502500D01*
X133604724Y-93457500D02*
X133095276Y-93457500D01*
%TO.C,R3*%
X117855276Y-90917500D02*
X118364724Y-90917500D01*
X117855276Y-91962500D02*
X118364724Y-91962500D01*
%TO.C,R2*%
X117855276Y-85837500D02*
X118364724Y-85837500D01*
X117855276Y-86882500D02*
X118364724Y-86882500D01*
%TO.C,R1*%
X117855276Y-80757500D02*
X118364724Y-80757500D01*
X117855276Y-81802500D02*
X118364724Y-81802500D01*
%TO.C,C7*%
X185158767Y-104650000D02*
X184866233Y-104650000D01*
X185158767Y-103630000D02*
X184866233Y-103630000D01*
%TO.C,C6*%
X166108767Y-104650000D02*
X165816233Y-104650000D01*
X166108767Y-103630000D02*
X165816233Y-103630000D01*
%TO.C,C5*%
X185158767Y-74170000D02*
X184866233Y-74170000D01*
X185158767Y-73150000D02*
X184866233Y-73150000D01*
%TO.C,C4*%
X166108767Y-74170000D02*
X165816233Y-74170000D01*
X166108767Y-73150000D02*
X165816233Y-73150000D01*
%TO.C,C3*%
X122928767Y-104650000D02*
X122636233Y-104650000D01*
X122928767Y-103630000D02*
X122636233Y-103630000D01*
%TO.C,C2*%
X122928767Y-74170000D02*
X122636233Y-74170000D01*
X122928767Y-73150000D02*
X122636233Y-73150000D01*
%TO.C,U7*%
X190195000Y-105350000D02*
X188945000Y-105350000D01*
X185695000Y-105350000D02*
X185695000Y-125790000D01*
X190195000Y-125790000D02*
X190195000Y-105350000D01*
X186945000Y-105350000D02*
X185695000Y-105350000D01*
X185695000Y-125790000D02*
X190195000Y-125790000D01*
X186945000Y-105350000D02*
G75*
G03*
X188945000Y-105350000I1000000J0D01*
G01*
%TO.C,U6*%
X171145000Y-105350000D02*
X169895000Y-105350000D01*
X166645000Y-105350000D02*
X166645000Y-125790000D01*
X171145000Y-125790000D02*
X171145000Y-105350000D01*
X167895000Y-105350000D02*
X166645000Y-105350000D01*
X166645000Y-125790000D02*
X171145000Y-125790000D01*
X167895000Y-105350000D02*
G75*
G03*
X169895000Y-105350000I1000000J0D01*
G01*
%TO.C,U5*%
X190180000Y-74885000D02*
X188930000Y-74885000D01*
X185680000Y-74885000D02*
X185680000Y-95325000D01*
X190180000Y-95325000D02*
X190180000Y-74885000D01*
X186930000Y-74885000D02*
X185680000Y-74885000D01*
X185680000Y-95325000D02*
X190180000Y-95325000D01*
X186930000Y-74885000D02*
G75*
G03*
X188930000Y-74885000I1000000J0D01*
G01*
%TO.C,U4*%
X171145000Y-74885000D02*
X169895000Y-74885000D01*
X166645000Y-74885000D02*
X166645000Y-95325000D01*
X171145000Y-95325000D02*
X171145000Y-74885000D01*
X167895000Y-74885000D02*
X166645000Y-74885000D01*
X166645000Y-95325000D02*
X171145000Y-95325000D01*
X167895000Y-74885000D02*
G75*
G03*
X169895000Y-74885000I1000000J0D01*
G01*
%TO.C,U3*%
X127965000Y-105365000D02*
X126715000Y-105365000D01*
X123465000Y-105365000D02*
X123465000Y-125805000D01*
X127965000Y-125805000D02*
X127965000Y-105365000D01*
X124715000Y-105365000D02*
X123465000Y-105365000D01*
X123465000Y-125805000D02*
X127965000Y-125805000D01*
X124715000Y-105365000D02*
G75*
G03*
X126715000Y-105365000I1000000J0D01*
G01*
%TO.C,U2*%
X127980000Y-74870000D02*
X126730000Y-74870000D01*
X123480000Y-74870000D02*
X123480000Y-95310000D01*
X127980000Y-95310000D02*
X127980000Y-74870000D01*
X124730000Y-74870000D02*
X123480000Y-74870000D01*
X123480000Y-95310000D02*
X127980000Y-95310000D01*
X124730000Y-74870000D02*
G75*
G03*
X126730000Y-74870000I1000000J0D01*
G01*
%TO.C,J3*%
X111170000Y-132140000D02*
X113830000Y-132140000D01*
X111170000Y-71120000D02*
X111170000Y-132140000D01*
X111170000Y-69850000D02*
X111170000Y-68520000D01*
X111170000Y-68520000D02*
X112500000Y-68520000D01*
X111170000Y-71120000D02*
X113830000Y-71120000D01*
X113830000Y-71120000D02*
X113830000Y-132140000D01*
%TO.C,J2*%
X101565000Y-114315000D02*
X101565000Y-125805000D01*
X104225000Y-114315000D02*
X104225000Y-125805000D01*
X103202530Y-125805000D02*
X104225000Y-125805000D01*
X101565000Y-125805000D02*
X102587470Y-125805000D01*
X101565000Y-114315000D02*
X102135000Y-114315000D01*
X103655000Y-114315000D02*
X104225000Y-114315000D01*
X102895000Y-112920000D02*
X104225000Y-112920000D01*
X104225000Y-112920000D02*
X104225000Y-113680000D01*
%TO.C,J1*%
X103202530Y-97230000D02*
X104225000Y-97230000D01*
X101565000Y-79390000D02*
X101565000Y-97230000D01*
X103655000Y-79390000D02*
X104225000Y-79390000D01*
X101565000Y-79390000D02*
X102135000Y-79390000D01*
X104225000Y-77995000D02*
X104225000Y-78755000D01*
X104225000Y-79390000D02*
X104225000Y-97230000D01*
X101565000Y-97230000D02*
X102587470Y-97230000D01*
X102895000Y-77995000D02*
X104225000Y-77995000D01*
%TO.C,U1*%
X155920000Y-130870000D02*
X155920000Y-69790000D01*
X150860000Y-130870000D02*
X155920000Y-130870000D01*
X143800000Y-69790000D02*
X143800000Y-130870000D01*
X155920000Y-69790000D02*
X143800000Y-69790000D01*
X143800000Y-130870000D02*
X148860000Y-130870000D01*
X150860000Y-130870000D02*
G75*
G03*
X148860000Y-130870000I-1000000J0D01*
G01*
%TD*%
%LPC*%
D12*
%TO.C,J5*%
X145695166Y-137481254D03*
X120705166Y-137454731D03*
D13*
X138041500Y-134945337D03*
X135751500Y-134945337D03*
X133461500Y-134960000D03*
X131171500Y-134960000D03*
X128881500Y-134960000D03*
X139186500Y-137447244D03*
X136896500Y-137462593D03*
X134606500Y-137477943D03*
X132316500Y-137493292D03*
X130026500Y-137500000D03*
X138030166Y-140040000D03*
X135740166Y-140040000D03*
X133450166Y-140040000D03*
X131160166Y-140040000D03*
X128881500Y-140040000D03*
%TD*%
D12*
%TO.C,J4*%
X179395166Y-137431254D03*
X154405166Y-137404731D03*
D13*
X171741500Y-134895337D03*
X169451500Y-134895337D03*
X167161500Y-134910000D03*
X164871500Y-134910000D03*
X162581500Y-134910000D03*
X172886500Y-137397244D03*
X170596500Y-137412593D03*
X168306500Y-137427943D03*
X166016500Y-137443292D03*
X163726500Y-137450000D03*
X171730166Y-139990000D03*
X169440166Y-139990000D03*
X167150166Y-139990000D03*
X164860166Y-139990000D03*
X162581500Y-139990000D03*
%TD*%
D14*
%TO.C,R36*%
X194667500Y-109220000D03*
X196492500Y-109220000D03*
%TD*%
%TO.C,R35*%
X194667500Y-116840000D03*
X196492500Y-116840000D03*
%TD*%
%TO.C,R34*%
X194667500Y-121920000D03*
X196492500Y-121920000D03*
%TD*%
D15*
%TO.C,R33*%
X181252500Y-119380000D03*
X179427500Y-119380000D03*
%TD*%
%TO.C,R32*%
X181252500Y-114300000D03*
X179427500Y-114300000D03*
%TD*%
%TO.C,R31*%
X181252500Y-109220000D03*
X179427500Y-109220000D03*
%TD*%
D14*
%TO.C,R30*%
X175617500Y-109220000D03*
X177442500Y-109220000D03*
%TD*%
%TO.C,R29*%
X175617500Y-116840000D03*
X177442500Y-116840000D03*
%TD*%
%TO.C,R28*%
X175617500Y-121920000D03*
X177442500Y-121920000D03*
%TD*%
D15*
%TO.C,R27*%
X162202500Y-119380000D03*
X160377500Y-119380000D03*
%TD*%
%TO.C,R26*%
X162202500Y-114300000D03*
X160377500Y-114300000D03*
%TD*%
%TO.C,R25*%
X162202500Y-109220000D03*
X160377500Y-109220000D03*
%TD*%
D14*
%TO.C,R24*%
X194667500Y-78740000D03*
X196492500Y-78740000D03*
%TD*%
%TO.C,R23*%
X194667500Y-86360000D03*
X196492500Y-86360000D03*
%TD*%
%TO.C,R22*%
X194667500Y-91440000D03*
X196492500Y-91440000D03*
%TD*%
D15*
%TO.C,R21*%
X181252500Y-88900000D03*
X179427500Y-88900000D03*
%TD*%
%TO.C,R20*%
X181252500Y-83820000D03*
X179427500Y-83820000D03*
%TD*%
%TO.C,R19*%
X181252500Y-78740000D03*
X179427500Y-78740000D03*
%TD*%
D14*
%TO.C,R18*%
X175617500Y-78740000D03*
X177442500Y-78740000D03*
%TD*%
%TO.C,R17*%
X175617500Y-86360000D03*
X177442500Y-86360000D03*
%TD*%
%TO.C,R16*%
X175617500Y-91440000D03*
X177442500Y-91440000D03*
%TD*%
D15*
%TO.C,R15*%
X162202500Y-88900000D03*
X160377500Y-88900000D03*
%TD*%
%TO.C,R14*%
X162202500Y-83820000D03*
X160377500Y-83820000D03*
%TD*%
%TO.C,R13*%
X162202500Y-78740000D03*
X160377500Y-78740000D03*
%TD*%
%TO.C,R12*%
X134262500Y-111760000D03*
X132437500Y-111760000D03*
%TD*%
%TO.C,R11*%
X134262500Y-119380000D03*
X132437500Y-119380000D03*
%TD*%
%TO.C,R10*%
X134262500Y-124460000D03*
X132437500Y-124460000D03*
%TD*%
D14*
%TO.C,R9*%
X117197500Y-121920000D03*
X119022500Y-121920000D03*
%TD*%
%TO.C,R8*%
X117197500Y-116840000D03*
X119022500Y-116840000D03*
%TD*%
%TO.C,R7*%
X117197500Y-111760000D03*
X119022500Y-111760000D03*
%TD*%
D15*
%TO.C,R6*%
X134262500Y-81280000D03*
X132437500Y-81280000D03*
%TD*%
%TO.C,R5*%
X134262500Y-88900000D03*
X132437500Y-88900000D03*
%TD*%
%TO.C,R4*%
X134262500Y-93980000D03*
X132437500Y-93980000D03*
%TD*%
D14*
%TO.C,R3*%
X117197500Y-91440000D03*
X119022500Y-91440000D03*
%TD*%
%TO.C,R2*%
X117197500Y-86360000D03*
X119022500Y-86360000D03*
%TD*%
%TO.C,R1*%
X117197500Y-81280000D03*
X119022500Y-81280000D03*
%TD*%
D16*
%TO.C,C7*%
X185875000Y-104140000D03*
X184150000Y-104140000D03*
%TD*%
%TO.C,C6*%
X166825000Y-104140000D03*
X165100000Y-104140000D03*
%TD*%
%TO.C,C5*%
X185875000Y-73660000D03*
X184150000Y-73660000D03*
%TD*%
%TO.C,C4*%
X166825000Y-73660000D03*
X165100000Y-73660000D03*
%TD*%
%TO.C,C3*%
X123645000Y-104140000D03*
X121920000Y-104140000D03*
%TD*%
%TO.C,C2*%
X123645000Y-73660000D03*
X121920000Y-73660000D03*
%TD*%
D17*
%TO.C,U7*%
X184135000Y-106680000D03*
D18*
X184135000Y-109220000D03*
X184135000Y-111760000D03*
X184135000Y-114300000D03*
X184135000Y-116840000D03*
X184135000Y-119380000D03*
X184135000Y-121920000D03*
X184135000Y-124460000D03*
X191755000Y-124460000D03*
X191755000Y-121920000D03*
X191755000Y-119380000D03*
X191755000Y-116840000D03*
X191755000Y-114300000D03*
X191755000Y-111760000D03*
X191755000Y-109220000D03*
X191755000Y-106680000D03*
%TD*%
D17*
%TO.C,U6*%
X165085000Y-106680000D03*
D18*
X165085000Y-109220000D03*
X165085000Y-111760000D03*
X165085000Y-114300000D03*
X165085000Y-116840000D03*
X165085000Y-119380000D03*
X165085000Y-121920000D03*
X165085000Y-124460000D03*
X172705000Y-124460000D03*
X172705000Y-121920000D03*
X172705000Y-119380000D03*
X172705000Y-116840000D03*
X172705000Y-114300000D03*
X172705000Y-111760000D03*
X172705000Y-109220000D03*
X172705000Y-106680000D03*
%TD*%
D17*
%TO.C,U5*%
X184120000Y-76215000D03*
D18*
X184120000Y-78755000D03*
X184120000Y-81295000D03*
X184120000Y-83835000D03*
X184120000Y-86375000D03*
X184120000Y-88915000D03*
X184120000Y-91455000D03*
X184120000Y-93995000D03*
X191740000Y-93995000D03*
X191740000Y-91455000D03*
X191740000Y-88915000D03*
X191740000Y-86375000D03*
X191740000Y-83835000D03*
X191740000Y-81295000D03*
X191740000Y-78755000D03*
X191740000Y-76215000D03*
%TD*%
D17*
%TO.C,U4*%
X165085000Y-76215000D03*
D18*
X165085000Y-78755000D03*
X165085000Y-81295000D03*
X165085000Y-83835000D03*
X165085000Y-86375000D03*
X165085000Y-88915000D03*
X165085000Y-91455000D03*
X165085000Y-93995000D03*
X172705000Y-93995000D03*
X172705000Y-91455000D03*
X172705000Y-88915000D03*
X172705000Y-86375000D03*
X172705000Y-83835000D03*
X172705000Y-81295000D03*
X172705000Y-78755000D03*
X172705000Y-76215000D03*
%TD*%
D17*
%TO.C,U3*%
X121905000Y-106695000D03*
D18*
X121905000Y-109235000D03*
X121905000Y-111775000D03*
X121905000Y-114315000D03*
X121905000Y-116855000D03*
X121905000Y-119395000D03*
X121905000Y-121935000D03*
X121905000Y-124475000D03*
X129525000Y-124475000D03*
X129525000Y-121935000D03*
X129525000Y-119395000D03*
X129525000Y-116855000D03*
X129525000Y-114315000D03*
X129525000Y-111775000D03*
X129525000Y-109235000D03*
X129525000Y-106695000D03*
%TD*%
D17*
%TO.C,U2*%
X121920000Y-76200000D03*
D18*
X121920000Y-78740000D03*
X121920000Y-81280000D03*
X121920000Y-83820000D03*
X121920000Y-86360000D03*
X121920000Y-88900000D03*
X121920000Y-91440000D03*
X121920000Y-93980000D03*
X129540000Y-93980000D03*
X129540000Y-91440000D03*
X129540000Y-88900000D03*
X129540000Y-86360000D03*
X129540000Y-83820000D03*
X129540000Y-81280000D03*
X129540000Y-78740000D03*
X129540000Y-76200000D03*
%TD*%
D19*
%TO.C,J3*%
X112500000Y-69850000D03*
D20*
X112500000Y-72390000D03*
X112500000Y-74930000D03*
X112500000Y-77470000D03*
X112500000Y-80010000D03*
X112500000Y-82550000D03*
X112500000Y-85090000D03*
X112500000Y-87630000D03*
X112500000Y-90170000D03*
X112500000Y-92710000D03*
X112500000Y-95250000D03*
X112500000Y-97790000D03*
X112500000Y-100330000D03*
X112500000Y-102870000D03*
X112500000Y-105410000D03*
X112500000Y-107950000D03*
X112500000Y-110490000D03*
X112500000Y-113030000D03*
X112500000Y-115570000D03*
X112500000Y-118110000D03*
X112500000Y-120650000D03*
X112500000Y-123190000D03*
X112500000Y-125730000D03*
X112500000Y-128270000D03*
X112500000Y-130810000D03*
%TD*%
D21*
%TO.C,J2*%
X102895000Y-113680000D03*
D22*
X102895000Y-114950000D03*
X102895000Y-116220000D03*
X102895000Y-117490000D03*
X102895000Y-118760000D03*
X102895000Y-120030000D03*
X102895000Y-121300000D03*
X102895000Y-122570000D03*
X102895000Y-123840000D03*
X102895000Y-125110000D03*
%TD*%
D23*
%TO.C,H3*%
X187500000Y-137500000D03*
%TD*%
%TO.C,H2*%
X187500000Y-62500000D03*
%TD*%
D21*
%TO.C,J1*%
X102895000Y-78755000D03*
D22*
X102895000Y-80025000D03*
X102895000Y-81295000D03*
X102895000Y-82565000D03*
X102895000Y-83835000D03*
X102895000Y-85105000D03*
X102895000Y-86375000D03*
X102895000Y-87645000D03*
X102895000Y-88915000D03*
X102895000Y-90185000D03*
X102895000Y-91455000D03*
X102895000Y-92725000D03*
X102895000Y-93995000D03*
X102895000Y-95265000D03*
X102895000Y-96535000D03*
%TD*%
D17*
%TO.C,U1*%
X157480000Y-129540000D03*
D18*
X157480000Y-127000000D03*
X157480000Y-124460000D03*
X157480000Y-121920000D03*
X157480000Y-119380000D03*
X157480000Y-116840000D03*
X157480000Y-114300000D03*
X157480000Y-111760000D03*
X157480000Y-109220000D03*
X157480000Y-106680000D03*
X157480000Y-104140000D03*
X157480000Y-101600000D03*
X157480000Y-99060000D03*
X157480000Y-96520000D03*
X157480000Y-93980000D03*
X157480000Y-91440000D03*
X157480000Y-88900000D03*
X157480000Y-86360000D03*
X157480000Y-83820000D03*
X157480000Y-81280000D03*
X157480000Y-78740000D03*
X157480000Y-76200000D03*
X157480000Y-73660000D03*
X157480000Y-71120000D03*
X142240000Y-71120000D03*
X142240000Y-73660000D03*
X142240000Y-76200000D03*
X142240000Y-78740000D03*
X142240000Y-81280000D03*
X142240000Y-83820000D03*
X142240000Y-86360000D03*
X142240000Y-88900000D03*
X142240000Y-91440000D03*
X142240000Y-93980000D03*
X142240000Y-96520000D03*
X142240000Y-99060000D03*
X142240000Y-101600000D03*
X142240000Y-104140000D03*
X142240000Y-106680000D03*
X142240000Y-109220000D03*
X142240000Y-111760000D03*
X142240000Y-114300000D03*
X142240000Y-116840000D03*
X142240000Y-119380000D03*
X142240000Y-121920000D03*
X142240000Y-124460000D03*
X142240000Y-127000000D03*
X142240000Y-129540000D03*
%TD*%
D23*
%TO.C,H1*%
X112500000Y-62500000D03*
%TD*%
%TO.C,H4*%
X112500000Y-137500000D03*
%TD*%
M02*
