%TF.GenerationSoftware,KiCad,Pcbnew,6.0.9+dfsg-1*%
%TF.CreationDate,2022-12-20T22:45:34+00:00*%
%TF.ProjectId,HP_54542C_Display_Adapter,48505f35-3435-4343-9243-5f446973706c,1*%
%TF.SameCoordinates,Original*%
%TF.FileFunction,Soldermask,Bot*%
%TF.FilePolarity,Negative*%
%FSLAX46Y46*%
G04 Gerber Fmt 4.6, Leading zero omitted, Abs format (unit mm)*
G04 Created by KiCad (PCBNEW 6.0.9+dfsg-1) date 2022-12-20 22:45:34*
%MOMM*%
%LPD*%
G01*
G04 APERTURE LIST*
%ADD10C,4.500000*%
%ADD11C,1.500000*%
%ADD12R,2.400000X1.600000*%
%ADD13O,2.400000X1.600000*%
%ADD14R,1.700000X1.700000*%
%ADD15O,1.700000X1.700000*%
%ADD16R,1.000000X1.000000*%
%ADD17O,1.000000X1.000000*%
%ADD18C,7.500000*%
G04 APERTURE END LIST*
D10*
%TO.C,J5*%
X145695166Y-137481254D03*
X120705166Y-137454731D03*
D11*
X138041500Y-134945337D03*
X135751500Y-134945337D03*
X133461500Y-134960000D03*
X131171500Y-134960000D03*
X128881500Y-134960000D03*
X139186500Y-137447244D03*
X136896500Y-137462593D03*
X134606500Y-137477943D03*
X132316500Y-137493292D03*
X130026500Y-137500000D03*
X138030166Y-140040000D03*
X135740166Y-140040000D03*
X133450166Y-140040000D03*
X131160166Y-140040000D03*
X128881500Y-140040000D03*
%TD*%
D10*
%TO.C,J4*%
X179395166Y-137431254D03*
X154405166Y-137404731D03*
D11*
X171741500Y-134895337D03*
X169451500Y-134895337D03*
X167161500Y-134910000D03*
X164871500Y-134910000D03*
X162581500Y-134910000D03*
X172886500Y-137397244D03*
X170596500Y-137412593D03*
X168306500Y-137427943D03*
X166016500Y-137443292D03*
X163726500Y-137450000D03*
X171730166Y-139990000D03*
X169440166Y-139990000D03*
X167150166Y-139990000D03*
X164860166Y-139990000D03*
X162581500Y-139990000D03*
%TD*%
D12*
%TO.C,U7*%
X184135000Y-106680000D03*
D13*
X184135000Y-109220000D03*
X184135000Y-111760000D03*
X184135000Y-114300000D03*
X184135000Y-116840000D03*
X184135000Y-119380000D03*
X184135000Y-121920000D03*
X184135000Y-124460000D03*
X191755000Y-124460000D03*
X191755000Y-121920000D03*
X191755000Y-119380000D03*
X191755000Y-116840000D03*
X191755000Y-114300000D03*
X191755000Y-111760000D03*
X191755000Y-109220000D03*
X191755000Y-106680000D03*
%TD*%
D12*
%TO.C,U6*%
X165085000Y-106680000D03*
D13*
X165085000Y-109220000D03*
X165085000Y-111760000D03*
X165085000Y-114300000D03*
X165085000Y-116840000D03*
X165085000Y-119380000D03*
X165085000Y-121920000D03*
X165085000Y-124460000D03*
X172705000Y-124460000D03*
X172705000Y-121920000D03*
X172705000Y-119380000D03*
X172705000Y-116840000D03*
X172705000Y-114300000D03*
X172705000Y-111760000D03*
X172705000Y-109220000D03*
X172705000Y-106680000D03*
%TD*%
D12*
%TO.C,U5*%
X184120000Y-76215000D03*
D13*
X184120000Y-78755000D03*
X184120000Y-81295000D03*
X184120000Y-83835000D03*
X184120000Y-86375000D03*
X184120000Y-88915000D03*
X184120000Y-91455000D03*
X184120000Y-93995000D03*
X191740000Y-93995000D03*
X191740000Y-91455000D03*
X191740000Y-88915000D03*
X191740000Y-86375000D03*
X191740000Y-83835000D03*
X191740000Y-81295000D03*
X191740000Y-78755000D03*
X191740000Y-76215000D03*
%TD*%
D12*
%TO.C,U4*%
X165085000Y-76215000D03*
D13*
X165085000Y-78755000D03*
X165085000Y-81295000D03*
X165085000Y-83835000D03*
X165085000Y-86375000D03*
X165085000Y-88915000D03*
X165085000Y-91455000D03*
X165085000Y-93995000D03*
X172705000Y-93995000D03*
X172705000Y-91455000D03*
X172705000Y-88915000D03*
X172705000Y-86375000D03*
X172705000Y-83835000D03*
X172705000Y-81295000D03*
X172705000Y-78755000D03*
X172705000Y-76215000D03*
%TD*%
D12*
%TO.C,U3*%
X121905000Y-106695000D03*
D13*
X121905000Y-109235000D03*
X121905000Y-111775000D03*
X121905000Y-114315000D03*
X121905000Y-116855000D03*
X121905000Y-119395000D03*
X121905000Y-121935000D03*
X121905000Y-124475000D03*
X129525000Y-124475000D03*
X129525000Y-121935000D03*
X129525000Y-119395000D03*
X129525000Y-116855000D03*
X129525000Y-114315000D03*
X129525000Y-111775000D03*
X129525000Y-109235000D03*
X129525000Y-106695000D03*
%TD*%
D12*
%TO.C,U2*%
X121920000Y-76200000D03*
D13*
X121920000Y-78740000D03*
X121920000Y-81280000D03*
X121920000Y-83820000D03*
X121920000Y-86360000D03*
X121920000Y-88900000D03*
X121920000Y-91440000D03*
X121920000Y-93980000D03*
X129540000Y-93980000D03*
X129540000Y-91440000D03*
X129540000Y-88900000D03*
X129540000Y-86360000D03*
X129540000Y-83820000D03*
X129540000Y-81280000D03*
X129540000Y-78740000D03*
X129540000Y-76200000D03*
%TD*%
D14*
%TO.C,J3*%
X112500000Y-69850000D03*
D15*
X112500000Y-72390000D03*
X112500000Y-74930000D03*
X112500000Y-77470000D03*
X112500000Y-80010000D03*
X112500000Y-82550000D03*
X112500000Y-85090000D03*
X112500000Y-87630000D03*
X112500000Y-90170000D03*
X112500000Y-92710000D03*
X112500000Y-95250000D03*
X112500000Y-97790000D03*
X112500000Y-100330000D03*
X112500000Y-102870000D03*
X112500000Y-105410000D03*
X112500000Y-107950000D03*
X112500000Y-110490000D03*
X112500000Y-113030000D03*
X112500000Y-115570000D03*
X112500000Y-118110000D03*
X112500000Y-120650000D03*
X112500000Y-123190000D03*
X112500000Y-125730000D03*
X112500000Y-128270000D03*
X112500000Y-130810000D03*
%TD*%
D16*
%TO.C,J2*%
X102895000Y-113680000D03*
D17*
X102895000Y-114950000D03*
X102895000Y-116220000D03*
X102895000Y-117490000D03*
X102895000Y-118760000D03*
X102895000Y-120030000D03*
X102895000Y-121300000D03*
X102895000Y-122570000D03*
X102895000Y-123840000D03*
X102895000Y-125110000D03*
%TD*%
D18*
%TO.C,H3*%
X187500000Y-137500000D03*
%TD*%
%TO.C,H2*%
X187500000Y-62500000D03*
%TD*%
D16*
%TO.C,J1*%
X102895000Y-78755000D03*
D17*
X102895000Y-80025000D03*
X102895000Y-81295000D03*
X102895000Y-82565000D03*
X102895000Y-83835000D03*
X102895000Y-85105000D03*
X102895000Y-86375000D03*
X102895000Y-87645000D03*
X102895000Y-88915000D03*
X102895000Y-90185000D03*
X102895000Y-91455000D03*
X102895000Y-92725000D03*
X102895000Y-93995000D03*
X102895000Y-95265000D03*
X102895000Y-96535000D03*
%TD*%
D12*
%TO.C,U1*%
X157480000Y-129540000D03*
D13*
X157480000Y-127000000D03*
X157480000Y-124460000D03*
X157480000Y-121920000D03*
X157480000Y-119380000D03*
X157480000Y-116840000D03*
X157480000Y-114300000D03*
X157480000Y-111760000D03*
X157480000Y-109220000D03*
X157480000Y-106680000D03*
X157480000Y-104140000D03*
X157480000Y-101600000D03*
X157480000Y-99060000D03*
X157480000Y-96520000D03*
X157480000Y-93980000D03*
X157480000Y-91440000D03*
X157480000Y-88900000D03*
X157480000Y-86360000D03*
X157480000Y-83820000D03*
X157480000Y-81280000D03*
X157480000Y-78740000D03*
X157480000Y-76200000D03*
X157480000Y-73660000D03*
X157480000Y-71120000D03*
X142240000Y-71120000D03*
X142240000Y-73660000D03*
X142240000Y-76200000D03*
X142240000Y-78740000D03*
X142240000Y-81280000D03*
X142240000Y-83820000D03*
X142240000Y-86360000D03*
X142240000Y-88900000D03*
X142240000Y-91440000D03*
X142240000Y-93980000D03*
X142240000Y-96520000D03*
X142240000Y-99060000D03*
X142240000Y-101600000D03*
X142240000Y-104140000D03*
X142240000Y-106680000D03*
X142240000Y-109220000D03*
X142240000Y-111760000D03*
X142240000Y-114300000D03*
X142240000Y-116840000D03*
X142240000Y-119380000D03*
X142240000Y-121920000D03*
X142240000Y-124460000D03*
X142240000Y-127000000D03*
X142240000Y-129540000D03*
%TD*%
D18*
%TO.C,H1*%
X112500000Y-62500000D03*
%TD*%
%TO.C,H4*%
X112500000Y-137500000D03*
%TD*%
M02*
